<svg width="24" height="24" viewBox="0 0 24 24" fill="none" xmlns="http://www.w3.org/2000/svg">
<path d="M9 14.9997V19.6122C9.01718 19.7953 9.10521 19.9644 9.24533 20.0835C9.38544 20.2026 9.56654 20.2622 9.75 20.2497H18.75C18.9335 20.2622 19.1146 20.2026 19.2547 20.0835C19.3948 19.9644 19.4828 19.7953 19.5 19.6122V4.38717C19.4828 4.20409 19.3948 4.03496 19.2547 3.91586C19.1146 3.79677 18.9335 3.73713 18.75 3.74967H9.75C9.56654 3.73713 9.38544 3.79677 9.24533 3.91586C9.10521 4.03496 9.01718 4.20409 9 4.38717V8.99967C9 9.19858 8.92098 9.38935 8.78033 9.53C8.63968 9.67065 8.44891 9.74967 8.25 9.74967C8.05109 9.74967 7.86032 9.67065 7.71967 9.53C7.57902 9.38935 7.5 9.19858 7.5 8.99967V4.38717C7.51571 3.80562 7.76139 3.25403 8.18317 2.85334C8.60495 2.45265 9.16841 2.23556 9.75 2.24967H18.75C19.3316 2.23556 19.895 2.45265 20.3168 2.85334C20.7386 3.25403 20.9843 3.80562 21 4.38717V19.6122C20.9843 20.1937 20.7386 20.7453 20.3168 21.146C19.895 21.5467 19.3316 21.7638 18.75 21.7497H9.75C9.16841 21.7638 8.60495 21.5467 8.18317 21.146C7.76139 20.7453 7.51571 20.1937 7.5 19.6122V14.9997C7.5 14.8008 7.57902 14.61 7.71967 14.4693C7.86032 14.3287 8.05109 14.2497 8.25 14.2497C8.44891 14.2497 8.63968 14.3287 8.78033 14.4693C8.92098 14.61 9 14.8008 9 14.9997Z" fill="#666666"/>
<path d="M1.815 11.3851L4.995 9.13509C5.15728 9.02122 5.35804 8.97623 5.55339 9.00996C5.74875 9.04369 5.9228 9.15339 6.0375 9.31509C6.09505 9.3957 6.13606 9.48691 6.15817 9.58346C6.18028 9.68 6.18305 9.77997 6.16632 9.8776C6.14958 9.97522 6.11368 10.0686 6.06067 10.1522C6.00767 10.2359 5.93861 10.3082 5.8575 10.3651L4.605 11.2501H14.25C14.4489 11.2501 14.6397 11.3291 14.7803 11.4698C14.921 11.6104 15 11.8012 15 12.0001C15 12.199 14.921 12.3898 14.7803 12.5304C14.6397 12.6711 14.4489 12.7501 14.25 12.7501H4.395L5.5425 13.6651C5.62282 13.7254 5.6902 13.8013 5.74064 13.8882C5.79108 13.9751 5.82355 14.0712 5.83613 14.1709C5.8487 14.2705 5.84112 14.3717 5.81384 14.4684C5.78656 14.5651 5.74013 14.6553 5.67731 14.7337C5.61449 14.8121 5.53656 14.8771 5.44815 14.9248C5.35973 14.9725 5.26263 15.0019 5.16262 15.0114C5.0626 15.0209 4.9617 15.0101 4.86592 14.9798C4.77013 14.9495 4.6814 14.9003 4.605 14.8351L1.785 12.5851C1.69356 12.5129 1.62018 12.4205 1.57068 12.315C1.52119 12.2096 1.49693 12.094 1.49984 11.9776C1.50276 11.8611 1.53275 11.747 1.58745 11.6441C1.64216 11.5413 1.72007 11.4526 1.815 11.3851Z" fill="#666666"/>
</svg>
