<svg width="24" height="24" viewBox="0 0 24 24" fill="none" xmlns="http://www.w3.org/2000/svg">
<path d="M16.1249 22.4915H7.87487C6.79037 22.4915 5.51687 21.7565 4.97537 20.8175L0.850375 13.6745C0.299875 12.7205 0.299875 11.2805 0.850375 10.3258L4.97612 3.18279C5.51762 2.24379 6.79112 1.50879 7.87562 1.50879H16.1249C17.2094 1.50879 18.4829 2.24379 19.0244 3.18279L23.1494 10.3258C23.6999 11.2798 23.6999 12.7198 23.1494 13.6745L19.0236 20.8175C18.4829 21.7565 17.2086 22.4915 16.1249 22.4915ZM7.87487 3.00804C7.31612 3.00804 6.55337 3.44829 6.27437 3.93204L2.14862 11.075C1.86962 11.5588 1.86962 12.44 2.14862 12.9238L6.27362 20.0668C6.55337 20.5513 7.31612 20.9908 7.87412 20.9908H16.1249C16.6836 20.9908 17.4464 20.5505 17.7254 20.0668L21.8511 12.9238C22.1301 12.44 22.1301 11.5588 21.8511 11.075L17.7261 3.93204C17.4464 3.44754 16.6836 3.00804 16.1256 3.00804H7.87487ZM11.9999 16.4368C9.55262 16.4368 7.56212 14.4463 7.56212 11.9998C7.56212 9.55329 9.55262 7.56279 11.9999 7.56279C14.4471 7.56279 16.4376 9.55329 16.4376 11.9998C16.4376 14.4463 14.4471 16.4368 11.9999 16.4368ZM11.9999 9.06279C10.3799 9.06279 9.06212 10.3805 9.06212 11.9998C9.06212 13.619 10.3799 14.9368 11.9999 14.9368C13.6199 14.9368 14.9376 13.619 14.9376 11.9998C14.9376 10.3805 13.6199 9.06279 11.9999 9.06279Z" fill="#666666"/>
</svg>
