<svg width="24" height="24" viewBox="0 0 24 24" fill="none" xmlns="http://www.w3.org/2000/svg">
<path fill-rule="evenodd" clip-rule="evenodd" d="M10.5 2.5C10.5001 2.40149 10.4807 2.30394 10.443 2.21292C10.4054 2.12189 10.3501 2.03919 10.2805 1.96953C10.2108 1.89988 10.1281 1.84464 10.0371 1.80697C9.94606 1.7693 9.84851 1.74994 9.75 1.75H5.075C4.63841 1.74957 4.20601 1.83521 3.80255 2.00202C3.39908 2.16884 3.03245 2.41355 2.72364 2.72217C2.41483 3.03079 2.16988 3.39727 2.00282 3.80063C1.83575 4.20399 1.74984 4.63633 1.75 5.07293V9.75C1.74994 9.84851 1.76929 9.94607 1.80696 10.0371C1.84463 10.1281 1.89987 10.2108 1.96952 10.2805C2.03918 10.3501 2.12189 10.4054 2.21291 10.443C2.30394 10.4807 2.40149 10.5001 2.5 10.5H8.75C8.97982 10.5 9.2074 10.4548 9.41973 10.3668C9.63206 10.2789 9.82499 10.15 9.9875 9.9875C10.15 9.825 10.2789 9.63206 10.3668 9.41973C10.4548 9.2074 10.5 8.97982 10.5 8.75V2.5ZM9.00003 3.25V8.75C9.00015 8.78287 8.99377 8.81543 8.98126 8.84582C8.96874 8.87621 8.95033 8.90382 8.92709 8.92706C8.90385 8.9503 8.87624 8.96871 8.84585 8.98123C8.81546 8.99375 8.78289 9.00013 8.75003 9H3.25V5.07293C3.24974 4.83329 3.29677 4.59595 3.38842 4.37453C3.48007 4.15311 3.61452 3.95195 3.78407 3.7826C3.95361 3.61324 4.15492 3.47902 4.37645 3.38763C4.59797 3.29623 4.83536 3.24946 5.075 3.25H9.00003ZM22.25 5.19792C22.2502 4.76133 22.1643 4.32898 21.9972 3.92562C21.8301 3.52225 21.5852 3.15578 21.2764 2.84716C20.9676 2.53853 20.6009 2.29382 20.1975 2.12701C19.794 1.9602 19.3616 1.87456 18.925 1.875H14.25C14.1515 1.87494 14.0539 1.8943 13.9629 1.93197C13.8719 1.96964 13.7892 2.02488 13.7195 2.09453C13.6499 2.16419 13.5946 2.24689 13.557 2.33792C13.5193 2.42894 13.4999 2.52649 13.5 2.625V8.875C13.5 9.10482 13.5452 9.33239 13.6332 9.54472C13.7211 9.75705 13.85 9.94998 14.0125 10.1125C14.175 10.275 14.368 10.4039 14.5803 10.4918C14.7926 10.5798 15.0202 10.625 15.25 10.625H21.5C21.5985 10.6251 21.6961 10.6057 21.7871 10.568C21.8781 10.5304 21.9608 10.4751 22.0305 10.4055C22.1001 10.3358 22.1554 10.2531 22.193 10.1621C22.2307 10.0711 22.2501 9.97351 22.25 9.875V5.19792ZM20.75 5.19792V9.125H15.25C15.2172 9.12513 15.1846 9.11876 15.1542 9.10624C15.1238 9.09372 15.0962 9.07531 15.073 9.05207C15.0497 9.02883 15.0313 9.00122 15.0188 8.97083C15.0063 8.94044 14.9999 8.90787 15 8.875V3.375H18.925C19.1647 3.37446 19.4021 3.42123 19.6236 3.51262C19.8451 3.60402 20.0464 3.73824 20.216 3.90759C20.3855 4.07695 20.52 4.2781 20.6116 4.49953C20.7033 4.72095 20.7503 4.95828 20.75 5.19792ZM9.75 22.25C9.84851 22.2501 9.94606 22.2307 10.0371 22.193C10.1281 22.1554 10.2108 22.1001 10.2805 22.0305C10.3501 21.9608 10.4054 21.8781 10.443 21.7871C10.4807 21.6961 10.5001 21.5985 10.5 21.5V15.25C10.5 15.0202 10.4548 14.7926 10.3669 14.5803C10.2789 14.3679 10.15 14.175 9.98752 14.0125C9.82501 13.85 9.63207 13.7211 9.41974 13.6331C9.2074 13.5452 8.97982 13.5 8.75 13.5H2.5C2.40149 13.4999 2.30394 13.5193 2.21291 13.557C2.12189 13.5946 2.03918 13.6499 1.96952 13.7195C1.89987 13.7892 1.84463 13.8719 1.80696 13.9629C1.76929 14.0539 1.74994 14.1515 1.75 14.25V18.925C1.74957 19.3618 1.83528 19.7943 2.00222 20.1979C2.16916 20.6015 2.41407 20.9683 2.72291 21.2771C3.03175 21.5859 3.39846 21.8308 3.80207 21.9978C4.20567 22.1647 4.63823 22.2504 5.075 22.25H9.75ZM9.00003 20.75H5.075C4.83532 20.7501 4.59798 20.7029 4.37653 20.6112C4.15508 20.5195 3.95387 20.3851 3.78439 20.2156C3.61491 20.0461 3.48048 19.8449 3.38879 19.6235C3.2971 19.402 3.24994 19.1647 3.25 18.925V15H8.75C8.78288 14.9998 8.81547 15.0061 8.84588 15.0186C8.87628 15.0311 8.90388 15.0496 8.92707 15.0729C8.9737 15.1201 8.99991 15.1837 9.00002 15.25L9.00003 20.75ZM22.25 18.7375V14.0625C22.2501 13.964 22.2307 13.8664 22.193 13.7754C22.1554 13.6844 22.1001 13.6017 22.0305 13.532C21.9608 13.4624 21.8781 13.4071 21.7871 13.3695C21.6961 13.3318 21.5985 13.3124 21.5 13.3125H15.25C15.0202 13.3125 14.7926 13.3577 14.5803 13.4457C14.368 13.5336 14.1751 13.6625 14.0126 13.825C13.85 13.9875 13.7211 14.1805 13.6332 14.3928C13.5453 14.6051 13.5 14.8327 13.5 15.0625V21.3125C13.5 21.411 13.5193 21.5086 13.557 21.5996C13.5947 21.6906 13.6499 21.7733 13.7196 21.843C13.7892 21.9126 13.8719 21.9679 13.9629 22.0055C14.054 22.0432 14.1515 22.0626 14.25 22.0625H18.925C19.3618 22.0629 19.7944 21.9772 20.198 21.8103C20.6016 21.6433 20.9683 21.3984 21.2771 21.0896C21.586 20.7808 21.8309 20.414 21.9978 20.0104C22.1648 19.6068 22.2504 19.1743 22.25 18.7375ZM20.75 18.7375C20.7501 18.9772 20.7029 19.2145 20.6113 19.436C20.5196 19.6574 20.3851 19.8586 20.2157 20.0281C20.0462 20.1976 19.845 20.332 19.6235 20.4237C19.4021 20.5154 19.1647 20.5626 18.925 20.5625H15V15.0625C15.0001 14.9962 15.0263 14.9326 15.0729 14.8854C15.0961 14.8621 15.1237 14.8436 15.1541 14.8311C15.1845 14.8186 15.2171 14.8123 15.25 14.8125H20.75L20.75 18.7375Z" fill="#666666"/>
</svg>
