<svg width="24" height="28" viewBox="0 0 24 28" fill="none" xmlns="http://www.w3.org/2000/svg">
<path d="M14.0465 25.186H9.95346V27H14.0465V25.186ZM2.53488 16.4186V11.5814H1V16.4186H2.53488ZM21.4651 15.8902V16.4186H22.9999V15.8902H21.4651ZM14.9582 5.06452L19.0092 9.37325L20.0356 8.02368L15.9855 3.71494L14.9582 5.06452ZM22.9999 15.8902C22.9999 13.8477 23.0153 12.5537 22.5804 11.3976L21.1775 12.1365C21.4497 12.8597 21.4651 13.688 21.4651 15.8902H22.9999ZM19.0092 9.37325C20.3937 10.8462 20.9053 11.4145 21.1775 12.1365L22.5804 11.3976C22.1445 10.2403 21.3208 9.39018 20.0356 8.02368L19.0092 9.37325ZM9.98416 2.81402C11.6029 2.81402 12.2138 2.82853 12.7572 3.07522L13.3077 1.38221C12.4359 0.985556 11.4863 1.00007 9.98416 1.00007V2.81402ZM15.9855 3.71615C14.8743 2.53467 14.1795 1.77644 13.3077 1.38221L12.7582 3.07522C13.3026 3.32192 13.761 3.79113 14.9582 5.06452L15.9855 3.71615ZM9.95346 25.186C8.00212 25.186 6.61664 25.1836 5.56371 25.0167C4.53534 24.8535 3.94185 24.5463 3.50902 24.0348L2.42437 25.3167C3.18976 26.2236 4.16083 26.6239 5.36008 26.815C6.53682 27.0024 8.04612 27 9.95346 27V25.186ZM1 16.4186C1 18.6728 0.997955 20.4553 1.15656 21.8472C1.31823 23.2645 1.65795 24.4121 2.42335 25.3179L3.50799 24.036C3.07618 23.5233 2.81627 22.8219 2.67814 21.6053C2.53693 20.3634 2.53488 18.7248 2.53488 16.4186H1ZM14.0465 27C15.9538 27 17.4621 27.0024 18.6399 26.815C19.8391 26.6239 20.8102 26.2224 21.5766 25.3179L20.4919 24.036C20.0581 24.5463 19.4646 24.8535 18.4352 25.0167C17.3843 25.1836 15.9978 25.186 14.0465 25.186V27ZM21.4651 16.4186C21.4651 18.7248 21.463 20.3634 21.3218 21.6065C21.1837 22.8219 20.9238 23.5233 20.4909 24.0348L21.5756 25.3167C22.343 24.4121 22.6817 23.2645 22.8434 21.8472C23.002 20.4565 22.9999 18.6728 22.9999 16.4186H21.4651ZM2.53488 11.5814C2.53488 9.2753 2.53693 7.63791 2.67814 6.39354C2.81627 5.1782 3.07618 4.4768 3.50902 3.96527L2.42437 2.68341C1.65693 3.58797 1.31823 4.73559 1.15656 6.15289C0.997955 7.54358 1 9.3273 1 11.5814H2.53488ZM9.98416 1.00007C8.06556 1.00007 6.55012 0.997649 5.36827 1.18509C4.1639 1.37616 3.18976 1.77765 2.42335 2.6822L3.50799 3.96406C3.94185 3.45374 4.53636 3.14657 5.57189 2.98332C6.62891 2.81643 8.02258 2.81402 9.98416 2.81402V1.00007Z" fill="#666666"/>
<path d="M13 2V5.33333C13 8.476 13 10.048 13.732 11.024C14.464 12 15.643 12 18 12H22" stroke="#666666" stroke-width="1.3"/>
</svg>
