<svg width="130" height="20" viewBox="0 0 130 20" fill="none" xmlns="http://www.w3.org/2000/svg">
<path d="M9.84075 13.6927L0 5.22815V0.0830078L9.84075 8.46461L19.6815 0.0830078V19.9997H15.6244V8.63058L9.84075 13.6927ZM4.05715 11.4521V19.9997H0V8.04967L4.05715 11.4521Z" fill="#EC1026"/>
<path d="M29.3516 19.9997H24.8628L32.0276 6.55591L34.2719 10.8712L29.3516 19.9997ZM39.7102 16.6802H33.495L35.5668 12.7799H37.7248L33.1497 4.31528L35.4804 0L46.0981 19.9167H41.6093L39.7102 16.6802Z" fill="#EC1026"/>
<path d="M54.9041 0.498047V19.9998H50.8469V0.498047H54.9041ZM57.0621 19.9998V16.0994H62.6731V19.9998H57.0621Z" fill="#EC1026"/>
<path d="M71.731 0.498047V19.9998H67.6738V0.498047H71.731ZM75.8745 19.9998H73.9754V16.0994H75.8745C77.6009 16.0994 78.9821 15.5185 80.1906 14.4397C81.3128 13.2779 81.917 11.9501 81.917 10.3734C81.917 8.71368 81.3128 7.30291 80.1906 6.1411C78.9821 4.9793 77.6009 4.3984 75.8745 4.3984H73.9754V0.498047H75.8745C78.6368 0.498047 81.0538 1.41089 82.9529 3.31958C84.9383 5.22826 85.8878 7.55187 85.8878 10.2904C85.8878 12.946 84.9383 15.1866 82.9529 17.0953C80.9675 19.004 78.6368 19.9998 75.8745 19.9998Z" fill="#EC1026"/>
<path d="M95.562 0.498047V19.9998H91.5049V0.498047H95.562ZM97.7201 0.498047H106.093V4.3984H97.7201V0.498047ZM97.7201 8.29874H106.093V12.1991H97.7201V8.29874ZM97.7201 16.0994H106.093V19.9998H97.7201V16.0994Z" fill="#EC1026"/>
<path d="M125.166 19.9998L111.354 0.498047H116.275L130 19.9998H125.166ZM119.469 15.5185L116.275 19.9168H111.354L116.965 11.9501L119.469 15.5185ZM124.475 8.46472L121.972 4.9793L125.08 0.498047H130L124.475 8.46472Z" fill="#EC1026"/>
</svg>
