<svg width="49" height="39" viewBox="0 0 49 39" fill="none" xmlns="http://www.w3.org/2000/svg">
<path d="M32.6442 2.01391C27.192 4.43711 21.7398 4.43711 16.2326 2.01391C15.6268 1.73855 14.9108 2.2342 14.9659 2.89508C16.1775 15.727 32.6442 15.727 33.8558 2.89508C33.9109 2.2342 33.25 1.73855 32.6442 2.01391Z" stroke="white" stroke-width="1.2" stroke-miterlimit="10" stroke-linecap="round" stroke-linejoin="round"/>
<path d="M37.4894 2.83999C36.5532 2.50955 35.5619 2.17912 34.5706 1.90375C33.8546 1.68346 33.0836 1.51825 32.3126 1.35303C32.3126 13.6893 16.5618 13.6893 16.5618 1.35303C15.7907 1.51825 15.0748 1.68346 14.3038 1.90375C13.3125 2.17912 12.3212 2.50955 11.3849 2.83999C7.63998 4.21681 4.22547 6.2545 1.03125 9.00814L5.16171 17.3792L11.3849 14.2951V37.9764H37.4894V14.2951L43.7126 17.3792L47.8431 9.00814C44.6489 6.30957 41.2344 4.27188 37.4894 2.83999Z" stroke="white" stroke-width="1.2" stroke-miterlimit="10" stroke-linecap="round" stroke-linejoin="round"/>
</svg>
