<svg width="9" height="9" viewBox="0 0 9 9" fill="none" xmlns="http://www.w3.org/2000/svg">
<path fill-rule="evenodd" clip-rule="evenodd" d="M4.54886 1.8278L4.54995 0.786133L8.19578 0.790018L8.19188 4.43587L7.15021 4.43473L7.15224 2.56571L5.56667 4.15129C6.25323 5.16441 6.14776 6.554 5.25026 7.4515C4.23328 8.46848 2.58442 8.46848 1.56743 7.4515C0.550439 6.43452 0.550439 4.78566 1.56743 3.76863C2.45165 2.88443 3.81354 2.76899 4.82245 3.42233L6.415 1.82979L4.54886 1.8278ZM2.304 4.5052C2.91419 3.89504 3.90349 3.89504 4.5137 4.5052C5.12391 5.1154 5.12391 6.10473 4.5137 6.71494C3.90349 7.32514 2.91419 7.32514 2.304 6.71494C1.69381 6.10473 1.69381 5.1154 2.304 4.5052Z" fill="#222220"/>
</svg>
