<svg width="7" height="10" viewBox="0 0 7 10" fill="none" xmlns="http://www.w3.org/2000/svg">
<path fill-rule="evenodd" clip-rule="evenodd" d="M3.4987 0.333008C2.06046 0.333008 0.894531 1.49893 0.894531 2.93717C0.894531 4.19707 1.7892 5.24796 2.97786 5.48926V6.58301H1.41536V7.62467H2.97786V9.70801H4.01953V7.62467H5.58203V6.58301H4.01953V5.48926C5.20818 5.24796 6.10287 4.19707 6.10287 2.93717C6.10287 1.49893 4.93693 0.333008 3.4987 0.333008ZM1.9362 2.93717C1.9362 3.80012 2.63573 4.49967 3.4987 4.49967C4.36167 4.49967 5.0612 3.80012 5.0612 2.93717C5.0612 2.07423 4.36167 1.37467 3.4987 1.37467C2.63573 1.37467 1.9362 2.07423 1.9362 2.93717Z" fill="white"/>
</svg>
