<svg width="24" height="24" viewBox="0 0 24 24" fill="none" xmlns="http://www.w3.org/2000/svg">
<g clip-path="url(#clip0_1749_15549)">
<path d="M5.2567 11.416H7.2447V2.484H12.3687C13.3207 2.484 14.1887 2.596 14.9727 2.82C15.7567 3.02533 16.4287 3.352 16.9887 3.8C17.5487 4.22933 17.9874 4.78 18.3047 5.452C18.622 6.124 18.7807 6.92667 18.7807 7.86C18.7807 8.79333 18.6127 9.60533 18.2767 10.296C17.9407 10.9867 17.4834 11.5653 16.9047 12.032C16.326 12.48 15.6447 12.816 14.8607 13.04C14.0767 13.264 13.2274 13.376 12.3127 13.376H9.4847V16.204H13.9927V18.052H9.4847V22H7.2447V18.052H5.2567V16.204H7.2447V13.376H5.2567V11.416ZM12.3687 11.416C13.6567 11.416 14.6647 11.1267 15.3927 10.548C16.1394 9.95067 16.5127 9.05467 16.5127 7.86C16.5127 6.66533 16.1394 5.79733 15.3927 5.256C14.6647 4.71467 13.6567 4.444 12.3687 4.444H9.4847V11.416H12.3687Z" fill="black"/>
</g>
<defs>
<clipPath id="clip0_1749_15549">
<rect width="24" height="24" fill="white"/>
</clipPath>
</defs>
</svg>
