<svg width="30" height="24" viewBox="0 0 30 24" fill="none" xmlns="http://www.w3.org/2000/svg">
<path d="M3.15799 0H25.8948C27.6317 0 29.0527 1.42105 29.0527 3.1579V20.8421C29.0527 22.579 27.6317 24 25.8948 24H3.15799C1.42115 24 9.53674e-05 22.579 9.53674e-05 20.8421V3.1579C9.53674e-05 1.42105 1.42115 0 3.15799 0ZM1.26325 12.1263L4.26325 9.12632C4.76852 8.62106 5.52641 8.62106 6.03168 9.12632L13.2633 16.3263L13.2948 16.2947L16.958 12.6316C17.4317 12.1579 18.2527 12.1579 18.7264 12.6316L21.8212 15.7263C22.0738 15.979 22.0738 16.3579 21.8212 16.6105C21.5685 16.8632 21.1896 16.8632 20.9369 16.6105L17.8422 13.5158L14.179 17.179L14.1475 17.2105L16.7054 19.7684C16.958 20.0211 16.958 20.4 16.7054 20.6526C16.579 20.779 16.4212 20.8421 16.2633 20.8421C16.1054 20.8421 15.9475 20.779 15.8212 20.6526L5.14747 10.0105L1.38957 13.7684C1.35799 13.8 1.29483 13.8316 1.26325 13.8632V20.8421C1.26325 21.8842 2.11588 22.7368 3.15799 22.7368H25.8948C26.9369 22.7368 27.7896 21.8842 27.7896 20.8421V3.1579C27.7896 2.11579 26.9369 1.26316 25.8948 1.26316H3.15799C2.11588 1.26316 1.26325 2.11579 1.26325 3.1579V12.1263Z" fill="#666666"/>
<path d="M23.3372 17.2422L23.9687 17.8738C24.2214 18.1264 24.2214 18.5054 23.9687 18.758C23.8424 18.8843 23.6845 18.9475 23.5266 18.9475C23.3687 18.9475 23.2108 18.8843 23.0845 18.758L22.4529 18.1264C22.2003 17.8738 22.2003 17.4948 22.4529 17.2422C22.7056 16.9896 23.0845 16.9896 23.3372 17.2422Z" fill="#666666"/>
<path d="M22.1058 3.78955C23.8426 3.78955 25.2637 5.2106 25.2637 6.94745C25.2637 8.68429 23.8426 10.1053 22.1058 10.1053C20.3689 10.1053 18.9479 8.68429 18.9479 6.94745C18.9479 5.2106 20.3689 3.78955 22.1058 3.78955ZM22.1058 8.84218C23.1479 8.84218 24.0005 7.98955 24.0005 6.94745C24.0005 5.90534 23.1479 5.05271 22.1058 5.05271C21.0637 5.05271 20.211 5.90534 20.211 6.94745C20.211 7.98955 21.0637 8.84218 22.1058 8.84218Z" fill="#666666"/>
</svg>
