<svg width="29" height="24" viewBox="0 0 29 24" fill="none" xmlns="http://www.w3.org/2000/svg">
<path d="M28.5237 9.25816L25.9595 6.69401C25.7279 6.46235 25.3521 6.46235 25.1204 6.69401L22.84 8.97435C22.8399 8.97451 22.8396 8.97467 22.8395 8.9749C22.8393 8.97514 22.8392 8.9753 22.8389 8.97546L16.9891 14.8252C16.9013 14.9131 16.8432 15.0263 16.8231 15.1489L16.3203 18.216C16.2894 18.4045 16.3513 18.5965 16.4863 18.7316C16.5985 18.8437 16.7499 18.9053 16.906 18.9053C16.9379 18.9053 16.97 18.9028 17.002 18.8975L20.069 18.3948C20.1916 18.3747 20.3048 18.3166 20.3927 18.2288L28.5238 10.0974C28.6351 9.98607 28.6976 9.83518 28.6976 9.67773C28.6976 9.52028 28.6351 9.36948 28.5237 9.25816ZM19.6884 17.2543L17.6251 17.5926L17.9633 15.5293L23.2591 10.2336L24.984 11.9586L19.6884 17.2543ZM25.8234 11.1195L24.0984 9.39448L25.54 7.95282L27.2651 9.67781L25.8234 11.1195Z" fill="#666666"/>
<path d="M25.2159 15.2588C24.7828 15.2588 24.4319 15.5244 24.4319 15.8522V22.8132H2.56815V1.18681H24.4319V5.05486C24.4319 5.38266 24.7828 5.64827 25.2159 5.64827C25.649 5.64827 26 5.38266 26 5.05486V0.593405C26 0.265608 25.649 0 25.2159 0H1.78407C1.35095 0 1 0.265608 1 0.593405V23.4066C1 23.7344 1.35095 24 1.78407 24H25.2159C25.649 24 26 23.7344 26 23.4066V15.8522C26 15.5245 25.649 15.2588 25.2159 15.2588Z" fill="#666666"/>
<path d="M11.0712 3.33146C10.8394 3.0998 10.4637 3.0998 10.232 3.33146L7.97055 5.59297L7.07554 4.69796C6.84372 4.46629 6.46805 4.46629 6.23631 4.69796C6.00456 4.92978 6.00456 5.30545 6.23631 5.53719L7.5509 6.85178C7.66681 6.96761 7.81872 7.02553 7.97055 7.02553C8.12239 7.02553 8.2743 6.96761 8.39021 6.85178L11.0713 4.1707C11.303 3.93895 11.303 3.56329 11.0712 3.33146Z" fill="#666666"/>
<path d="M11.0712 10.3217C10.8394 10.09 10.4637 10.09 10.232 10.3217L7.97055 12.5832L7.07554 11.6881C6.84372 11.4564 6.46805 11.4564 6.23631 11.6881C6.00456 11.9199 6.00456 12.2956 6.23631 12.5273L7.5509 13.8419C7.66681 13.9578 7.81872 14.0157 7.97055 14.0157C8.12239 14.0157 8.2743 13.9578 8.39021 13.8419L11.0713 11.1609C11.303 10.9292 11.303 10.5535 11.0712 10.3217Z" fill="#666666"/>
<path d="M10.232 17.312L7.97056 19.5735L7.07554 18.6785C6.84372 18.4468 6.46805 18.4468 6.23631 18.6785C6.00456 18.9103 6.00456 19.2859 6.23631 19.5177L7.5509 20.8323C7.66222 20.9435 7.8131 21.006 7.97056 21.006C8.12801 21.006 8.27881 20.9435 8.39021 20.8322L11.0713 18.1511C11.303 17.9193 11.303 17.5436 11.0713 17.3119C10.8395 17.0803 10.4638 17.0802 10.232 17.312Z" fill="#666666"/>
</svg>
