<svg width="25" height="24" viewBox="0 0 25 24" fill="none" xmlns="http://www.w3.org/2000/svg">
<g clip-path="url(#clip0_1517_8405)">
<path d="M16.6249 22.4918H8.37487C7.29037 22.4918 6.01687 21.7568 5.47537 20.8178L1.35037 13.6748C0.799875 12.7208 0.799875 11.2808 1.35037 10.326L5.47612 3.18303C6.01762 2.24403 7.29112 1.50903 8.37562 1.50903H16.6249C17.7094 1.50903 18.9829 2.24403 19.5244 3.18303L23.6494 10.326C24.1999 11.28 24.1999 12.72 23.6494 13.6748L19.5236 20.8178C18.9829 21.7568 17.7086 22.4918 16.6249 22.4918ZM8.37487 3.00828C7.81612 3.00828 7.05337 3.44853 6.77437 3.93228L2.64862 11.0753C2.36962 11.559 2.36962 12.4403 2.64862 12.924L6.77362 20.067C7.05337 20.5515 7.81612 20.991 8.37412 20.991H16.6249C17.1836 20.991 17.9464 20.5508 18.2254 20.067L22.3511 12.924C22.6301 12.4403 22.6301 11.559 22.3511 11.0753L18.2261 3.93228C17.9464 3.44778 17.1836 3.00828 16.6256 3.00828H8.37487ZM12.4999 16.437C10.0526 16.437 8.06212 14.4465 8.06212 12C8.06212 9.55353 10.0526 7.56303 12.4999 7.56303C14.9471 7.56303 16.9376 9.55353 16.9376 12C16.9376 14.4465 14.9471 16.437 12.4999 16.437ZM12.4999 9.06303C10.8799 9.06303 9.56212 10.3808 9.56212 12C9.56212 13.6193 10.8799 14.937 12.4999 14.937C14.1199 14.937 15.4376 13.6193 15.4376 12C15.4376 10.3808 14.1199 9.06303 12.4999 9.06303Z" fill="#EC1026"/>
</g>
<defs>
<clipPath id="clip0_1517_8405">
<rect width="24" height="24" fill="white" transform="translate(0.5)"/>
</clipPath>
</defs>
</svg>
