<svg width="14" height="16" viewBox="0 0 14 16" fill="none" xmlns="http://www.w3.org/2000/svg">
<path d="M13 4.25V11.75C13 14.75 12.25 15.5 9.25 15.5H4.75C1.75 15.5 1 14.75 1 11.75V4.25C1 1.25 1.75 0.5 4.75 0.5H9.25C12.25 0.5 13 1.25 13 4.25Z" stroke="#222220" stroke-linecap="round" stroke-linejoin="round"/>
<path d="M8.5 3.125H5.5" stroke="#222220" stroke-linecap="round" stroke-linejoin="round"/>
<path d="M6.99063 13.325C7.63266 13.325 8.15313 12.8045 8.15313 12.1625C8.15313 11.5205 7.63266 11 6.99063 11C6.34859 11 5.82812 11.5205 5.82812 12.1625C5.82812 12.8045 6.34859 13.325 6.99063 13.325Z" stroke="#222220" stroke-linecap="round" stroke-linejoin="round"/>
</svg>
