<svg width="24" height="24" viewBox="0 0 24 24" fill="none" xmlns="http://www.w3.org/2000/svg">
<path fill-rule="evenodd" clip-rule="evenodd" d="M21.8182 15.2727V20.7274C21.8182 21.0143 21.7051 21.2903 21.4992 21.4934L21.494 21.4985C21.2893 21.7061 21.0133 21.8182 20.7274 21.8182H3.27267C2.98673 21.8182 2.71078 21.7061 2.51114 21.5038L2.50608 21.4985C2.29495 21.2902 2.18184 21.0143 2.18184 20.7274V15.2727H0V20.7274C0 21.5946 0.343406 22.4276 0.964078 23.0422C1.57036 23.6537 2.40492 24 3.27267 24H20.7274C21.5955 24 22.4305 23.6535 23.0377 23.0402C23.6569 22.4265 24 21.5941 24 20.7273V15.2727H21.8182ZM13.0908 14.8209V0H10.9092V14.8209L6.22603 10.1377L4.68328 11.6805L11.2286 18.226C11.6547 18.6519 12.3454 18.6519 12.7715 18.226L19.3169 11.6805L17.7741 10.1377L13.0908 14.8209Z" fill="#222220"/>
</svg>
