<svg width="50" height="50" viewBox="0 0 50 50" fill="none" xmlns="http://www.w3.org/2000/svg">
<g clip-path="url(#clip0_1437_12243)">
<path d="M20.5579 13.4766H13.136L4.83521 24.1211L10.8899 30.1758L14.2102 25.7812V36.6211" stroke="#00B6BA" stroke-width="3" stroke-miterlimit="10"/>
<path d="M32.2766 13.4766L26.4172 11.4258L20.5579 13.4766" stroke="#00B6BA" stroke-width="3" stroke-miterlimit="10"/>
<path d="M21.5344 48.5352H38.6243V25.7812L41.9446 30.1758L47.9993 24.1211L39.6985 13.4766H32.2766" stroke="#00B6BA" stroke-width="3" stroke-miterlimit="10"/>
<path d="M20.5579 13.4766L26.4172 22.5586L32.2766 13.4766" stroke="#00B6BA" stroke-width="3" stroke-miterlimit="10"/>
<path d="M26.4172 11.4258V7.71484C28.1431 7.71484 29.5422 6.31572 29.5422 4.58984C29.5422 2.86396 28.1431 1.46484 26.4172 1.46484C24.6914 1.46484 23.2922 2.86396 23.2922 4.58984" stroke="#00B6BA" stroke-width="3" stroke-miterlimit="10"/>
<path d="M23.7805 48.5352H4.44458C2.82651 48.5352 1.51489 47.2235 1.51489 45.6055C1.51489 43.9874 2.82651 42.6758 4.44458 42.6758H23.7805C25.3986 42.6758 26.7102 43.9874 26.7102 45.6055C26.7102 47.2235 25.3986 48.5352 23.7805 48.5352Z" stroke="#00B6BA" stroke-width="3" stroke-miterlimit="10"/>
<path d="M23.7805 42.6758H4.44458C2.82651 42.6758 1.51489 41.3642 1.51489 39.7461C1.51489 38.128 2.82651 36.8164 4.44458 36.8164H23.7805C25.3986 36.8164 26.7102 38.128 26.7102 39.7461C26.7102 41.3642 25.3986 42.6758 23.7805 42.6758Z" stroke="#00B6BA" stroke-width="3" stroke-miterlimit="10"/>
<path d="M23.7805 42.6758H4.44458C2.82651 42.6758 1.51489 41.3642 1.51489 39.7461C1.51489 38.128 2.82651 36.8164 4.44458 36.8164H23.7805C25.3986 36.8164 26.7102 38.128 26.7102 39.7461C26.7102 41.3642 25.3986 42.6758 23.7805 42.6758Z" stroke="#00B6BA" stroke-width="3" stroke-miterlimit="10"/>
<path opacity="0.3" d="M30 25.5L36 16V46H30V25.5Z" fill="#00B6BA"/>
</g>
<defs>
<clipPath id="clip0_1437_12243">
<rect width="50" height="50" fill="white"/>
</clipPath>
</defs>
</svg>
