<svg width="32" height="32" viewBox="0 0 32 32" fill="none" xmlns="http://www.w3.org/2000/svg">
<path d="M0.822642 0.105721C0.505479 0.211442 0.14867 0.594681 0.0693794 0.898629C-0.0231265 1.24222 -0.0231265 29.9587 0.0693794 30.3023C0.161885 30.6195 0.571554 31.0291 0.888717 31.1216C1.23231 31.2141 29.9488 31.2141 30.3056 31.1216C30.6228 31.0291 31.0324 30.6195 31.1249 30.3023C31.2174 29.9587 31.2174 1.24222 31.1249 0.885414C31.0324 0.568251 30.6228 0.158582 30.3056 0.0660757C30.1338 0.0132151 26.0107 0 15.5707 0C3.21458 0.0264303 1.02087 0.0396454 0.822642 0.105721ZM29.8827 1.32151C29.9356 1.37437 29.9488 1.92941 29.9356 3.18485L29.9224 4.96889H15.5839H1.24553L1.2191 3.18485C1.20588 1.91619 1.2191 1.37437 1.27196 1.32151C1.37768 1.18936 29.777 1.18936 29.8827 1.32151ZM29.9356 18.0387C29.9356 26.6946 29.9356 29.8398 29.8827 29.8926C29.7902 30.0116 1.39089 30.0248 1.28517 29.9058C1.23231 29.853 1.20588 27.1307 1.20588 18.0783C1.20588 11.6029 1.2191 6.2904 1.24553 6.27719C1.25874 6.25076 7.72094 6.23754 15.5972 6.25076L29.9091 6.26397L29.9356 18.0387Z" fill="#666666"/>
<path d="M3.53272 8.16708C3.45342 8.18029 3.32127 8.28602 3.2552 8.37852C3.13626 8.55032 3.12305 8.61639 3.12305 10.6515V12.7395L3.29484 12.8981L3.45343 13.0699H15.5849H27.7032L27.8618 12.8981L28.0336 12.7395L28.0468 10.7308C28.06 9.05249 28.0468 8.69569 27.9675 8.51067C27.7825 8.07457 28.7472 8.11422 15.5585 8.11422C9.03021 8.12743 3.61201 8.14065 3.53272 8.16708ZM26.7913 10.6383V11.8805H15.5849H4.37848V10.6383V9.39609H15.5849H26.7913V10.6383Z" fill="#666666"/>
<path d="M3.88861 15.0918C3.76967 15.1447 3.58466 15.2636 3.47894 15.3826C3.0957 15.7658 3.0957 15.5808 3.0957 21.8315C3.0957 25.9414 3.10892 27.5669 3.17499 27.7784C3.25428 28.1219 3.65074 28.5448 3.99433 28.6373C4.32471 28.7298 13.7603 28.7298 14.0907 28.6373C14.4211 28.5448 14.8175 28.1219 14.91 27.7784C14.9629 27.5669 14.9893 25.9414 14.9893 21.8315C14.9893 15.5808 15.0025 15.7658 14.6061 15.3826C14.1964 14.9861 14.4475 14.9993 9.0293 14.9993C4.77403 14.9993 4.07362 15.0125 3.88861 15.0918ZM13.681 21.8315L13.6678 27.448L9.0293 27.4612L4.37757 27.4744V21.8448V16.2151H9.04251H13.7075L13.681 21.8315Z" fill="#666666"/>
<path d="M16.9843 15.0918C16.8654 15.1447 16.6804 15.2636 16.5746 15.3826C16.1914 15.7658 16.1914 15.5808 16.1914 21.8315C16.1914 25.9414 16.2046 27.5669 16.2707 27.7784C16.35 28.1219 16.7464 28.5448 17.09 28.6373C17.4204 28.7298 26.856 28.7298 27.1864 28.6373C27.5168 28.5448 27.9132 28.1219 28.0057 27.7784C28.0586 27.5669 28.085 25.9414 28.085 21.8315C28.085 15.5808 28.0982 15.7658 27.7018 15.3826C27.2921 14.9861 27.5432 14.9993 22.125 14.9993C17.8565 14.9993 17.1693 15.0125 16.9843 15.0918ZM26.7899 21.8448V27.4744L22.1514 27.4612L17.4997 27.448L17.4865 21.8315L17.4733 16.2151H22.1382H26.8032V21.8448H26.7899Z" fill="#666666"/>
</svg>
