<svg width="106" height="25" viewBox="0 0 106 25" fill="none" xmlns="http://www.w3.org/2000/svg">
<path d="M1 22.5H0.2C0.2 22.9418 0.558172 23.3 1 23.3L1 22.5ZM16.2 17.5V21.5H17.8V17.5H16.2ZM16 21.7H1V23.3H16V21.7ZM1.8 22.5V5.5H0.2V22.5H1.8ZM2 5.3H4V3.7H2V5.3ZM13.2 0V14.5H14.8V0H13.2ZM7 8.3H21.5V6.7H7V8.3ZM55.8 5.5V4H54.2V5.5H55.8ZM54 2.2H42.5V3.8H54V2.2ZM40.7 4V18H42.3V4H40.7ZM42.5 19.8H46V18.2H42.5V19.8ZM48.2 8.5V22.5H49.8V8.5H48.2ZM50 24.3H62V22.7H50V24.3ZM63.8 22.5V8.5H62.2V22.5H63.8ZM55.7 12.5V19.5H57.3V12.5H55.7ZM53 16.8H60V15.2H53V16.8ZM56 6.7H50V8.3H56V6.7ZM62 6.7H59.5V8.3H62V6.7ZM59.5 6.7H56V8.3H59.5V6.7ZM84 6.3H87V4.7H84V6.3ZM86.2 5.5V22H87.8V5.5H86.2ZM89 24.8H101V23.2H89V24.8ZM103 6.3H106V4.7H103V6.3ZM103.8 22V5.5H102.2V22H103.8ZM87 6.3H90.5V4.7H87V6.3ZM94.5 2.3H95.5V0.7H94.5V2.3ZM90.5 6.3H99.5V4.7H90.5V6.3ZM99.5 6.3H103V4.7H99.5V6.3ZM91.7 10V19.5H93.3V10H91.7ZM96.7 10V19.5H98.3V10H96.7ZM95.5 2.3C97.2673 2.3 98.7 3.73269 98.7 5.5H100.3C100.3 2.84903 98.151 0.7 95.5 0.7V2.3ZM91.3 5.5C91.3 3.73269 92.7327 2.3 94.5 2.3V0.7C91.849 0.7 89.7 2.84903 89.7 5.5H91.3ZM101 24.8C102.546 24.8 103.8 23.5464 103.8 22H102.2C102.2 22.6627 101.663 23.2 101 23.2V24.8ZM63.8 8.5C63.8 7.50589 62.9941 6.7 62 6.7V8.3C62.1105 8.3 62.2 8.38954 62.2 8.5H63.8ZM86.2 22C86.2 23.5464 87.4536 24.8 89 24.8V23.2C88.3373 23.2 87.8 22.6627 87.8 22H86.2ZM62 24.3C62.9941 24.3 63.8 23.4941 63.8 22.5H62.2C62.2 22.6105 62.1105 22.7 62 22.7V24.3ZM48.2 22.5C48.2 23.4941 49.0059 24.3 50 24.3V22.7C49.8895 22.7 49.8 22.6105 49.8 22.5H48.2ZM16.2 21.5C16.2 21.6105 16.1105 21.7 16 21.7V23.3C16.9941 23.3 17.8 22.4941 17.8 21.5H16.2ZM40.7 18C40.7 18.9941 41.5059 19.8 42.5 19.8V18.2C42.3895 18.2 42.3 18.1105 42.3 18H40.7ZM55.8 4C55.8 3.00589 54.9941 2.2 54 2.2V3.8C54.1105 3.8 54.2 3.88954 54.2 4H55.8ZM49.8 8.5C49.8 8.38954 49.8895 8.3 50 8.3V6.7C49.0059 6.7 48.2 7.50589 48.2 8.5H49.8ZM1.8 5.5C1.8 5.38954 1.88954 5.3 2 5.3V3.7C1.00589 3.7 0.2 4.50589 0.2 5.5H1.8ZM42.5 2.2C41.5059 2.2 40.7 3.00589 40.7 4H42.3C42.3 3.88954 42.3895 3.8 42.5 3.8V2.2Z" fill="#222220"/>
</svg>
