<svg width="24" height="24" viewBox="0 0 24 24" fill="none" xmlns="http://www.w3.org/2000/svg">
<g clip-path="url(#clip0_1749_15538)">
<path fill-rule="evenodd" clip-rule="evenodd" d="M21.8182 15.2726V20.7273C21.8182 21.0142 21.7052 21.2902 21.4993 21.4933L21.4941 21.4984C21.2894 21.706 21.0134 21.8181 20.7275 21.8181H3.27267C2.98673 21.8181 2.71078 21.706 2.51114 21.5037L2.50608 21.4984C2.29495 21.2902 2.18189 21.0142 2.18189 20.7273V15.2726H0V20.7273C0 21.5945 0.343359 22.4275 0.964031 23.0421C1.57036 23.6537 2.40492 24 3.27267 24H20.7274C21.5955 24 22.4305 23.6535 23.0377 23.0402C23.6569 22.4265 24 21.5941 24 20.7273V15.2726H21.8182ZM10.9092 3.72451V18.5454H13.0908V3.72451L17.7741 8.40775L19.3168 6.86495L12.7715 0.319465C12.3454 -0.106488 11.6547 -0.106488 11.2286 0.319465L4.68323 6.86495L6.22603 8.40775L10.9092 3.72451Z" fill="#222220"/>
</g>
<defs>
<clipPath id="clip0_1749_15538">
<rect width="24" height="24" fill="white"/>
</clipPath>
</defs>
</svg>
