<svg width="207" height="61" viewBox="0 0 267 61" fill="none" xmlns="http://www.w3.org/2000/svg">
<path d="M4.35355 60.3536C4.15829 60.5488 3.84171 60.5488 3.64645 60.3536L0.464478 57.1716C0.269196 56.9763 0.269196 56.6597 0.464478 56.4645C0.659729 56.2692 0.976318 56.2692 1.17157 56.4645L4 59.2929L6.82843 56.4645C7.02368 56.2692 7.34027 56.2692 7.53552 56.4645C7.7308 56.6597 7.7308 56.9763 7.53552 57.1716L4.35355 60.3536ZM266.5 0C266.5 0.0152382 266.5 0.0304708 266.5 0.0456978C266.5 0.0609248 266.5 0.0761463 266.5 0.0913622C266.5 0.106578 266.5 0.121788 266.5 0.136993C266.5 0.152198 266.5 0.167397 266.5 0.182591C266.5 0.197784 266.5 0.212972 266.5 0.228155C266.5 0.243337 266.5 0.258514 266.5 0.273685C266.5 0.288857 266.5 0.304022 266.5 0.319183C266.5 0.334343 266.5 0.349497 266.5 0.364646C266.5 0.379796 266.5 0.394939 266.5 0.410077C266.5 0.425215 266.5 0.440347 266.5 0.455474C266.5 0.470601 266.5 0.485722 266.5 0.500837C266.5 0.515953 266.5 0.531063 266.5 0.546167C266.5 0.561272 266.5 0.576371 266.5 0.591464C266.5 0.606557 266.5 0.621645 266.5 0.636727C266.5 0.651809 266.5 0.666886 266.5 0.681957C266.5 0.697028 266.5 0.712094 266.5 0.727153C266.5 0.742213 266.5 0.757268 266.5 0.772316C266.5 0.787365 266.5 0.802408 266.5 0.817446C266.5 0.832483 266.5 0.847515 266.5 0.862542C266.5 0.877568 266.5 0.892589 266.5 0.907604C266.5 0.92262 266.5 0.937629 266.5 0.952634C266.5 0.967638 266.5 0.982636 266.5 0.997629C266.5 1.01262 266.5 1.02761 266.5 1.04259C266.5 1.05757 266.5 1.07255 266.5 1.08752C266.5 1.10249 266.5 1.11746 266.5 1.13242C266.5 1.14738 266.5 1.16233 266.5 1.17728C266.5 1.19223 266.5 1.20717 266.5 1.22211C266.5 1.23704 266.5 1.25198 266.5 1.2669C266.5 1.28183 266.5 1.29675 266.5 1.31166C266.5 1.32658 266.5 1.34149 266.5 1.35639C266.5 1.37129 266.5 1.38619 266.5 1.40109C266.5 1.41598 266.5 1.43087 266.5 1.44575C266.5 1.46063 266.5 1.4755 266.5 1.49037C266.5 1.50525 266.5 1.52011 266.5 1.53497C266.5 1.54983 266.5 1.56468 266.5 1.57953C266.5 1.59438 266.5 1.60922 266.5 1.62406C266.5 1.63889 266.5 1.65373 266.5 1.66855C266.5 1.68338 266.5 1.6982 266.5 1.71301C266.5 1.72783 266.5 1.74264 266.5 1.75744C266.5 1.77224 266.5 1.78704 266.5 1.80183C266.5 1.81662 266.5 1.83141 266.5 1.84619C266.5 1.86097 266.5 1.87575 266.5 1.89052C266.5 1.90529 266.5 1.92005 266.5 1.93481C266.5 1.94957 266.5 1.96432 266.5 1.97907C266.5 1.99382 266.5 2.00856 266.5 2.0233C266.5 2.03804 266.5 2.05277 266.5 2.06749C266.5 2.08222 266.5 2.09694 266.5 2.11165C266.5 2.12637 266.5 2.14107 266.5 2.15578C266.5 2.17048 266.5 2.18518 266.5 2.19987C266.5 2.21456 266.5 2.22925 266.5 2.24393C266.5 2.25861 266.5 2.27328 266.5 2.28795C266.5 2.30262 266.5 2.31729 266.5 2.33195C266.5 2.3466 266.5 2.36126 266.5 2.3759C266.5 2.39055 266.5 2.40519 266.5 2.41983C266.5 2.43447 266.5 2.4491 266.5 2.46372C266.5 2.47835 266.5 2.49297 266.5 2.50758C266.5 2.52219 266.5 2.5368 266.5 2.5514C266.5 2.56601 266.5 2.5806 266.5 2.5952C266.5 2.60979 266.5 2.62437 266.5 2.63895C266.5 2.65353 266.5 2.66811 266.5 2.68268C266.5 2.69725 266.5 2.71181 266.5 2.72637C266.5 2.74093 266.5 2.75548 266.5 2.77003C266.5 2.78457 266.5 2.79911 266.5 2.81365C266.5 2.82818 266.5 2.84271 266.5 2.85724C266.5 2.87176 266.5 2.88628 266.5 2.9008C266.5 2.91531 266.5 2.92982 266.5 2.94432C266.5 2.95882 266.5 2.97332 266.5 2.98781C266.5 3.0023 266.5 3.01679 266.5 3.03127C266.5 3.04575 266.5 3.06022 266.5 3.07469C266.5 3.08916 266.5 3.10362 266.5 3.11808C266.5 3.13254 266.5 3.14699 266.5 3.16143C266.5 3.17588 266.5 3.19032 266.5 3.20476C266.5 3.21919 266.5 3.23362 266.5 3.24805C266.5 3.26247 266.5 3.27689 266.5 3.2913C266.5 3.30571 266.5 3.32012 266.5 3.33452C266.5 3.34892 266.5 3.36332 266.5 3.37771C266.5 3.3921 266.5 3.40649 266.5 3.42087C266.5 3.43525 266.5 3.44962 266.5 3.46399C266.5 3.47836 266.5 3.49272 266.5 3.50708C266.5 3.52143 266.5 3.53578 266.5 3.55013C266.5 3.56448 266.5 3.57882 266.5 3.59315C266.5 3.60749 266.5 3.62182 266.5 3.63614C266.5 3.65046 266.5 3.66478 266.5 3.67909C266.5 3.69341 266.5 3.70771 266.5 3.72201C266.5 3.73631 266.5 3.75061 266.5 3.7649C266.5 3.77919 266.5 3.79348 266.5 3.80775C266.5 3.82203 266.5 3.83631 266.5 3.85057C266.5 3.86484 266.5 3.8791 266.5 3.89336C266.5 3.90762 266.5 3.92187 266.5 3.93611C266.5 3.95036 266.5 3.9646 266.5 3.97883C266.5 3.99307 266.5 4.0073 266.5 4.02152C266.5 4.03574 266.5 4.04996 266.5 4.06417C266.5 4.07838 266.5 4.09259 266.5 4.10679C266.5 4.12099 266.5 4.13519 266.5 4.14938C266.5 4.16357 266.5 4.17775 266.5 4.19193C266.5 4.20611 266.5 4.22028 266.5 4.23445C266.5 4.24861 266.5 4.26278 266.5 4.27693C266.5 4.29109 266.5 4.30524 266.5 4.31938C266.5 4.33353 266.5 4.34767 266.5 4.3618C266.5 4.37593 266.5 4.39006 266.5 4.40419C266.5 4.41831 266.5 4.43243 266.5 4.44654C266.5 4.46065 266.5 4.47475 266.5 4.48885C266.5 4.50295 266.5 4.51705 266.5 4.53114C266.5 4.54523 266.5 4.55931 266.5 4.57339C266.5 4.58747 266.5 4.60154 266.5 4.6156C266.5 4.62967 266.5 4.64373 266.5 4.65779C266.5 4.67184 266.5 4.68589 266.5 4.69994C266.5 4.71398 266.5 4.72802 266.5 4.74205C266.5 4.75609 266.5 4.77011 266.5 4.78414C266.5 4.79816 266.5 4.81218 266.5 4.82619C266.5 4.8402 266.5 4.8542 266.5 4.8682C266.5 4.8822 266.5 4.8962 266.5 4.91018C266.5 4.92417 266.5 4.93816 266.5 4.95213C266.5 4.96611 266.5 4.98008 266.5 4.99405C266.5 5.00801 266.5 5.02197 266.5 5.03593C266.5 5.04988 266.5 5.06383 266.5 5.07778C266.5 5.09172 266.5 5.10566 266.5 5.11959C266.5 5.13352 266.5 5.14745 266.5 5.16137C266.5 5.17529 266.5 5.18921 266.5 5.20312C266.5 5.21703 266.5 5.23094 266.5 5.24483C266.5 5.25873 266.5 5.27263 266.5 5.28652C266.5 5.3004 266.5 5.31429 266.5 5.32816C266.5 5.34204 266.5 5.35591 266.5 5.36978C266.5 5.38364 266.5 5.3975 266.5 5.41136C266.5 5.42521 266.5 5.43906 266.5 5.4529C266.5 5.46674 266.5 5.48058 266.5 5.49441C266.5 5.50825 266.5 5.52207 266.5 5.53589C266.5 5.54971 266.5 5.56353 266.5 5.57734C266.5 5.59115 266.5 5.60495 266.5 5.61875C266.5 5.63255 266.5 5.64634 266.5 5.66013C266.5 5.67392 266.5 5.6877 266.5 5.70148C266.5 5.71525 266.5 5.72902 266.5 5.74279C266.5 5.75655 266.5 5.77031 266.5 5.78406C266.5 5.79782 266.5 5.81157 266.5 5.82531C266.5 5.83905 266.5 5.85279 266.5 5.86652C266.5 5.88025 266.5 5.89398 266.5 5.9077C266.5 5.92142 266.5 5.93513 266.5 5.94884C266.5 5.96255 266.5 5.97625 266.5 5.98995C266.5 6.00365 266.5 6.01734 266.5 6.03103C266.5 6.04471 266.5 6.0584 266.5 6.07207C266.5 6.08575 266.5 6.09942 266.5 6.11308C266.5 6.12675 266.5 6.1404 266.5 6.15406C266.5 6.16771 266.5 6.18136 266.5 6.195C266.5 6.20864 266.5 6.22228 266.5 6.23591C266.5 6.24954 266.5 6.26316 266.5 6.27678C266.5 6.2904 266.5 6.30402 266.5 6.31763C266.5 6.33123 266.5 6.34484 266.5 6.35843C266.5 6.37203 266.5 6.38562 266.5 6.39921C266.5 6.41279 266.5 6.42637 266.5 6.43995C266.5 6.45352 266.5 6.46709 266.5 6.48066C266.5 6.49422 266.5 6.50778 266.5 6.52133C266.5 6.53488 266.5 6.54843 266.5 6.56197C266.5 6.57551 266.5 6.58905 266.5 6.60258C266.5 6.61611 266.5 6.62963 266.5 6.64315C266.5 6.65667 266.5 6.67018 266.5 6.68369C266.5 6.6972 266.5 6.7107 266.5 6.7242C266.5 6.73769 266.5 6.75119 266.5 6.76467C266.5 6.77816 266.5 6.79164 266.5 6.80511C266.5 6.81858 266.5 6.83205 266.5 6.84552C266.5 6.85898 266.5 6.87244 266.5 6.88589C266.5 6.89934 266.5 6.91279 266.5 6.92623C266.5 6.93967 266.5 6.9531 266.5 6.96653C266.5 6.97996 266.5 6.99338 266.5 7.0068C266.5 7.02022 266.5 7.03363 266.5 7.04704C266.5 7.06045 266.5 7.07385 266.5 7.08724C266.5 7.10064 266.5 7.11403 266.5 7.12741C266.5 7.1408 266.5 7.15418 266.5 7.16755C266.5 7.18092 266.5 7.19429 266.5 7.20765C266.5 7.22102 266.5 7.23437 266.5 7.24772C266.5 7.26108 266.5 7.27442 266.5 7.28776C266.5 7.3011 266.5 7.31443 266.5 7.32776C266.5 7.34109 266.5 7.35441 266.5 7.36773C266.5 7.38105 266.5 7.39436 266.5 7.40767C266.5 7.42097 266.5 7.43427 266.5 7.44757C266.5 7.46086 266.5 7.47415 266.5 7.48744C266.5 7.50072 266.5 7.514 266.5 7.52727C266.5 7.54055 266.5 7.55381 266.5 7.56707C266.5 7.58034 266.5 7.59359 266.5 7.60684C266.5 7.62009 266.5 7.63334 266.5 7.64658C266.5 7.65981 266.5 7.67305 266.5 7.68628C266.5 7.6995 266.5 7.71273 266.5 7.72594C266.5 7.73916 266.5 7.75237 266.5 7.76558C266.5 7.77878 266.5 7.79198 266.5 7.80518C266.5 7.81837 266.5 7.83156 266.5 7.84474C266.5 7.85792 266.5 7.8711 266.5 7.88427C266.5 7.89745 266.5 7.91061 266.5 7.92377C266.5 7.93693 266.5 7.95009 266.5 7.96324C266.5 7.97639 266.5 7.98953 266.5 8.00267C266.5 8.01581 266.5 8.02894 266.5 8.04207C266.5 8.05519 266.5 8.06832 266.5 8.08143C266.5 8.09455 266.5 8.10766 266.5 8.12076C266.5 8.13387 266.5 8.14697 266.5 8.16006C266.5 8.17315 266.5 8.18624 266.5 8.19932C266.5 8.21241 266.5 8.22548 266.5 8.23855C266.5 8.25163 266.5 8.26469 266.5 8.27775C266.5 8.29081 266.5 8.30387 266.5 8.31691C266.5 8.32996 266.5 8.34301 266.5 8.35604C266.5 8.36908 266.5 8.38211 266.5 8.39514C266.5 8.40816 266.5 8.42119 266.5 8.4342C266.5 8.44722 266.5 8.46023 266.5 8.47323C266.5 8.48623 266.5 8.49923 266.5 8.51222C266.5 8.52522 266.5 8.5382 266.5 8.55119C266.5 8.56417 266.5 8.57714 266.5 8.59011C266.5 8.60308 266.5 8.61605 266.5 8.62901C266.5 8.64197 266.5 8.65492 266.5 8.66787C266.5 8.68082 266.5 8.69376 266.5 8.70669C266.5 8.71963 266.5 8.73256 266.5 8.74549C266.5 8.75841 266.5 8.77133 266.5 8.78425C266.5 8.79716 266.5 8.81007 266.5 8.82297C266.5 8.83588 266.5 8.84877 266.5 8.86167C266.5 8.87456 266.5 8.88744 266.5 8.90032C266.5 8.91321 266.5 8.92608 266.5 8.93895C266.5 8.95182 266.5 8.96468 266.5 8.97754C266.5 8.9904 266.5 9.00325 266.5 9.0161C266.5 9.02895 266.5 9.04179 266.5 9.05462C266.5 9.06746 266.5 9.08029 266.5 9.09311C266.5 9.10594 266.5 9.11876 266.5 9.13157C266.5 9.14438 266.5 9.15719 266.5 9.16999C266.5 9.1828 266.5 9.19559 266.5 9.20838C266.5 9.22118 266.5 9.23396 266.5 9.24674C266.5 9.25952 266.5 9.27229 266.5 9.28506C266.5 9.29783 266.5 9.31059 266.5 9.32335C266.5 9.33611 266.5 9.34886 266.5 9.36161C266.5 9.37435 266.5 9.38709 266.5 9.39983C266.5 9.41256 266.5 9.42529 266.5 9.43802C266.5 9.45074 266.5 9.46346 266.5 9.47617C266.5 9.48888 266.5 9.50159 266.5 9.51429C266.5 9.52699 266.5 9.53969 266.5 9.55238C266.5 9.56507 266.5 9.57775 266.5 9.59043C266.5 9.60311 266.5 9.61579 266.5 9.62845C266.5 9.64112 266.5 9.65378 266.5 9.66644C266.5 9.6791 266.5 9.69175 266.5 9.70439C266.5 9.71704 266.5 9.72968 266.5 9.74231C266.5 9.75494 266.5 9.76757 266.5 9.7802C266.5 9.79282 266.5 9.80544 266.5 9.81805C266.5 9.83066 266.5 9.84327 266.5 9.85587C266.5 9.86847 266.5 9.88106 266.5 9.89365C266.5 9.90624 266.5 9.91882 266.5 9.9314C266.5 9.94398 266.5 9.95655 266.5 9.96912C266.5 9.98169 266.5 9.99425 266.5 10.0068C266.5 10.0194 266.5 10.0319 266.5 10.0445C266.5 10.057 266.5 10.0695 266.5 10.0821C266.5 10.0946 266.5 10.1071 266.5 10.1197C266.5 10.1322 266.5 10.1447 266.5 10.1572C266.5 10.1697 266.5 10.1822 266.5 10.1947C266.5 10.2072 266.5 10.2197 266.5 10.2322C266.5 10.2447 266.5 10.2572 266.5 10.2696C266.5 10.2821 266.5 10.2946 266.5 10.3071C266.5 10.3195 266.5 10.332 266.5 10.3444C266.5 10.3569 266.5 10.3693 266.5 10.3818C266.5 10.3942 266.5 10.4067 266.5 10.4191C266.5 10.4315 266.5 10.444 266.5 10.4564C266.5 10.4688 266.5 10.4812 266.5 10.4936C266.5 10.506 266.5 10.5184 266.5 10.5308C266.5 10.5432 266.5 10.5556 266.5 10.568C266.5 10.5804 266.5 10.5928 266.5 10.6052C266.5 10.6175 266.5 10.6299 266.5 10.6423C266.5 10.6546 266.5 10.667 266.5 10.6794C266.5 10.6917 266.5 10.7041 266.5 10.7164C266.5 10.7287 266.5 10.7411 266.5 10.7534C266.5 10.7657 266.5 10.7781 266.5 10.7904C266.5 10.8027 266.5 10.815 266.5 10.8273C266.5 10.8396 266.5 10.8519 266.5 10.8642C266.5 10.8765 266.5 10.8888 266.5 10.9011C266.5 10.9134 266.5 10.9257 266.5 10.938C266.5 10.9502 266.5 10.9625 266.5 10.9748C266.5 10.987 266.5 10.9993 266.5 11.0115C266.5 11.0238 266.5 11.036 266.5 11.0483C266.5 11.0605 266.5 11.0728 266.5 11.085C266.5 11.0972 266.5 11.1094 266.5 11.1217C266.5 11.1339 266.5 11.1461 266.5 11.1583C266.5 11.1705 266.5 11.1827 266.5 11.1949C266.5 11.2071 266.5 11.2193 266.5 11.2315C266.5 11.2437 266.5 11.2558 266.5 11.268C266.5 11.2802 266.5 11.2924 266.5 11.3045C266.5 11.3167 266.5 11.3288 266.5 11.341C266.5 11.3531 266.5 11.3653 266.5 11.3774C266.5 11.3896 266.5 11.4017 266.5 11.4138C266.5 11.426 266.5 11.4381 266.5 11.4502C266.5 11.4623 266.5 11.4744 266.5 11.4865C266.5 11.4987 266.5 11.5108 266.5 11.5229C266.5 11.5349 266.5 11.547 266.5 11.5591C266.5 11.5712 266.5 11.5833 266.5 11.5954C266.5 11.6074 266.5 11.6195 266.5 11.6316C266.5 11.6436 266.5 11.6557 266.5 11.6677C266.5 11.6798 266.5 11.6918 266.5 11.7039C266.5 11.7159 266.5 11.7279 266.5 11.74C266.5 11.752 266.5 11.764 266.5 11.776C266.5 11.788 266.5 11.8001 266.5 11.8121C266.5 11.8241 266.5 11.8361 266.5 11.8481C266.5 11.8601 266.5 11.872 266.5 11.884C266.5 11.896 266.5 11.908 266.5 11.92C266.5 11.9319 266.5 11.9439 266.5 11.9559C266.5 11.9678 266.5 11.9798 266.5 11.9917C266.5 12.0037 266.5 12.0156 266.5 12.0276C266.5 12.0395 266.5 12.0514 266.5 12.0634C266.5 12.0753 266.5 12.0872 266.5 12.0991C266.5 12.111 266.5 12.123 266.5 12.1349C266.5 12.1468 266.5 12.1587 266.5 12.1706C266.5 12.1824 266.5 12.1943 266.5 12.2062C266.5 12.2181 266.5 12.23 266.5 12.2418C266.5 12.2537 266.5 12.2656 266.5 12.2774C266.5 12.2893 266.5 12.3012 266.5 12.313C266.5 12.3249 266.5 12.3367 266.5 12.3485C266.5 12.3604 266.5 12.3722 266.5 12.384C266.5 12.3959 266.5 12.4077 266.5 12.4195C266.5 12.4313 266.5 12.4431 266.5 12.4549C266.5 12.4667 266.5 12.4785 266.5 12.4903C266.5 12.5021 266.5 12.5139 266.5 12.5257C266.5 12.5375 266.5 12.5492 266.5 12.561C266.5 12.5728 266.5 12.5845 266.5 12.5963C266.5 12.608 266.5 12.6198 266.5 12.6315C266.5 12.6433 266.5 12.655 266.5 12.6668C266.5 12.6785 266.5 12.6902 266.5 12.702C266.5 12.7137 266.5 12.7254 266.5 12.7371C266.5 12.7488 266.5 12.7605 266.5 12.7722C266.5 12.7839 266.5 12.7956 266.5 12.8073C266.5 12.819 266.5 12.8307 266.5 12.8424C266.5 12.8541 266.5 12.8657 266.5 12.8774C266.5 12.8891 266.5 12.9007 266.5 12.9124C266.5 12.9241 266.5 12.9357 266.5 12.9474C266.5 12.959 266.5 12.9706 266.5 12.9823C266.5 12.9939 266.5 13.0055 266.5 13.0172C266.5 13.0288 266.5 13.0404 266.5 13.052C266.5 13.0636 266.5 13.0752 266.5 13.0868C266.5 13.0984 266.5 13.11 266.5 13.1216C266.5 13.1332 266.5 13.1448 266.5 13.1564C266.5 13.168 266.5 13.1795 266.5 13.1911C266.5 13.2027 266.5 13.2142 266.5 13.2258C266.5 13.2373 266.5 13.2489 266.5 13.2604C266.5 13.272 266.5 13.2835 266.5 13.2951C266.5 13.3066 266.5 13.3181 266.5 13.3296C266.5 13.3412 266.5 13.3527 266.5 13.3642C266.5 13.3757 266.5 13.3872 266.5 13.3987C266.5 13.4102 266.5 13.4217 266.5 13.4332C266.5 13.4447 266.5 13.4562 266.5 13.4676C266.5 13.4791 266.5 13.4906 266.5 13.5021C266.5 13.5135 266.5 13.525 266.5 13.5364C266.5 13.5479 266.5 13.5594 266.5 13.5708C266.5 13.5822 266.5 13.5937 266.5 13.6051C266.5 13.6165 266.5 13.628 266.5 13.6394C266.5 13.6508 266.5 13.6622 266.5 13.6736C266.5 13.685 266.5 13.6965 266.5 13.7079C266.5 13.7192 266.5 13.7306 266.5 13.742C266.5 13.7534 266.5 13.7648 266.5 13.7762C266.5 13.7876 266.5 13.7989 266.5 13.8103C266.5 13.8217 266.5 13.833 266.5 13.8444C266.5 13.8557 266.5 13.8671 266.5 13.8784C266.5 13.8898 266.5 13.9011 266.5 13.9124C266.5 13.9238 266.5 13.9351 266.5 13.9464C266.5 13.9577 266.5 13.969 266.5 13.9803C266.5 13.9917 266.5 14.003 266.5 14.0143C266.5 14.0256 266.5 14.0368 266.5 14.0481C266.5 14.0594 266.5 14.0707 266.5 14.082C266.5 14.0932 266.5 14.1045 266.5 14.1158C266.5 14.127 266.5 14.1383 266.5 14.1496C266.5 14.1608 266.5 14.1721 266.5 14.1833C266.5 14.1945 266.5 14.2058 266.5 14.217C266.5 14.2282 266.5 14.2395 266.5 14.2507C266.5 14.2619 266.5 14.2731 266.5 14.2843C266.5 14.2955 266.5 14.3067 266.5 14.3179C266.5 14.3291 266.5 14.3403 266.5 14.3515C266.5 14.3627 266.5 14.3739 266.5 14.385C266.5 14.3962 266.5 14.4074 266.5 14.4185C266.5 14.4297 266.5 14.4409 266.5 14.452C266.5 14.4632 266.5 14.4743 266.5 14.4854C266.5 14.4966 266.5 14.5077 266.5 14.5189C266.5 14.53 266.5 14.5411 266.5 14.5522C266.5 14.5633 266.5 14.5745 266.5 14.5856C266.5 14.5967 266.5 14.6078 266.5 14.6189C266.5 14.63 266.5 14.641 266.5 14.6521C266.5 14.6632 266.5 14.6743 266.5 14.6854C266.5 14.6964 266.5 14.7075 266.5 14.7186C266.5 14.7296 266.5 14.7407 266.5 14.7517C266.5 14.7628 266.5 14.7738 266.5 14.7849C266.5 14.7959 266.5 14.8069 266.5 14.818C266.5 14.829 266.5 14.84 266.5 14.851C266.5 14.862 266.5 14.8731 266.5 14.8841C266.5 14.8951 266.5 14.9061 266.5 14.9171C266.5 14.9281 266.5 14.939 266.5 14.95C266.5 14.961 266.5 14.972 266.5 14.983C266.5 14.9939 266.5 15.0049 266.5 15.0159C266.5 15.0268 266.5 15.0378 266.5 15.0487C266.5 15.0597 266.5 15.0706 266.5 15.0815C266.5 15.0925 266.5 15.1034 266.5 15.1143C266.5 15.1253 266.5 15.1362 266.5 15.1471C266.5 15.158 266.5 15.1689 266.5 15.1798C266.5 15.1907 266.5 15.2016 266.5 15.2125C266.5 15.2234 266.5 15.2343 266.5 15.2452C266.5 15.2561 266.5 15.2669 266.5 15.2778C266.5 15.2887 266.5 15.2996 266.5 15.3104C266.5 15.3213 266.5 15.3321 266.5 15.343C266.5 15.3538 266.5 15.3647 266.5 15.3755C266.5 15.3863 266.5 15.3972 266.5 15.408C266.5 15.4188 266.5 15.4296 266.5 15.4404C266.5 15.4513 266.5 15.4621 266.5 15.4729C266.5 15.4837 266.5 15.4945 266.5 15.5053C266.5 15.5161 266.5 15.5268 266.5 15.5376C266.5 15.5484 266.5 15.5592 266.5 15.5699C266.5 15.5807 266.5 15.5915 266.5 15.6022C266.5 15.613 266.5 15.6237 266.5 15.6345C266.5 15.6452 266.5 15.656 266.5 15.6667C266.5 15.6774 266.5 15.6882 266.5 15.6989C266.5 15.7096 266.5 15.7203 266.5 15.731C266.5 15.7418 266.5 15.7525 266.5 15.7632C266.5 15.7739 266.5 15.7846 266.5 15.7953C266.5 15.8059 266.5 15.8166 266.5 15.8273C266.5 15.838 266.5 15.8487 266.5 15.8593C266.5 15.87 266.5 15.8807 266.5 15.8913C266.5 15.902 266.5 15.9126 266.5 15.9233C266.5 15.9339 266.5 15.9445 266.5 15.9552C266.5 15.9658 266.5 15.9764 266.5 15.9871C266.5 15.9977 266.5 16.0083 266.5 16.0189C266.5 16.0295 266.5 16.0401 266.5 16.0507C266.5 16.0613 266.5 16.0719 266.5 16.0825C266.5 16.0931 266.5 16.1037 266.5 16.1143C266.5 16.1248 266.5 16.1354 266.5 16.146C266.5 16.1565 266.5 16.1671 266.5 16.1777C266.5 16.1882 266.5 16.1988 266.5 16.2093C266.5 16.2198 266.5 16.2304 266.5 16.2409C266.5 16.2514 266.5 16.262 266.5 16.2725C266.5 16.283 266.5 16.2935 266.5 16.304C266.5 16.3145 266.5 16.3251 266.5 16.3356C266.5 16.346 266.5 16.3565 266.5 16.367C266.5 16.3775 266.5 16.388 266.5 16.3985C266.5 16.4089 266.5 16.4194 266.5 16.4299C266.5 16.4403 266.5 16.4508 266.5 16.4613C266.5 16.4717 266.5 16.4822 266.5 16.4926C266.5 16.503 266.5 16.5135 266.5 16.5239C266.5 16.5343 266.5 16.5448 266.5 16.5552C266.5 16.5656 266.5 16.576 266.5 16.5864C266.5 16.5968 266.5 16.6072 266.5 16.6176C266.5 16.628 266.5 16.6384 266.5 16.6488C266.5 16.6592 266.5 16.6696 266.5 16.6799C266.5 16.6903 266.5 16.7007 266.5 16.7111C266.5 16.7214 266.5 16.7318 266.5 16.7421C266.5 16.7525 266.5 16.7628 266.5 16.7732C266.5 16.7835 266.5 16.7938 266.5 16.8042C266.5 16.8145 266.5 16.8248 266.5 16.8351C266.5 16.8455 266.5 16.8558 266.5 16.8661C266.5 16.8764 266.5 16.8867 266.5 16.897C266.5 16.9073 266.5 16.9176 266.5 16.9278C266.5 16.9381 266.5 16.9484 266.5 16.9587C266.5 16.969 266.5 16.9792 266.5 16.9895C266.5 16.9997 266.5 17.01 266.5 17.0203C266.5 17.0305 266.5 17.0407 266.5 17.051C266.5 17.0612 266.5 17.0715 266.5 17.0817C266.5 17.0919 266.5 17.1021 266.5 17.1124C266.5 17.1226 266.5 17.1328 266.5 17.143C266.5 17.1532 266.5 17.1634 266.5 17.1736C266.5 17.1838 266.5 17.194 266.5 17.2041C266.5 17.2143 266.5 17.2245 266.5 17.2347C266.5 17.2449 266.5 17.255 266.5 17.2652C266.5 17.2753 266.5 17.2855 266.5 17.2956C266.5 17.3058 266.5 17.3159 266.5 17.3261C266.5 17.3362 266.5 17.3463 266.5 17.3565C266.5 17.3666 266.5 17.3767 266.5 17.3868C266.5 17.3969 266.5 17.4071 266.5 17.4172C266.5 17.4273 266.5 17.4374 266.5 17.4474C266.5 17.4575 266.5 17.4676 266.5 17.4777C266.5 17.4878 266.5 17.4979 266.5 17.5079C266.5 17.518 266.5 17.5281 266.5 17.5381C266.5 17.5482 266.5 17.5582 266.5 17.5683C266.5 17.5783 266.5 17.5884 266.5 17.5984C266.5 17.6084 266.5 17.6185 266.5 17.6285C266.5 17.6385 266.5 17.6485 266.5 17.6586C266.5 17.6686 266.5 17.6786 266.5 17.6886C266.5 17.6986 266.5 17.7086 266.5 17.7186C266.5 17.7286 266.5 17.7385 266.5 17.7485C266.5 17.7585 266.5 17.7685 266.5 17.7784C266.5 17.7884 266.5 17.7984 266.5 17.8083C266.5 17.8183 266.5 17.8282 266.5 17.8382C266.5 17.8481 266.5 17.8581 266.5 17.868C266.5 17.8779 266.5 17.8879 266.5 17.8978C266.5 17.9077 266.5 17.9176 266.5 17.9275C266.5 17.9375 266.5 17.9474 266.5 17.9573C266.5 17.9672 266.5 17.9771 266.5 17.987C266.5 17.9968 266.5 18.0067 266.5 18.0166C266.5 18.0265 266.5 18.0364 266.5 18.0462C266.5 18.0561 266.5 18.0659 266.5 18.0758C266.5 18.0857 266.5 18.0955 266.5 18.1054C266.5 18.1152 266.5 18.125 266.5 18.1349C266.5 18.1447 266.5 18.1545 266.5 18.1643C266.5 18.1742 266.5 18.184 266.5 18.1938C266.5 18.2036 266.5 18.2134 266.5 18.2232C266.5 18.233 266.5 18.2428 266.5 18.2526C266.5 18.2624 266.5 18.2722 266.5 18.2819C266.5 18.2917 266.5 18.3015 266.5 18.3112C266.5 18.321 266.5 18.3308 266.5 18.3405C266.5 18.3503 266.5 18.36 266.5 18.3698C266.5 18.3795 266.5 18.3893 266.5 18.399C266.5 18.4087 266.5 18.4184 266.5 18.4282C266.5 18.4379 266.5 18.4476 266.5 18.4573C266.5 18.467 266.5 18.4767 266.5 18.4864C266.5 18.4961 266.5 18.5058 266.5 18.5155C266.5 18.5252 266.5 18.5349 266.5 18.5445C266.5 18.5542 266.5 18.5639 266.5 18.5735C266.5 18.5832 266.5 18.5929 266.5 18.6025C266.5 18.6122 266.5 18.6218 266.5 18.6314C266.5 18.6411 266.5 18.6507 266.5 18.6604C266.5 18.67 266.5 18.6796 266.5 18.6892C266.5 18.6988 266.5 18.7085 266.5 18.7181C266.5 18.7277 266.5 18.7373 266.5 18.7469C266.5 18.7565 266.5 18.7661 266.5 18.7756C266.5 18.7852 266.5 18.7948 266.5 18.8044C266.5 18.8139 266.5 18.8235 266.5 18.8331C266.5 18.8426 266.5 18.8522 266.5 18.8617C266.5 18.8713 266.5 18.8808 266.5 18.8904C266.5 18.8999 266.5 18.9095 266.5 18.919C266.5 18.9285 266.5 18.938 266.5 18.9475C266.5 18.9571 266.5 18.9666 266.5 18.9761C266.5 18.9856 266.5 18.9951 266.5 19.0046H265.5C265.5 18.9951 265.5 18.9856 265.5 18.9761C265.5 18.9666 265.5 18.9571 265.5 18.9475C265.5 18.938 265.5 18.9285 265.5 18.919C265.5 18.9095 265.5 18.8999 265.5 18.8904C265.5 18.8808 265.5 18.8713 265.5 18.8617C265.5 18.8522 265.5 18.8426 265.5 18.8331C265.5 18.8235 265.5 18.8139 265.5 18.8044C265.5 18.7948 265.5 18.7852 265.5 18.7756C265.5 18.7661 265.5 18.7565 265.5 18.7469C265.5 18.7373 265.5 18.7277 265.5 18.7181C265.5 18.7085 265.5 18.6988 265.5 18.6892C265.5 18.6796 265.5 18.67 265.5 18.6604C265.5 18.6507 265.5 18.6411 265.5 18.6314C265.5 18.6218 265.5 18.6122 265.5 18.6025C265.5 18.5929 265.5 18.5832 265.5 18.5735C265.5 18.5639 265.5 18.5542 265.5 18.5445C265.5 18.5349 265.5 18.5252 265.5 18.5155C265.5 18.5058 265.5 18.4961 265.5 18.4864C265.5 18.4767 265.5 18.467 265.5 18.4573C265.5 18.4476 265.5 18.4379 265.5 18.4282C265.5 18.4184 265.5 18.4087 265.5 18.399C265.5 18.3893 265.5 18.3795 265.5 18.3698C265.5 18.36 265.5 18.3503 265.5 18.3405C265.5 18.3308 265.5 18.321 265.5 18.3112C265.5 18.3015 265.5 18.2917 265.5 18.2819C265.5 18.2722 265.5 18.2624 265.5 18.2526C265.5 18.2428 265.5 18.233 265.5 18.2232C265.5 18.2134 265.5 18.2036 265.5 18.1938C265.5 18.184 265.5 18.1742 265.5 18.1643C265.5 18.1545 265.5 18.1447 265.5 18.1349C265.5 18.125 265.5 18.1152 265.5 18.1054C265.5 18.0955 265.5 18.0857 265.5 18.0758C265.5 18.0659 265.5 18.0561 265.5 18.0462C265.5 18.0364 265.5 18.0265 265.5 18.0166C265.5 18.0067 265.5 17.9968 265.5 17.987C265.5 17.9771 265.5 17.9672 265.5 17.9573C265.5 17.9474 265.5 17.9375 265.5 17.9275C265.5 17.9176 265.5 17.9077 265.5 17.8978C265.5 17.8879 265.5 17.8779 265.5 17.868C265.5 17.8581 265.5 17.8481 265.5 17.8382C265.5 17.8282 265.5 17.8183 265.5 17.8083C265.5 17.7984 265.5 17.7884 265.5 17.7784C265.5 17.7685 265.5 17.7585 265.5 17.7485C265.5 17.7385 265.5 17.7286 265.5 17.7186C265.5 17.7086 265.5 17.6986 265.5 17.6886C265.5 17.6786 265.5 17.6686 265.5 17.6586C265.5 17.6485 265.5 17.6385 265.5 17.6285C265.5 17.6185 265.5 17.6084 265.5 17.5984C265.5 17.5884 265.5 17.5783 265.5 17.5683C265.5 17.5582 265.5 17.5482 265.5 17.5381C265.5 17.5281 265.5 17.518 265.5 17.5079C265.5 17.4979 265.5 17.4878 265.5 17.4777C265.5 17.4676 265.5 17.4575 265.5 17.4474C265.5 17.4374 265.5 17.4273 265.5 17.4172C265.5 17.4071 265.5 17.3969 265.5 17.3868C265.5 17.3767 265.5 17.3666 265.5 17.3565C265.5 17.3463 265.5 17.3362 265.5 17.3261C265.5 17.3159 265.5 17.3058 265.5 17.2956C265.5 17.2855 265.5 17.2753 265.5 17.2652C265.5 17.255 265.5 17.2449 265.5 17.2347C265.5 17.2245 265.5 17.2143 265.5 17.2041C265.5 17.194 265.5 17.1838 265.5 17.1736C265.5 17.1634 265.5 17.1532 265.5 17.143C265.5 17.1328 265.5 17.1226 265.5 17.1124C265.5 17.1021 265.5 17.0919 265.5 17.0817C265.5 17.0715 265.5 17.0612 265.5 17.051C265.5 17.0407 265.5 17.0305 265.5 17.0203C265.5 17.01 265.5 16.9997 265.5 16.9895C265.5 16.9792 265.5 16.969 265.5 16.9587C265.5 16.9484 265.5 16.9381 265.5 16.9278C265.5 16.9176 265.5 16.9073 265.5 16.897C265.5 16.8867 265.5 16.8764 265.5 16.8661C265.5 16.8558 265.5 16.8455 265.5 16.8351C265.5 16.8248 265.5 16.8145 265.5 16.8042C265.5 16.7938 265.5 16.7835 265.5 16.7732C265.5 16.7628 265.5 16.7525 265.5 16.7421C265.5 16.7318 265.5 16.7214 265.5 16.7111C265.5 16.7007 265.5 16.6903 265.5 16.6799C265.5 16.6696 265.5 16.6592 265.5 16.6488C265.5 16.6384 265.5 16.628 265.5 16.6176C265.5 16.6072 265.5 16.5968 265.5 16.5864C265.5 16.576 265.5 16.5656 265.5 16.5552C265.5 16.5448 265.5 16.5343 265.5 16.5239C265.5 16.5135 265.5 16.503 265.5 16.4926C265.5 16.4822 265.5 16.4717 265.5 16.4613C265.5 16.4508 265.5 16.4403 265.5 16.4299C265.5 16.4194 265.5 16.4089 265.5 16.3985C265.5 16.388 265.5 16.3775 265.5 16.367C265.5 16.3565 265.5 16.346 265.5 16.3356C265.5 16.3251 265.5 16.3145 265.5 16.304C265.5 16.2935 265.5 16.283 265.5 16.2725C265.5 16.262 265.5 16.2514 265.5 16.2409C265.5 16.2304 265.5 16.2198 265.5 16.2093C265.5 16.1988 265.5 16.1882 265.5 16.1777C265.5 16.1671 265.5 16.1565 265.5 16.146C265.5 16.1354 265.5 16.1248 265.5 16.1143C265.5 16.1037 265.5 16.0931 265.5 16.0825C265.5 16.0719 265.5 16.0613 265.5 16.0507C265.5 16.0401 265.5 16.0295 265.5 16.0189C265.5 16.0083 265.5 15.9977 265.5 15.9871C265.5 15.9764 265.5 15.9658 265.5 15.9552C265.5 15.9445 265.5 15.9339 265.5 15.9233C265.5 15.9126 265.5 15.902 265.5 15.8913C265.5 15.8807 265.5 15.87 265.5 15.8593C265.5 15.8487 265.5 15.838 265.5 15.8273C265.5 15.8166 265.5 15.8059 265.5 15.7953C265.5 15.7846 265.5 15.7739 265.5 15.7632C265.5 15.7525 265.5 15.7418 265.5 15.731C265.5 15.7203 265.5 15.7096 265.5 15.6989C265.5 15.6882 265.5 15.6774 265.5 15.6667C265.5 15.656 265.5 15.6452 265.5 15.6345C265.5 15.6237 265.5 15.613 265.5 15.6022C265.5 15.5915 265.5 15.5807 265.5 15.5699C265.5 15.5592 265.5 15.5484 265.5 15.5376C265.5 15.5268 265.5 15.5161 265.5 15.5053C265.5 15.4945 265.5 15.4837 265.5 15.4729C265.5 15.4621 265.5 15.4513 265.5 15.4404C265.5 15.4296 265.5 15.4188 265.5 15.408C265.5 15.3972 265.5 15.3863 265.5 15.3755C265.5 15.3647 265.5 15.3538 265.5 15.343C265.5 15.3321 265.5 15.3213 265.5 15.3104C265.5 15.2996 265.5 15.2887 265.5 15.2778C265.5 15.2669 265.5 15.2561 265.5 15.2452C265.5 15.2343 265.5 15.2234 265.5 15.2125C265.5 15.2016 265.5 15.1907 265.5 15.1798C265.5 15.1689 265.5 15.158 265.5 15.1471C265.5 15.1362 265.5 15.1253 265.5 15.1143C265.5 15.1034 265.5 15.0925 265.5 15.0815C265.5 15.0706 265.5 15.0597 265.5 15.0487C265.5 15.0378 265.5 15.0268 265.5 15.0159C265.5 15.0049 265.5 14.9939 265.5 14.983C265.5 14.972 265.5 14.961 265.5 14.95C265.5 14.939 265.5 14.9281 265.5 14.9171C265.5 14.9061 265.5 14.8951 265.5 14.8841C265.5 14.8731 265.5 14.862 265.5 14.851C265.5 14.84 265.5 14.829 265.5 14.818C265.5 14.8069 265.5 14.7959 265.5 14.7849C265.5 14.7738 265.5 14.7628 265.5 14.7517C265.5 14.7407 265.5 14.7296 265.5 14.7186C265.5 14.7075 265.5 14.6964 265.5 14.6854C265.5 14.6743 265.5 14.6632 265.5 14.6521C265.5 14.641 265.5 14.63 265.5 14.6189C265.5 14.6078 265.5 14.5967 265.5 14.5856C265.5 14.5745 265.5 14.5633 265.5 14.5522C265.5 14.5411 265.5 14.53 265.5 14.5189C265.5 14.5077 265.5 14.4966 265.5 14.4854C265.5 14.4743 265.5 14.4632 265.5 14.452C265.5 14.4409 265.5 14.4297 265.5 14.4185C265.5 14.4074 265.5 14.3962 265.5 14.385C265.5 14.3739 265.5 14.3627 265.5 14.3515C265.5 14.3403 265.5 14.3291 265.5 14.3179C265.5 14.3067 265.5 14.2955 265.5 14.2843C265.5 14.2731 265.5 14.2619 265.5 14.2507C265.5 14.2395 265.5 14.2282 265.5 14.217C265.5 14.2058 265.5 14.1945 265.5 14.1833C265.5 14.1721 265.5 14.1608 265.5 14.1496C265.5 14.1383 265.5 14.127 265.5 14.1158C265.5 14.1045 265.5 14.0932 265.5 14.082C265.5 14.0707 265.5 14.0594 265.5 14.0481C265.5 14.0368 265.5 14.0256 265.5 14.0143C265.5 14.003 265.5 13.9917 265.5 13.9803C265.5 13.969 265.5 13.9577 265.5 13.9464C265.5 13.9351 265.5 13.9238 265.5 13.9124C265.5 13.9011 265.5 13.8898 265.5 13.8784C265.5 13.8671 265.5 13.8557 265.5 13.8444C265.5 13.833 265.5 13.8217 265.5 13.8103C265.5 13.7989 265.5 13.7876 265.5 13.7762C265.5 13.7648 265.5 13.7534 265.5 13.742C265.5 13.7306 265.5 13.7192 265.5 13.7079C265.5 13.6965 265.5 13.685 265.5 13.6736C265.5 13.6622 265.5 13.6508 265.5 13.6394C265.5 13.628 265.5 13.6165 265.5 13.6051C265.5 13.5937 265.5 13.5822 265.5 13.5708C265.5 13.5594 265.5 13.5479 265.5 13.5364C265.5 13.525 265.5 13.5135 265.5 13.5021C265.5 13.4906 265.5 13.4791 265.5 13.4676C265.5 13.4562 265.5 13.4447 265.5 13.4332C265.5 13.4217 265.5 13.4102 265.5 13.3987C265.5 13.3872 265.5 13.3757 265.5 13.3642C265.5 13.3527 265.5 13.3412 265.5 13.3296C265.5 13.3181 265.5 13.3066 265.5 13.2951C265.5 13.2835 265.5 13.272 265.5 13.2604C265.5 13.2489 265.5 13.2373 265.5 13.2258C265.5 13.2142 265.5 13.2027 265.5 13.1911C265.5 13.1795 265.5 13.168 265.5 13.1564C265.5 13.1448 265.5 13.1332 265.5 13.1216C265.5 13.11 265.5 13.0984 265.5 13.0868C265.5 13.0752 265.5 13.0636 265.5 13.052C265.5 13.0404 265.5 13.0288 265.5 13.0172C265.5 13.0055 265.5 12.9939 265.5 12.9823C265.5 12.9706 265.5 12.959 265.5 12.9474C265.5 12.9357 265.5 12.9241 265.5 12.9124C265.5 12.9007 265.5 12.8891 265.5 12.8774C265.5 12.8657 265.5 12.8541 265.5 12.8424C265.5 12.8307 265.5 12.819 265.5 12.8073C265.5 12.7956 265.5 12.7839 265.5 12.7722C265.5 12.7605 265.5 12.7488 265.5 12.7371C265.5 12.7254 265.5 12.7137 265.5 12.702C265.5 12.6902 265.5 12.6785 265.5 12.6668C265.5 12.655 265.5 12.6433 265.5 12.6315C265.5 12.6198 265.5 12.608 265.5 12.5963C265.5 12.5845 265.5 12.5728 265.5 12.561C265.5 12.5492 265.5 12.5375 265.5 12.5257C265.5 12.5139 265.5 12.5021 265.5 12.4903C265.5 12.4785 265.5 12.4667 265.5 12.4549C265.5 12.4431 265.5 12.4313 265.5 12.4195C265.5 12.4077 265.5 12.3959 265.5 12.384C265.5 12.3722 265.5 12.3604 265.5 12.3485C265.5 12.3367 265.5 12.3249 265.5 12.313C265.5 12.3012 265.5 12.2893 265.5 12.2774C265.5 12.2656 265.5 12.2537 265.5 12.2418C265.5 12.23 265.5 12.2181 265.5 12.2062C265.5 12.1943 265.5 12.1824 265.5 12.1706C265.5 12.1587 265.5 12.1468 265.5 12.1349C265.5 12.123 265.5 12.111 265.5 12.0991C265.5 12.0872 265.5 12.0753 265.5 12.0634C265.5 12.0514 265.5 12.0395 265.5 12.0276C265.5 12.0156 265.5 12.0037 265.5 11.9917C265.5 11.9798 265.5 11.9678 265.5 11.9559C265.5 11.9439 265.5 11.9319 265.5 11.92C265.5 11.908 265.5 11.896 265.5 11.884C265.5 11.872 265.5 11.8601 265.5 11.8481C265.5 11.8361 265.5 11.8241 265.5 11.8121C265.5 11.8001 265.5 11.788 265.5 11.776C265.5 11.764 265.5 11.752 265.5 11.74C265.5 11.7279 265.5 11.7159 265.5 11.7039C265.5 11.6918 265.5 11.6798 265.5 11.6677C265.5 11.6557 265.5 11.6436 265.5 11.6316C265.5 11.6195 265.5 11.6074 265.5 11.5954C265.5 11.5833 265.5 11.5712 265.5 11.5591C265.5 11.547 265.5 11.5349 265.5 11.5229C265.5 11.5108 265.5 11.4987 265.5 11.4865C265.5 11.4744 265.5 11.4623 265.5 11.4502C265.5 11.4381 265.5 11.426 265.5 11.4138C265.5 11.4017 265.5 11.3896 265.5 11.3774C265.5 11.3653 265.5 11.3531 265.5 11.341C265.5 11.3288 265.5 11.3167 265.5 11.3045C265.5 11.2924 265.5 11.2802 265.5 11.268C265.5 11.2558 265.5 11.2437 265.5 11.2315C265.5 11.2193 265.5 11.2071 265.5 11.1949C265.5 11.1827 265.5 11.1705 265.5 11.1583C265.5 11.1461 265.5 11.1339 265.5 11.1217C265.5 11.1094 265.5 11.0972 265.5 11.085C265.5 11.0728 265.5 11.0605 265.5 11.0483C265.5 11.036 265.5 11.0238 265.5 11.0115C265.5 10.9993 265.5 10.987 265.5 10.9748C265.5 10.9625 265.5 10.9502 265.5 10.938C265.5 10.9257 265.5 10.9134 265.5 10.9011C265.5 10.8888 265.5 10.8765 265.5 10.8642C265.5 10.8519 265.5 10.8396 265.5 10.8273C265.5 10.815 265.5 10.8027 265.5 10.7904C265.5 10.7781 265.5 10.7657 265.5 10.7534C265.5 10.7411 265.5 10.7287 265.5 10.7164C265.5 10.7041 265.5 10.6917 265.5 10.6794C265.5 10.667 265.5 10.6546 265.5 10.6423C265.5 10.6299 265.5 10.6175 265.5 10.6052C265.5 10.5928 265.5 10.5804 265.5 10.568C265.5 10.5556 265.5 10.5432 265.5 10.5308C265.5 10.5184 265.5 10.506 265.5 10.4936C265.5 10.4812 265.5 10.4688 265.5 10.4564C265.5 10.444 265.5 10.4315 265.5 10.4191C265.5 10.4067 265.5 10.3942 265.5 10.3818C265.5 10.3693 265.5 10.3569 265.5 10.3444C265.5 10.332 265.5 10.3195 265.5 10.3071C265.5 10.2946 265.5 10.2821 265.5 10.2696C265.5 10.2572 265.5 10.2447 265.5 10.2322C265.5 10.2197 265.5 10.2072 265.5 10.1947C265.5 10.1822 265.5 10.1697 265.5 10.1572C265.5 10.1447 265.5 10.1322 265.5 10.1197C265.5 10.1071 265.5 10.0946 265.5 10.0821C265.5 10.0695 265.5 10.057 265.5 10.0445C265.5 10.0319 265.5 10.0194 265.5 10.0068C265.5 9.99425 265.5 9.98169 265.5 9.96912C265.5 9.95655 265.5 9.94398 265.5 9.9314C265.5 9.91882 265.5 9.90624 265.5 9.89365C265.5 9.88106 265.5 9.86847 265.5 9.85587C265.5 9.84327 265.5 9.83066 265.5 9.81805C265.5 9.80544 265.5 9.79282 265.5 9.7802C265.5 9.76757 265.5 9.75494 265.5 9.74231C265.5 9.72968 265.5 9.71704 265.5 9.70439C265.5 9.69175 265.5 9.6791 265.5 9.66644C265.5 9.65378 265.5 9.64112 265.5 9.62845C265.5 9.61579 265.5 9.60311 265.5 9.59043C265.5 9.57775 265.5 9.56507 265.5 9.55238C265.5 9.53969 265.5 9.52699 265.5 9.51429C265.5 9.50159 265.5 9.48888 265.5 9.47617C265.5 9.46346 265.5 9.45074 265.5 9.43802C265.5 9.42529 265.5 9.41256 265.5 9.39983C265.5 9.38709 265.5 9.37435 265.5 9.36161C265.5 9.34886 265.5 9.33611 265.5 9.32335C265.5 9.31059 265.5 9.29783 265.5 9.28506C265.5 9.27229 265.5 9.25952 265.5 9.24674C265.5 9.23396 265.5 9.22118 265.5 9.20838C265.5 9.19559 265.5 9.1828 265.5 9.16999C265.5 9.15719 265.5 9.14438 265.5 9.13157C265.5 9.11876 265.5 9.10594 265.5 9.09311C265.5 9.08029 265.5 9.06746 265.5 9.05462C265.5 9.04179 265.5 9.02895 265.5 9.0161C265.5 9.00325 265.5 8.9904 265.5 8.97754C265.5 8.96468 265.5 8.95182 265.5 8.93895C265.5 8.92608 265.5 8.91321 265.5 8.90032C265.5 8.88744 265.5 8.87456 265.5 8.86167C265.5 8.84877 265.5 8.83588 265.5 8.82297C265.5 8.81007 265.5 8.79716 265.5 8.78425C265.5 8.77133 265.5 8.75841 265.5 8.74549C265.5 8.73256 265.5 8.71963 265.5 8.70669C265.5 8.69376 265.5 8.68082 265.5 8.66787C265.5 8.65492 265.5 8.64197 265.5 8.62901C265.5 8.61605 265.5 8.60308 265.5 8.59011C265.5 8.57714 265.5 8.56417 265.5 8.55119C265.5 8.5382 265.5 8.52522 265.5 8.51222C265.5 8.49923 265.5 8.48623 265.5 8.47323C265.5 8.46023 265.5 8.44722 265.5 8.4342C265.5 8.42119 265.5 8.40816 265.5 8.39514C265.5 8.38211 265.5 8.36908 265.5 8.35604C265.5 8.34301 265.5 8.32996 265.5 8.31691C265.5 8.30387 265.5 8.29081 265.5 8.27775C265.5 8.26469 265.5 8.25163 265.5 8.23855C265.5 8.22548 265.5 8.21241 265.5 8.19932C265.5 8.18624 265.5 8.17315 265.5 8.16006C265.5 8.14697 265.5 8.13387 265.5 8.12076C265.5 8.10766 265.5 8.09455 265.5 8.08143C265.5 8.06832 265.5 8.05519 265.5 8.04207C265.5 8.02894 265.5 8.01581 265.5 8.00267C265.5 7.98953 265.5 7.97639 265.5 7.96324C265.5 7.95009 265.5 7.93693 265.5 7.92377C265.5 7.91061 265.5 7.89745 265.5 7.88427C265.5 7.8711 265.5 7.85792 265.5 7.84474C265.5 7.83156 265.5 7.81837 265.5 7.80518C265.5 7.79198 265.5 7.77878 265.5 7.76558C265.5 7.75237 265.5 7.73916 265.5 7.72594C265.5 7.71273 265.5 7.6995 265.5 7.68628C265.5 7.67305 265.5 7.65981 265.5 7.64658C265.5 7.63334 265.5 7.62009 265.5 7.60684C265.5 7.59359 265.5 7.58034 265.5 7.56707C265.5 7.55381 265.5 7.54055 265.5 7.52727C265.5 7.514 265.5 7.50072 265.5 7.48744C265.5 7.47415 265.5 7.46086 265.5 7.44757C265.5 7.43427 265.5 7.42097 265.5 7.40767C265.5 7.39436 265.5 7.38105 265.5 7.36773C265.5 7.35441 265.5 7.34109 265.5 7.32776C265.5 7.31443 265.5 7.3011 265.5 7.28776C265.5 7.27442 265.5 7.26108 265.5 7.24772C265.5 7.23437 265.5 7.22102 265.5 7.20765C265.5 7.19429 265.5 7.18092 265.5 7.16755C265.5 7.15418 265.5 7.1408 265.5 7.12741C265.5 7.11403 265.5 7.10064 265.5 7.08724C265.5 7.07385 265.5 7.06045 265.5 7.04704C265.5 7.03363 265.5 7.02022 265.5 7.0068C265.5 6.99338 265.5 6.97996 265.5 6.96653C265.5 6.9531 265.5 6.93967 265.5 6.92623C265.5 6.91279 265.5 6.89934 265.5 6.88589C265.5 6.87244 265.5 6.85898 265.5 6.84552C265.5 6.83205 265.5 6.81858 265.5 6.80511C265.5 6.79164 265.5 6.77816 265.5 6.76467C265.5 6.75119 265.5 6.73769 265.5 6.7242C265.5 6.7107 265.5 6.6972 265.5 6.68369C265.5 6.67018 265.5 6.65667 265.5 6.64315C265.5 6.62963 265.5 6.61611 265.5 6.60258C265.5 6.58905 265.5 6.57551 265.5 6.56197C265.5 6.54843 265.5 6.53488 265.5 6.52133C265.5 6.50778 265.5 6.49422 265.5 6.48066C265.5 6.46709 265.5 6.45352 265.5 6.43995C265.5 6.42637 265.5 6.41279 265.5 6.39921C265.5 6.38562 265.5 6.37203 265.5 6.35843C265.5 6.34484 265.5 6.33123 265.5 6.31763C265.5 6.30402 265.5 6.2904 265.5 6.27678C265.5 6.26316 265.5 6.24954 265.5 6.23591C265.5 6.22228 265.5 6.20864 265.5 6.195C265.5 6.18136 265.5 6.16771 265.5 6.15406C265.5 6.1404 265.5 6.12675 265.5 6.11308C265.5 6.09942 265.5 6.08575 265.5 6.07207C265.5 6.0584 265.5 6.04471 265.5 6.03103C265.5 6.01734 265.5 6.00365 265.5 5.98995C265.5 5.97625 265.5 5.96255 265.5 5.94884C265.5 5.93513 265.5 5.92142 265.5 5.9077C265.5 5.89398 265.5 5.88025 265.5 5.86652C265.5 5.85279 265.5 5.83905 265.5 5.82531C265.5 5.81157 265.5 5.79782 265.5 5.78406C265.5 5.77031 265.5 5.75655 265.5 5.74279C265.5 5.72902 265.5 5.71525 265.5 5.70148C265.5 5.6877 265.5 5.67392 265.5 5.66013C265.5 5.64634 265.5 5.63255 265.5 5.61875C265.5 5.60495 265.5 5.59115 265.5 5.57734C265.5 5.56353 265.5 5.54971 265.5 5.53589C265.5 5.52207 265.5 5.50825 265.5 5.49441C265.5 5.48058 265.5 5.46674 265.5 5.4529C265.5 5.43906 265.5 5.42521 265.5 5.41136C265.5 5.3975 265.5 5.38364 265.5 5.36978C265.5 5.35591 265.5 5.34204 265.5 5.32816C265.5 5.31429 265.5 5.3004 265.5 5.28652C265.5 5.27263 265.5 5.25873 265.5 5.24483C265.5 5.23094 265.5 5.21703 265.5 5.20312C265.5 5.18921 265.5 5.17529 265.5 5.16137C265.5 5.14745 265.5 5.13352 265.5 5.11959C265.5 5.10566 265.5 5.09172 265.5 5.07778C265.5 5.06383 265.5 5.04988 265.5 5.03593C265.5 5.02197 265.5 5.00801 265.5 4.99405C265.5 4.98008 265.5 4.96611 265.5 4.95213C265.5 4.93816 265.5 4.92417 265.5 4.91018C265.5 4.8962 265.5 4.8822 265.5 4.8682C265.5 4.8542 265.5 4.8402 265.5 4.82619C265.5 4.81218 265.5 4.79816 265.5 4.78414C265.5 4.77011 265.5 4.75609 265.5 4.74205C265.5 4.72802 265.5 4.71398 265.5 4.69994C265.5 4.68589 265.5 4.67184 265.5 4.65779C265.5 4.64373 265.5 4.62967 265.5 4.6156C265.5 4.60154 265.5 4.58747 265.5 4.57339C265.5 4.55931 265.5 4.54523 265.5 4.53114C265.5 4.51705 265.5 4.50295 265.5 4.48885C265.5 4.47475 265.5 4.46065 265.5 4.44654C265.5 4.43243 265.5 4.41831 265.5 4.40419C265.5 4.39006 265.5 4.37593 265.5 4.3618C265.5 4.34767 265.5 4.33353 265.5 4.31938C265.5 4.30524 265.5 4.29109 265.5 4.27693C265.5 4.26278 265.5 4.24861 265.5 4.23445C265.5 4.22028 265.5 4.20611 265.5 4.19193C265.5 4.17775 265.5 4.16357 265.5 4.14938C265.5 4.13519 265.5 4.12099 265.5 4.10679C265.5 4.09259 265.5 4.07838 265.5 4.06417C265.5 4.04996 265.5 4.03574 265.5 4.02152C265.5 4.0073 265.5 3.99307 265.5 3.97883C265.5 3.9646 265.5 3.95036 265.5 3.93611C265.5 3.92187 265.5 3.90762 265.5 3.89336C265.5 3.8791 265.5 3.86484 265.5 3.85057C265.5 3.83631 265.5 3.82203 265.5 3.80775C265.5 3.79348 265.5 3.77919 265.5 3.7649C265.5 3.75061 265.5 3.73631 265.5 3.72201C265.5 3.70771 265.5 3.69341 265.5 3.67909C265.5 3.66478 265.5 3.65046 265.5 3.63614C265.5 3.62182 265.5 3.60749 265.5 3.59315C265.5 3.57882 265.5 3.56448 265.5 3.55013C265.5 3.53578 265.5 3.52143 265.5 3.50708C265.5 3.49272 265.5 3.47836 265.5 3.46399C265.5 3.44962 265.5 3.43525 265.5 3.42087C265.5 3.40649 265.5 3.3921 265.5 3.37771C265.5 3.36332 265.5 3.34892 265.5 3.33452C265.5 3.32012 265.5 3.30571 265.5 3.2913C265.5 3.27689 265.5 3.26247 265.5 3.24805C265.5 3.23362 265.5 3.21919 265.5 3.20476C265.5 3.19032 265.5 3.17588 265.5 3.16143C265.5 3.14699 265.5 3.13254 265.5 3.11808C265.5 3.10362 265.5 3.08916 265.5 3.07469C265.5 3.06022 265.5 3.04575 265.5 3.03127C265.5 3.01679 265.5 3.0023 265.5 2.98781C265.5 2.97332 265.5 2.95882 265.5 2.94432C265.5 2.92982 265.5 2.91531 265.5 2.9008C265.5 2.88628 265.5 2.87176 265.5 2.85724C265.5 2.84271 265.5 2.82818 265.5 2.81365C265.5 2.79911 265.5 2.78457 265.5 2.77003C265.5 2.75548 265.5 2.74093 265.5 2.72637C265.5 2.71181 265.5 2.69725 265.5 2.68268C265.5 2.66811 265.5 2.65353 265.5 2.63895C265.5 2.62437 265.5 2.60979 265.5 2.5952C265.5 2.5806 265.5 2.56601 265.5 2.5514C265.5 2.5368 265.5 2.52219 265.5 2.50758C265.5 2.49297 265.5 2.47835 265.5 2.46372C265.5 2.4491 265.5 2.43447 265.5 2.41983C265.5 2.40519 265.5 2.39055 265.5 2.3759C265.5 2.36126 265.5 2.3466 265.5 2.33195C265.5 2.31729 265.5 2.30262 265.5 2.28795C265.5 2.27328 265.5 2.25861 265.5 2.24393C265.5 2.22925 265.5 2.21456 265.5 2.19987C265.5 2.18518 265.5 2.17048 265.5 2.15578C265.5 2.14107 265.5 2.12637 265.5 2.11165C265.5 2.09694 265.5 2.08222 265.5 2.06749C265.5 2.05277 265.5 2.03804 265.5 2.0233C265.5 2.00856 265.5 1.99382 265.5 1.97907C265.5 1.96432 265.5 1.94957 265.5 1.93481C265.5 1.92005 265.5 1.90529 265.5 1.89052C265.5 1.87575 265.5 1.86097 265.5 1.84619C265.5 1.83141 265.5 1.81662 265.5 1.80183C265.5 1.78704 265.5 1.77224 265.5 1.75744C265.5 1.74264 265.5 1.72783 265.5 1.71301C265.5 1.6982 265.5 1.68338 265.5 1.66855C265.5 1.65373 265.5 1.63889 265.5 1.62406C265.5 1.60922 265.5 1.59438 265.5 1.57953C265.5 1.56468 265.5 1.54983 265.5 1.53497C265.5 1.52011 265.5 1.50525 265.5 1.49037C265.5 1.4755 265.5 1.46063 265.5 1.44575C265.5 1.43087 265.5 1.41598 265.5 1.40109C265.5 1.38619 265.5 1.37129 265.5 1.35639C265.5 1.34149 265.5 1.32658 265.5 1.31166C265.5 1.29675 265.5 1.28183 265.5 1.2669C265.5 1.25198 265.5 1.23704 265.5 1.22211C265.5 1.20717 265.5 1.19223 265.5 1.17728C265.5 1.16233 265.5 1.14738 265.5 1.13242C265.5 1.11746 265.5 1.10249 265.5 1.08752C265.5 1.07255 265.5 1.05757 265.5 1.04259C265.5 1.02761 265.5 1.01262 265.5 0.997629C265.5 0.982636 265.5 0.967638 265.5 0.952634C265.5 0.937629 265.5 0.92262 265.5 0.907604C265.5 0.892589 265.5 0.877568 265.5 0.862542C265.5 0.847515 265.5 0.832483 265.5 0.817446C265.5 0.802408 265.5 0.787365 265.5 0.772316C265.5 0.757268 265.5 0.742213 265.5 0.727153C265.5 0.712094 265.5 0.697028 265.5 0.681957C265.5 0.666886 265.5 0.651809 265.5 0.636727C265.5 0.621645 265.5 0.606557 265.5 0.591464C265.5 0.576371 265.5 0.561272 265.5 0.546167C265.5 0.531063 265.5 0.515953 265.5 0.500837C265.5 0.485722 265.5 0.470601 265.5 0.455474C265.5 0.440347 265.5 0.425215 265.5 0.410077C265.5 0.394939 265.5 0.379796 265.5 0.364646C265.5 0.349497 265.5 0.334343 265.5 0.319183C265.5 0.304022 265.5 0.288857 265.5 0.273685C265.5 0.258514 265.5 0.243337 265.5 0.228155C265.5 0.212972 265.5 0.197784 265.5 0.182591C265.5 0.167397 265.5 0.152198 265.5 0.136993C265.5 0.121788 265.5 0.106578 265.5 0.0913622C265.5 0.0761463 265.5 0.0609248 265.5 0.0456978C265.5 0.0304708 265.5 0.0152382 265.5 0H266.5ZM255 30.5H15V29.5H255V30.5ZM4.5 41.0047C4.5 41.0251 4.5 41.0454 4.5 41.0657C4.5 41.086 4.5 41.1063 4.5 41.1266C4.5 41.1469 4.5 41.1672 4.5 41.1874C4.5 41.2077 4.5 41.2279 4.5 41.2482C4.5 41.2684 4.5 41.2886 4.5 41.3088C4.5 41.329 4.5 41.3492 4.5 41.3693C4.5 41.3895 4.5 41.4096 4.5 41.4298C4.5 41.4499 4.5 41.47 4.5 41.4901C4.5 41.5102 4.5 41.5303 4.5 41.5504C4.5 41.5705 4.5 41.5905 4.5 41.6105C4.5 41.6306 4.5 41.6506 4.5 41.6706C4.5 41.6906 4.5 41.7106 4.5 41.7306C4.5 41.7506 4.5 41.7705 4.5 41.7905C4.5 41.8104 4.5 41.8304 4.5 41.8503C4.5 41.8702 4.5 41.8901 4.5 41.91C4.5 41.9299 4.5 41.9497 4.5 41.9696C4.5 41.9895 4.5 42.0093 4.5 42.0291C4.5 42.0489 4.5 42.0687 4.5 42.0885C4.5 42.1083 4.5 42.1281 4.5 42.1479C4.5 42.1676 4.5 42.1874 4.5 42.2071C4.5 42.2268 4.5 42.2466 4.5 42.2663C4.5 42.286 4.5 42.3056 4.5 42.3253C4.5 42.345 4.5 42.3646 4.5 42.3843C4.5 42.4039 4.5 42.4235 4.5 42.4431C4.5 42.4627 4.5 42.4823 4.5 42.5019C4.5 42.5215 4.5 42.541 4.5 42.5606C4.5 42.5801 4.5 42.5997 4.5 42.6192C4.5 42.6387 4.5 42.6582 4.5 42.6777C4.5 42.6972 4.5 42.7166 4.5 42.7361C4.5 42.7555 4.5 42.775 4.5 42.7944C4.5 42.8138 4.5 42.8332 4.5 42.8526C4.5 42.872 4.5 42.8914 4.5 42.9107C4.5 42.9301 4.5 42.9494 4.5 42.9687C4.5 42.9881 4.5 43.0074 4.5 43.0267C4.5 43.046 4.5 43.0653 4.5 43.0845C4.5 43.1038 4.5 43.123 4.5 43.1423C4.5 43.1615 4.5 43.1807 4.5 43.1999C4.5 43.2191 4.5 43.2383 4.5 43.2575C4.5 43.2767 4.5 43.2958 4.5 43.315C4.5 43.3341 4.5 43.3532 4.5 43.3723C4.5 43.3915 4.5 43.4106 4.5 43.4296C4.5 43.4487 4.5 43.4678 4.5 43.4868C4.5 43.5059 4.5 43.5249 4.5 43.5439C4.5 43.5629 4.5 43.5819 4.5 43.6009C4.5 43.6199 4.5 43.6389 4.5 43.6578C4.5 43.6768 4.5 43.6957 4.5 43.7147C4.5 43.7336 4.5 43.7525 4.5 43.7714C4.5 43.7903 4.5 43.8092 4.5 43.828C4.5 43.8469 4.5 43.8657 4.5 43.8846C4.5 43.9034 4.5 43.9222 4.5 43.941C4.5 43.9598 4.5 43.9786 4.5 43.9974C4.5 44.0161 4.5 44.0349 4.5 44.0536C4.5 44.0724 4.5 44.0911 4.5 44.1098C4.5 44.1285 4.5 44.1472 4.5 44.1659C4.5 44.1846 4.5 44.2032 4.5 44.2219C4.5 44.2405 4.5 44.2591 4.5 44.2778C4.5 44.2964 4.5 44.315 4.5 44.3336C4.5 44.3521 4.5 44.3707 4.5 44.3893C4.5 44.4078 4.5 44.4263 4.5 44.4449C4.5 44.4634 4.5 44.4819 4.5 44.5004C4.5 44.5189 4.5 44.5374 4.5 44.5558C4.5 44.5743 4.5 44.5927 4.5 44.6111C4.5 44.6296 4.5 44.648 4.5 44.6664C4.5 44.6848 4.5 44.7032 4.5 44.7215C4.5 44.7399 4.5 44.7582 4.5 44.7766C4.5 44.7949 4.5 44.8132 4.5 44.8315C4.5 44.8498 4.5 44.8681 4.5 44.8864C4.5 44.9047 4.5 44.9229 4.5 44.9412C4.5 44.9594 4.5 44.9776 4.5 44.9959C4.5 45.0141 4.5 45.0323 4.5 45.0504C4.5 45.0686 4.5 45.0868 4.5 45.1049C4.5 45.1231 4.5 45.1412 4.5 45.1593C4.5 45.1775 4.5 45.1956 4.5 45.2136C4.5 45.2317 4.5 45.2498 4.5 45.2679C4.5 45.2859 4.5 45.304 4.5 45.322C4.5 45.34 4.5 45.358 4.5 45.376C4.5 45.394 4.5 45.412 4.5 45.4299C4.5 45.4479 4.5 45.4659 4.5 45.4838C4.5 45.5017 4.5 45.5196 4.5 45.5375C4.5 45.5554 4.5 45.5733 4.5 45.5912C4.5 45.6091 4.5 45.6269 4.5 45.6448C4.5 45.6626 4.5 45.6804 4.5 45.6982C4.5 45.716 4.5 45.7338 4.5 45.7516C4.5 45.7694 4.5 45.7871 4.5 45.8049C4.5 45.8226 4.5 45.8404 4.5 45.8581C4.5 45.8758 4.5 45.8935 4.5 45.9112C4.5 45.9289 4.5 45.9465 4.5 45.9642C4.5 45.9818 4.5 45.9995 4.5 46.0171C4.5 46.0347 4.5 46.0523 4.5 46.0699C4.5 46.0875 4.5 46.1051 4.5 46.1226C4.5 46.1402 4.5 46.1577 4.5 46.1753C4.5 46.1928 4.5 46.2103 4.5 46.2278C4.5 46.2453 4.5 46.2628 4.5 46.2802C4.5 46.2977 4.5 46.3152 4.5 46.3326C4.5 46.35 4.5 46.3674 4.5 46.3848C4.5 46.4022 4.5 46.4196 4.5 46.437C4.5 46.4544 4.5 46.4717 4.5 46.4891C4.5 46.5064 4.5 46.5237 4.5 46.5411C4.5 46.5584 4.5 46.5757 4.5 46.5929C4.5 46.6102 4.5 46.6275 4.5 46.6447C4.5 46.662 4.5 46.6792 4.5 46.6964C4.5 46.7136 4.5 46.7308 4.5 46.748C4.5 46.7652 4.5 46.7824 4.5 46.7995C4.5 46.8167 4.5 46.8338 4.5 46.851C4.5 46.8681 4.5 46.8852 4.5 46.9023C4.5 46.9194 4.5 46.9365 4.5 46.9535C4.5 46.9706 4.5 46.9876 4.5 47.0047C4.5 47.0217 4.5 47.0387 4.5 47.0557C4.5 47.0727 4.5 47.0897 4.5 47.1067C4.5 47.1236 4.5 47.1406 4.5 47.1575C4.5 47.1744 4.5 47.1914 4.5 47.2083C4.5 47.2252 4.5 47.2421 4.5 47.2589C4.5 47.2758 4.5 47.2927 4.5 47.3095C4.5 47.3264 4.5 47.3432 4.5 47.36C4.5 47.3768 4.5 47.3936 4.5 47.4104C4.5 47.4272 4.5 47.444 4.5 47.4607C4.5 47.4775 4.5 47.4942 4.5 47.5109C4.5 47.5276 4.5 47.5443 4.5 47.561C4.5 47.5777 4.5 47.5944 4.5 47.611C4.5 47.6277 4.5 47.6443 4.5 47.661C4.5 47.6776 4.5 47.6942 4.5 47.7108C4.5 47.7274 4.5 47.744 4.5 47.7605C4.5 47.7771 4.5 47.7936 4.5 47.8102C4.5 47.8267 4.5 47.8432 4.5 47.8597C4.5 47.8762 4.5 47.8927 4.5 47.9092C4.5 47.9257 4.5 47.9421 4.5 47.9586C4.5 47.975 4.5 47.9914 4.5 48.0078C4.5 48.0242 4.5 48.0406 4.5 48.057C4.5 48.0734 4.5 48.0897 4.5 48.1061C4.5 48.1224 4.5 48.1388 4.5 48.1551C4.5 48.1714 4.5 48.1877 4.5 48.204C4.5 48.2203 4.5 48.2365 4.5 48.2528C4.5 48.269 4.5 48.2853 4.5 48.3015C4.5 48.3177 4.5 48.3339 4.5 48.3501C4.5 48.3663 4.5 48.3825 4.5 48.3986C4.5 48.4148 4.5 48.4309 4.5 48.4471C4.5 48.4632 4.5 48.4793 4.5 48.4954C4.5 48.5115 4.5 48.5276 4.5 48.5437C4.5 48.5597 4.5 48.5758 4.5 48.5918C4.5 48.6078 4.5 48.6239 4.5 48.6399C4.5 48.6559 4.5 48.6719 4.5 48.6878C4.5 48.7038 4.5 48.7198 4.5 48.7357C4.5 48.7516 4.5 48.7676 4.5 48.7835C4.5 48.7994 4.5 48.8153 4.5 48.8312C4.5 48.847 4.5 48.8629 4.5 48.8788C4.5 48.8946 4.5 48.9104 4.5 48.9263C4.5 48.9421 4.5 48.9579 4.5 48.9737C4.5 48.9894 4.5 49.0052 4.5 49.021C4.5 49.0367 4.5 49.0525 4.5 49.0682C4.5 49.0839 4.5 49.0996 4.5 49.1153C4.5 49.131 4.5 49.1467 4.5 49.1623C4.5 49.178 4.5 49.1936 4.5 49.2093C4.5 49.2249 4.5 49.2405 4.5 49.2561C4.5 49.2717 4.5 49.2873 4.5 49.3029C4.5 49.3184 4.5 49.334 4.5 49.3495C4.5 49.3651 4.5 49.3806 4.5 49.3961C4.5 49.4116 4.5 49.4271 4.5 49.4426C4.5 49.458 4.5 49.4735 4.5 49.4889C4.5 49.5044 4.5 49.5198 4.5 49.5352C4.5 49.5506 4.5 49.566 4.5 49.5814C4.5 49.5968 4.5 49.6121 4.5 49.6275C4.5 49.6428 4.5 49.6582 4.5 49.6735C4.5 49.6888 4.5 49.7041 4.5 49.7194C4.5 49.7347 4.5 49.75 4.5 49.7652C4.5 49.7805 4.5 49.7957 4.5 49.8109C4.5 49.8262 4.5 49.8414 4.5 49.8566C4.5 49.8718 4.5 49.8869 4.5 49.9021C4.5 49.9173 4.5 49.9324 4.5 49.9475C4.5 49.9627 4.5 49.9778 4.5 49.9929C4.5 50.008 4.5 50.0231 4.5 50.0381C4.5 50.0532 4.5 50.0683 4.5 50.0833C4.5 50.0983 4.5 50.1134 4.5 50.1284C4.5 50.1434 4.5 50.1584 4.5 50.1733C4.5 50.1883 4.5 50.2033 4.5 50.2182C4.5 50.2332 4.5 50.2481 4.5 50.263C4.5 50.2779 4.5 50.2928 4.5 50.3077C4.5 50.3226 4.5 50.3374 4.5 50.3523C4.5 50.3671 4.5 50.382 4.5 50.3968C4.5 50.4116 4.5 50.4264 4.5 50.4412C4.5 50.456 4.5 50.4708 4.5 50.4855C4.5 50.5003 4.5 50.515 4.5 50.5298C4.5 50.5445 4.5 50.5592 4.5 50.5739C4.5 50.5886 4.5 50.6033 4.5 50.6179C4.5 50.6326 4.5 50.6472 4.5 50.6619C4.5 50.6765 4.5 50.6911 4.5 50.7057C4.5 50.7203 4.5 50.7349 4.5 50.7495C4.5 50.764 4.5 50.7786 4.5 50.7931C4.5 50.8077 4.5 50.8222 4.5 50.8367C4.5 50.8512 4.5 50.8657 4.5 50.8802C4.5 50.8946 4.5 50.9091 4.5 50.9236C4.5 50.938 4.5 50.9524 4.5 50.9668C4.5 50.9813 4.5 50.9957 4.5 51.01C4.5 51.0244 4.5 51.0388 4.5 51.0531C4.5 51.0675 4.5 51.0818 4.5 51.0961C4.5 51.1105 4.5 51.1248 4.5 51.1391C4.5 51.1534 4.5 51.1676 4.5 51.1819C4.5 51.1961 4.5 51.2104 4.5 51.2246C4.5 51.2388 4.5 51.253 4.5 51.2672C4.5 51.2814 4.5 51.2956 4.5 51.3098C4.5 51.3239 4.5 51.3381 4.5 51.3522C4.5 51.3664 4.5 51.3805 4.5 51.3946C4.5 51.4087 4.5 51.4228 4.5 51.4368C4.5 51.4509 4.5 51.465 4.5 51.479C4.5 51.493 4.5 51.5071 4.5 51.5211C4.5 51.5351 4.5 51.5491 4.5 51.563C4.5 51.577 4.5 51.591 4.5 51.6049C4.5 51.6189 4.5 51.6328 4.5 51.6467C4.5 51.6606 4.5 51.6745 4.5 51.6884C4.5 51.7023 4.5 51.7162 4.5 51.73C4.5 51.7439 4.5 51.7577 4.5 51.7715C4.5 51.7853 4.5 51.7991 4.5 51.8129C4.5 51.8267 4.5 51.8405 4.5 51.8543C4.5 51.868 4.5 51.8818 4.5 51.8955C4.5 51.9092 4.5 51.9229 4.5 51.9366C4.5 51.9503 4.5 51.964 4.5 51.9777C4.5 51.9913 4.5 52.005 4.5 52.0186C4.5 52.0322 4.5 52.0459 4.5 52.0595C4.5 52.0731 4.5 52.0866 4.5 52.1002C4.5 52.1138 4.5 52.1273 4.5 52.1409C4.5 52.1544 4.5 52.1679 4.5 52.1814C4.5 52.195 4.5 52.2084 4.5 52.2219C4.5 52.2354 4.5 52.2489 4.5 52.2623C4.5 52.2758 4.5 52.2892 4.5 52.3026C4.5 52.316 4.5 52.3294 4.5 52.3428C4.5 52.3562 4.5 52.3695 4.5 52.3829C4.5 52.3962 4.5 52.4096 4.5 52.4229C4.5 52.4362 4.5 52.4495 4.5 52.4628C4.5 52.4761 4.5 52.4894 4.5 52.5026C4.5 52.5159 4.5 52.5291 4.5 52.5424C4.5 52.5556 4.5 52.5688 4.5 52.582C4.5 52.5952 4.5 52.6084 4.5 52.6215C4.5 52.6347 4.5 52.6479 4.5 52.661C4.5 52.6741 4.5 52.6872 4.5 52.7003C4.5 52.7134 4.5 52.7265 4.5 52.7396C4.5 52.7527 4.5 52.7657 4.5 52.7788C4.5 52.7918 4.5 52.8048 4.5 52.8178C4.5 52.8308 4.5 52.8438 4.5 52.8568C4.5 52.8698 4.5 52.8827 4.5 52.8957C4.5 52.9086 4.5 52.9216 4.5 52.9345C4.5 52.9474 4.5 52.9603 4.5 52.9732C4.5 52.9861 4.5 52.9989 4.5 53.0118C4.5 53.0246 4.5 53.0375 4.5 53.0503C4.5 53.0631 4.5 53.0759 4.5 53.0887C4.5 53.1015 4.5 53.1143 4.5 53.127C4.5 53.1398 4.5 53.1525 4.5 53.1652C4.5 53.178 4.5 53.1907 4.5 53.2034C4.5 53.2161 4.5 53.2287 4.5 53.2414C4.5 53.2541 4.5 53.2667 4.5 53.2794C4.5 53.292 4.5 53.3046 4.5 53.3172C4.5 53.3298 4.5 53.3424 4.5 53.355C4.5 53.3675 4.5 53.3801 4.5 53.3926C4.5 53.4052 4.5 53.4177 4.5 53.4302C4.5 53.4427 4.5 53.4552 4.5 53.4677C4.5 53.4801 4.5 53.4926 4.5 53.505C4.5 53.5175 4.5 53.5299 4.5 53.5423C4.5 53.5547 4.5 53.5671 4.5 53.5795C4.5 53.5919 4.5 53.6043 4.5 53.6166C4.5 53.629 4.5 53.6413 4.5 53.6536C4.5 53.6659 4.5 53.6782 4.5 53.6905C4.5 53.7028 4.5 53.7151 4.5 53.7274C4.5 53.7396 4.5 53.7519 4.5 53.7641C4.5 53.7763 4.5 53.7885 4.5 53.8007C4.5 53.8129 4.5 53.8251 4.5 53.8372C4.5 53.8494 4.5 53.8616 4.5 53.8737C4.5 53.8858 4.5 53.8979 4.5 53.91C4.5 53.9221 4.5 53.9342 4.5 53.9463C4.5 53.9584 4.5 53.9704 4.5 53.9824C4.5 53.9945 4.5 54.0065 4.5 54.0185C4.5 54.0305 4.5 54.0425 4.5 54.0545C4.5 54.0665 4.5 54.0784 4.5 54.0904C4.5 54.1023 4.5 54.1142 4.5 54.1261C4.5 54.1381 4.5 54.15 4.5 54.1618C4.5 54.1737 4.5 54.1856 4.5 54.1974C4.5 54.2093 4.5 54.2211 4.5 54.2329C4.5 54.2448 4.5 54.2566 4.5 54.2683C4.5 54.2801 4.5 54.2919 4.5 54.3037C4.5 54.3154 4.5 54.3272 4.5 54.3389C4.5 54.3506 4.5 54.3623 4.5 54.374C4.5 54.3857 4.5 54.3974 4.5 54.409C4.5 54.4207 4.5 54.4323 4.5 54.444C4.5 54.4556 4.5 54.4672 4.5 54.4788C4.5 54.4904 4.5 54.502 4.5 54.5136C4.5 54.5251 4.5 54.5367 4.5 54.5482C4.5 54.5598 4.5 54.5713 4.5 54.5828C4.5 54.5943 4.5 54.6058 4.5 54.6173C4.5 54.6287 4.5 54.6402 4.5 54.6516C4.5 54.6631 4.5 54.6745 4.5 54.6859C4.5 54.6973 4.5 54.7087 4.5 54.7201C4.5 54.7315 4.5 54.7428 4.5 54.7542C4.5 54.7655 4.5 54.7769 4.5 54.7882C4.5 54.7995 4.5 54.8108 4.5 54.8221C4.5 54.8334 4.5 54.8446 4.5 54.8559C4.5 54.8671 4.5 54.8784 4.5 54.8896C4.5 54.9008 4.5 54.912 4.5 54.9232C4.5 54.9344 4.5 54.9456 4.5 54.9568C4.5 54.9679 4.5 54.9791 4.5 54.9902C4.5 55.0013 4.5 55.0124 4.5 55.0235C4.5 55.0346 4.5 55.0457 4.5 55.0568C4.5 55.0678 4.5 55.0789 4.5 55.0899C4.5 55.101 4.5 55.112 4.5 55.123C4.5 55.134 4.5 55.145 4.5 55.1559C4.5 55.1669 4.5 55.1779 4.5 55.1888C4.5 55.1998 4.5 55.2107 4.5 55.2216C4.5 55.2325 4.5 55.2434 4.5 55.2543C4.5 55.2651 4.5 55.276 4.5 55.2869C4.5 55.2977 4.5 55.3085 4.5 55.3194C4.5 55.3302 4.5 55.341 4.5 55.3517C4.5 55.3625 4.5 55.3733 4.5 55.3841C4.5 55.3948 4.5 55.4055 4.5 55.4163C4.5 55.427 4.5 55.4377 4.5 55.4484C4.5 55.4591 4.5 55.4697 4.5 55.4804C4.5 55.4911 4.5 55.5017 4.5 55.5123C4.5 55.523 4.5 55.5336 4.5 55.5442C4.5 55.5548 4.5 55.5653 4.5 55.5759C4.5 55.5865 4.5 55.597 4.5 55.6075C4.5 55.6181 4.5 55.6286 4.5 55.6391C4.5 55.6496 4.5 55.6601 4.5 55.6706C4.5 55.681 4.5 55.6915 4.5 55.7019C4.5 55.7124 4.5 55.7228 4.5 55.7332C4.5 55.7436 4.5 55.754 4.5 55.7644C4.5 55.7747 4.5 55.7851 4.5 55.7954C4.5 55.8058 4.5 55.8161 4.5 55.8264C4.5 55.8367 4.5 55.847 4.5 55.8573C4.5 55.8676 4.5 55.8779 4.5 55.8881C4.5 55.8984 4.5 55.9086 4.5 55.9188C4.5 55.929 4.5 55.9392 4.5 55.9494C4.5 55.9596 4.5 55.9698 4.5 55.9799C4.5 55.9901 4.5 56.0002 4.5 56.0104C4.5 56.0205 4.5 56.0306 4.5 56.0407C4.5 56.0508 4.5 56.0609 4.5 56.0709C4.5 56.081 4.5 56.091 4.5 56.1011C4.5 56.1111 4.5 56.1211 4.5 56.1311C4.5 56.1411 4.5 56.1511 4.5 56.1611C4.5 56.171 4.5 56.181 4.5 56.1909C4.5 56.2008 4.5 56.2108 4.5 56.2207C4.5 56.2306 4.5 56.2405 4.5 56.2503C4.5 56.2602 4.5 56.2701 4.5 56.2799C4.5 56.2898 4.5 56.2996 4.5 56.3094C4.5 56.3192 4.5 56.329 4.5 56.3388C4.5 56.3486 4.5 56.3583 4.5 56.3681C4.5 56.3778 4.5 56.3875 4.5 56.3973C4.5 56.407 4.5 56.4167 4.5 56.4264C4.5 56.436 4.5 56.4457 4.5 56.4554C4.5 56.465 4.5 56.4747 4.5 56.4843C4.5 56.4939 4.5 56.5035 4.5 56.5131C4.5 56.5227 4.5 56.5323 4.5 56.5418C4.5 56.5514 4.5 56.5609 4.5 56.5705C4.5 56.58 4.5 56.5895 4.5 56.599C4.5 56.6085 4.5 56.618 4.5 56.6274C4.5 56.6369 4.5 56.6463 4.5 56.6558C4.5 56.6652 4.5 56.6746 4.5 56.684C4.5 56.6934 4.5 56.7028 4.5 56.7122C4.5 56.7216 4.5 56.7309 4.5 56.7403C4.5 56.7496 4.5 56.7589 4.5 56.7682C4.5 56.7775 4.5 56.7868 4.5 56.7961C4.5 56.8054 4.5 56.8146 4.5 56.8239C4.5 56.8331 4.5 56.8424 4.5 56.8516C4.5 56.8608 4.5 56.87 4.5 56.8792C4.5 56.8883 4.5 56.8975 4.5 56.9067C4.5 56.9158 4.5 56.9249 4.5 56.9341C4.5 56.9432 4.5 56.9523 4.5 56.9614C4.5 56.9705 4.5 56.9795 4.5 56.9886C4.5 56.9976 4.5 57.0067 4.5 57.0157C4.5 57.0247 4.5 57.0337 4.5 57.0427C4.5 57.0517 4.5 57.0607 4.5 57.0697C4.5 57.0786 4.5 57.0876 4.5 57.0965C4.5 57.1054 4.5 57.1144 4.5 57.1233C4.5 57.1322 4.5 57.141 4.5 57.1499C4.5 57.1588 4.5 57.1676 4.5 57.1765C4.5 57.1853 4.5 57.1941 4.5 57.2029C4.5 57.2117 4.5 57.2205 4.5 57.2293C4.5 57.2381 4.5 57.2468 4.5 57.2556C4.5 57.2643 4.5 57.273 4.5 57.2817C4.5 57.2904 4.5 57.2991 4.5 57.3078C4.5 57.3165 4.5 57.3252 4.5 57.3338C4.5 57.3425 4.5 57.3511 4.5 57.3597C4.5 57.3683 4.5 57.3769 4.5 57.3855C4.5 57.3941 4.5 57.4026 4.5 57.4112C4.5 57.4198 4.5 57.4283 4.5 57.4368C4.5 57.4453 4.5 57.4538 4.5 57.4623C4.5 57.4708 4.5 57.4793 4.5 57.4878C4.5 57.4962 4.5 57.5047 4.5 57.5131C4.5 57.5215 4.5 57.5299 4.5 57.5383C4.5 57.5467 4.5 57.5551 4.5 57.5635C4.5 57.5718 4.5 57.5802 4.5 57.5885C4.5 57.5968 4.5 57.6051 4.5 57.6134C4.5 57.6217 4.5 57.63 4.5 57.6383C4.5 57.6466 4.5 57.6548 4.5 57.6631C4.5 57.6713 4.5 57.6795 4.5 57.6877C4.5 57.6959 4.5 57.7041 4.5 57.7123C4.5 57.7205 4.5 57.7286 4.5 57.7368C4.5 57.7449 4.5 57.753 4.5 57.7612C4.5 57.7693 4.5 57.7774 4.5 57.7854C4.5 57.7935 4.5 57.8016 4.5 57.8096C4.5 57.8177 4.5 57.8257 4.5 57.8337C4.5 57.8418 4.5 57.8498 4.5 57.8577C4.5 57.8657 4.5 57.8737 4.5 57.8817C4.5 57.8896 4.5 57.8976 4.5 57.9055C4.5 57.9134 4.5 57.9213 4.5 57.9292C4.5 57.9371 4.5 57.945 4.5 57.9528C4.5 57.9607 4.5 57.9685 4.5 57.9764C4.5 57.9842 4.5 57.992 4.5 57.9998C4.5 58.0076 4.5 58.0154 4.5 58.0231C4.5 58.0309 4.5 58.0387 4.5 58.0464C4.5 58.0541 4.5 58.0618 4.5 58.0695C4.5 58.0772 4.5 58.0849 4.5 58.0926C4.5 58.1003 4.5 58.1079 4.5 58.1156C4.5 58.1232 4.5 58.1308 4.5 58.1384C4.5 58.146 4.5 58.1536 4.5 58.1612C4.5 58.1688 4.5 58.1763 4.5 58.1839C4.5 58.1914 4.5 58.199 4.5 58.2065C4.5 58.214 4.5 58.2215 4.5 58.229C4.5 58.2365 4.5 58.2439 4.5 58.2514C4.5 58.2588 4.5 58.2663 4.5 58.2737C4.5 58.2811 4.5 58.2885 4.5 58.2959C4.5 58.3033 4.5 58.3106 4.5 58.318C4.5 58.3254 4.5 58.3327 4.5 58.34C4.5 58.3473 4.5 58.3547 4.5 58.3619C4.5 58.3692 4.5 58.3765 4.5 58.3838C4.5 58.391 4.5 58.3983 4.5 58.4055C4.5 58.4127 4.5 58.42 4.5 58.4272C4.5 58.4343 4.5 58.4415 4.5 58.4487C4.5 58.4559 4.5 58.463 4.5 58.4701C4.5 58.4773 4.5 58.4844 4.5 58.4915C4.5 58.4986 4.5 58.5057 4.5 58.5128C4.5 58.5198 4.5 58.5269 4.5 58.5339C4.5 58.541 4.5 58.548 4.5 58.555C4.5 58.562 4.5 58.569 4.5 58.576C4.5 58.583 4.5 58.5899 4.5 58.5969C4.5 58.6038 4.5 58.6108 4.5 58.6177C4.5 58.6246 4.5 58.6315 4.5 58.6384C4.5 58.6452 4.5 58.6521 4.5 58.659C4.5 58.6658 4.5 58.6726 4.5 58.6795C4.5 58.6863 4.5 58.6931 4.5 58.6999C4.5 58.7067 4.5 58.7134 4.5 58.7202C4.5 58.727 4.5 58.7337 4.5 58.7404C4.5 58.7471 4.5 58.7539 4.5 58.7605C4.5 58.7672 4.5 58.7739 4.5 58.7806C4.5 58.7872 4.5 58.7939 4.5 58.8005C4.5 58.8071 4.5 58.8138 4.5 58.8204C4.5 58.827 4.5 58.8335 4.5 58.8401C4.5 58.8467 4.5 58.8532 4.5 58.8598C4.5 58.8663 4.5 58.8728 4.5 58.8793C4.5 58.8858 4.5 58.8923 4.5 58.8988C4.5 58.9053 4.5 58.9117 4.5 58.9182C4.5 58.9246 4.5 58.931 4.5 58.9374C4.5 58.9438 4.5 58.9502 4.5 58.9566C4.5 58.963 4.5 58.9694 4.5 58.9757C4.5 58.982 4.5 58.9884 4.5 58.9947C4.5 59.001 4.5 59.0073 4.5 59.0136C4.5 59.0199 4.5 59.0261 4.5 59.0324C4.5 59.0386 4.5 59.0449 4.5 59.0511C4.5 59.0573 4.5 59.0635 4.5 59.0697C4.5 59.0759 4.5 59.0821 4.5 59.0882C4.5 59.0944 4.5 59.1005 4.5 59.1066C4.5 59.1128 4.5 59.1189 4.5 59.125C4.5 59.1311 4.5 59.1371 4.5 59.1432C4.5 59.1493 4.5 59.1553 4.5 59.1613C4.5 59.1674 4.5 59.1734 4.5 59.1794C4.5 59.1854 4.5 59.1914 4.5 59.1973C4.5 59.2033 4.5 59.2093 4.5 59.2152C4.5 59.2211 4.5 59.227 4.5 59.233C4.5 59.2389 4.5 59.2447 4.5 59.2506C4.5 59.2565 4.5 59.2623 4.5 59.2682C4.5 59.274 4.5 59.2799 4.5 59.2857C4.5 59.2915 4.5 59.2973 4.5 59.303C4.5 59.3088 4.5 59.3146 4.5 59.3203C4.5 59.3261 4.5 59.3318 4.5 59.3375C4.5 59.3432 4.5 59.3489 4.5 59.3546C4.5 59.3603 4.5 59.366 4.5 59.3716C4.5 59.3773 4.5 59.3829 4.5 59.3885C4.5 59.3941 4.5 59.3997 4.5 59.4053C4.5 59.4109 4.5 59.4165 4.5 59.4221C4.5 59.4276 4.5 59.4331 4.5 59.4387C4.5 59.4442 4.5 59.4497 4.5 59.4552C4.5 59.4607 4.5 59.4662 4.5 59.4716C4.5 59.4771 4.5 59.4825 4.5 59.488C4.5 59.4934 4.5 59.4988 4.5 59.5042C4.5 59.5096 4.5 59.515 4.5 59.5204C4.5 59.5257 4.5 59.5311 4.5 59.5364C4.5 59.5417 4.5 59.5471 4.5 59.5524C4.5 59.5577 4.5 59.563 4.5 59.5682C4.5 59.5735 4.5 59.5788 4.5 59.584C4.5 59.5892 4.5 59.5945 4.5 59.5997C4.5 59.6049 4.5 59.6101 4.5 59.6153C4.5 59.6204 4.5 59.6256 4.5 59.6307C4.5 59.6359 4.5 59.641 4.5 59.6461C4.5 59.6512 4.5 59.6563 4.5 59.6614C4.5 59.6665 4.5 59.6716 4.5 59.6766C4.5 59.6817 4.5 59.6867 4.5 59.6917C4.5 59.6967 4.5 59.7017 4.5 59.7067C4.5 59.7117 4.5 59.7167 4.5 59.7216C4.5 59.7266 4.5 59.7315 4.5 59.7365C4.5 59.7414 4.5 59.7463 4.5 59.7512C4.5 59.7561 4.5 59.761 4.5 59.7658C4.5 59.7707 4.5 59.7755 4.5 59.7804C4.5 59.7852 4.5 59.79 4.5 59.7948C4.5 59.7996 4.5 59.8044 4.5 59.8091C4.5 59.8139 4.5 59.8187 4.5 59.8234C4.5 59.8281 4.5 59.8328 4.5 59.8375C4.5 59.8422 4.5 59.8469 4.5 59.8516C4.5 59.8563 4.5 59.8609 4.5 59.8656C4.5 59.8702 4.5 59.8748 4.5 59.8794C4.5 59.884 4.5 59.8886 4.5 59.8932C4.5 59.8978 4.5 59.9024 4.5 59.9069C4.5 59.9114 4.5 59.916 4.5 59.9205C4.5 59.925 4.5 59.9295 4.5 59.934C4.5 59.9385 4.5 59.9429 4.5 59.9474C4.5 59.9518 4.5 59.9562 4.5 59.9607C4.5 59.9651 4.5 59.9695 4.5 59.9739C4.5 59.9783 4.5 59.9826 4.5 59.987C4.5 59.9913 4.5 59.9957 4.5 60H3.5C3.5 59.9957 3.5 59.9913 3.5 59.987C3.5 59.9826 3.5 59.9783 3.5 59.9739C3.5 59.9695 3.5 59.9651 3.5 59.9607C3.5 59.9562 3.5 59.9518 3.5 59.9474C3.5 59.9429 3.5 59.9385 3.5 59.934C3.5 59.9295 3.5 59.925 3.5 59.9205C3.5 59.916 3.5 59.9114 3.5 59.9069C3.5 59.9024 3.5 59.8978 3.5 59.8932C3.5 59.8886 3.5 59.884 3.5 59.8794C3.5 59.8748 3.5 59.8702 3.5 59.8656C3.5 59.8609 3.5 59.8563 3.5 59.8516C3.5 59.8469 3.5 59.8422 3.5 59.8375C3.5 59.8328 3.5 59.8281 3.5 59.8234C3.5 59.8187 3.5 59.8139 3.5 59.8091C3.5 59.8044 3.5 59.7996 3.5 59.7948C3.5 59.79 3.5 59.7852 3.5 59.7804C3.5 59.7755 3.5 59.7707 3.5 59.7658C3.5 59.761 3.5 59.7561 3.5 59.7512C3.5 59.7463 3.5 59.7414 3.5 59.7365C3.5 59.7315 3.5 59.7266 3.5 59.7216C3.5 59.7167 3.5 59.7117 3.5 59.7067C3.5 59.7017 3.5 59.6967 3.5 59.6917C3.5 59.6867 3.5 59.6817 3.5 59.6766C3.5 59.6716 3.5 59.6665 3.5 59.6614C3.5 59.6563 3.5 59.6512 3.5 59.6461C3.5 59.641 3.5 59.6359 3.5 59.6307C3.5 59.6256 3.5 59.6204 3.5 59.6153C3.5 59.6101 3.5 59.6049 3.5 59.5997C3.5 59.5945 3.5 59.5892 3.5 59.584C3.5 59.5788 3.5 59.5735 3.5 59.5682C3.5 59.563 3.5 59.5577 3.5 59.5524C3.5 59.5471 3.5 59.5417 3.5 59.5364C3.5 59.5311 3.5 59.5257 3.5 59.5204C3.5 59.515 3.5 59.5096 3.5 59.5042C3.5 59.4988 3.5 59.4934 3.5 59.488C3.5 59.4825 3.5 59.4771 3.5 59.4716C3.5 59.4662 3.5 59.4607 3.5 59.4552C3.5 59.4497 3.5 59.4442 3.5 59.4387C3.5 59.4331 3.5 59.4276 3.5 59.4221C3.5 59.4165 3.5 59.4109 3.5 59.4053C3.5 59.3997 3.5 59.3941 3.5 59.3885C3.5 59.3829 3.5 59.3773 3.5 59.3716C3.5 59.366 3.5 59.3603 3.5 59.3546C3.5 59.3489 3.5 59.3432 3.5 59.3375C3.5 59.3318 3.5 59.3261 3.5 59.3203C3.5 59.3146 3.5 59.3088 3.5 59.303C3.5 59.2973 3.5 59.2915 3.5 59.2857C3.5 59.2799 3.5 59.274 3.5 59.2682C3.5 59.2623 3.5 59.2565 3.5 59.2506C3.5 59.2447 3.5 59.2389 3.5 59.233C3.5 59.227 3.5 59.2211 3.5 59.2152C3.5 59.2093 3.5 59.2033 3.5 59.1973C3.5 59.1914 3.5 59.1854 3.5 59.1794C3.5 59.1734 3.5 59.1674 3.5 59.1613C3.5 59.1553 3.5 59.1493 3.5 59.1432C3.5 59.1371 3.5 59.1311 3.5 59.125C3.5 59.1189 3.5 59.1128 3.5 59.1066C3.5 59.1005 3.5 59.0944 3.5 59.0882C3.5 59.0821 3.5 59.0759 3.5 59.0697C3.5 59.0635 3.5 59.0573 3.5 59.0511C3.5 59.0449 3.5 59.0386 3.5 59.0324C3.5 59.0261 3.5 59.0199 3.5 59.0136C3.5 59.0073 3.5 59.001 3.5 58.9947C3.5 58.9884 3.5 58.982 3.5 58.9757C3.5 58.9694 3.5 58.963 3.5 58.9566C3.5 58.9502 3.5 58.9438 3.5 58.9374C3.5 58.931 3.5 58.9246 3.5 58.9182C3.5 58.9117 3.5 58.9053 3.5 58.8988C3.5 58.8923 3.5 58.8858 3.5 58.8793C3.5 58.8728 3.5 58.8663 3.5 58.8598C3.5 58.8532 3.5 58.8467 3.5 58.8401C3.5 58.8335 3.5 58.827 3.5 58.8204C3.5 58.8138 3.5 58.8071 3.5 58.8005C3.5 58.7939 3.5 58.7872 3.5 58.7806C3.5 58.7739 3.5 58.7672 3.5 58.7605C3.5 58.7539 3.5 58.7471 3.5 58.7404C3.5 58.7337 3.5 58.727 3.5 58.7202C3.5 58.7134 3.5 58.7067 3.5 58.6999C3.5 58.6931 3.5 58.6863 3.5 58.6795C3.5 58.6726 3.5 58.6658 3.5 58.659C3.5 58.6521 3.5 58.6452 3.5 58.6384C3.5 58.6315 3.5 58.6246 3.5 58.6177C3.5 58.6108 3.5 58.6038 3.5 58.5969C3.5 58.5899 3.5 58.583 3.5 58.576C3.5 58.569 3.5 58.562 3.5 58.555C3.5 58.548 3.5 58.541 3.5 58.5339C3.5 58.5269 3.5 58.5198 3.5 58.5128C3.5 58.5057 3.5 58.4986 3.5 58.4915C3.5 58.4844 3.5 58.4773 3.5 58.4701C3.5 58.463 3.5 58.4559 3.5 58.4487C3.5 58.4415 3.5 58.4343 3.5 58.4272C3.5 58.42 3.5 58.4127 3.5 58.4055C3.5 58.3983 3.5 58.391 3.5 58.3838C3.5 58.3765 3.5 58.3692 3.5 58.3619C3.5 58.3547 3.5 58.3473 3.5 58.34C3.5 58.3327 3.5 58.3254 3.5 58.318C3.5 58.3106 3.5 58.3033 3.5 58.2959C3.5 58.2885 3.5 58.2811 3.5 58.2737C3.5 58.2663 3.5 58.2588 3.5 58.2514C3.5 58.2439 3.5 58.2365 3.5 58.229C3.5 58.2215 3.5 58.214 3.5 58.2065C3.5 58.199 3.5 58.1914 3.5 58.1839C3.5 58.1763 3.5 58.1688 3.5 58.1612C3.5 58.1536 3.5 58.146 3.5 58.1384C3.5 58.1308 3.5 58.1232 3.5 58.1156C3.5 58.1079 3.5 58.1003 3.5 58.0926C3.5 58.0849 3.5 58.0772 3.5 58.0695C3.5 58.0618 3.5 58.0541 3.5 58.0464C3.5 58.0387 3.5 58.0309 3.5 58.0231C3.5 58.0154 3.5 58.0076 3.5 57.9998C3.5 57.992 3.5 57.9842 3.5 57.9764C3.5 57.9685 3.5 57.9607 3.5 57.9528C3.5 57.945 3.5 57.9371 3.5 57.9292C3.5 57.9213 3.5 57.9134 3.5 57.9055C3.5 57.8976 3.5 57.8896 3.5 57.8817C3.5 57.8737 3.5 57.8657 3.5 57.8577C3.5 57.8498 3.5 57.8418 3.5 57.8337C3.5 57.8257 3.5 57.8177 3.5 57.8096C3.5 57.8016 3.5 57.7935 3.5 57.7854C3.5 57.7774 3.5 57.7693 3.5 57.7612C3.5 57.753 3.5 57.7449 3.5 57.7368C3.5 57.7286 3.5 57.7205 3.5 57.7123C3.5 57.7041 3.5 57.6959 3.5 57.6877C3.5 57.6795 3.5 57.6713 3.5 57.6631C3.5 57.6548 3.5 57.6466 3.5 57.6383C3.5 57.63 3.5 57.6217 3.5 57.6134C3.5 57.6051 3.5 57.5968 3.5 57.5885C3.5 57.5802 3.5 57.5718 3.5 57.5635C3.5 57.5551 3.5 57.5467 3.5 57.5383C3.5 57.5299 3.5 57.5215 3.5 57.5131C3.5 57.5047 3.5 57.4962 3.5 57.4878C3.5 57.4793 3.5 57.4708 3.5 57.4623C3.5 57.4538 3.5 57.4453 3.5 57.4368C3.5 57.4283 3.5 57.4198 3.5 57.4112C3.5 57.4026 3.5 57.3941 3.5 57.3855C3.5 57.3769 3.5 57.3683 3.5 57.3597C3.5 57.3511 3.5 57.3425 3.5 57.3338C3.5 57.3252 3.5 57.3165 3.5 57.3078C3.5 57.2991 3.5 57.2904 3.5 57.2817C3.5 57.273 3.5 57.2643 3.5 57.2556C3.5 57.2468 3.5 57.2381 3.5 57.2293C3.5 57.2205 3.5 57.2117 3.5 57.2029C3.5 57.1941 3.5 57.1853 3.5 57.1765C3.5 57.1676 3.5 57.1588 3.5 57.1499C3.5 57.141 3.5 57.1322 3.5 57.1233C3.5 57.1144 3.5 57.1054 3.5 57.0965C3.5 57.0876 3.5 57.0786 3.5 57.0697C3.5 57.0607 3.5 57.0517 3.5 57.0427C3.5 57.0337 3.5 57.0247 3.5 57.0157C3.5 57.0067 3.5 56.9976 3.5 56.9886C3.5 56.9795 3.5 56.9705 3.5 56.9614C3.5 56.9523 3.5 56.9432 3.5 56.9341C3.5 56.9249 3.5 56.9158 3.5 56.9067C3.5 56.8975 3.5 56.8883 3.5 56.8792C3.5 56.87 3.5 56.8608 3.5 56.8516C3.5 56.8424 3.5 56.8331 3.5 56.8239C3.5 56.8146 3.5 56.8054 3.5 56.7961C3.5 56.7868 3.5 56.7775 3.5 56.7682C3.5 56.7589 3.5 56.7496 3.5 56.7403C3.5 56.7309 3.5 56.7216 3.5 56.7122C3.5 56.7028 3.5 56.6934 3.5 56.684C3.5 56.6746 3.5 56.6652 3.5 56.6558C3.5 56.6463 3.5 56.6369 3.5 56.6274C3.5 56.618 3.5 56.6085 3.5 56.599C3.5 56.5895 3.5 56.58 3.5 56.5705C3.5 56.5609 3.5 56.5514 3.5 56.5418C3.5 56.5323 3.5 56.5227 3.5 56.5131C3.5 56.5035 3.5 56.4939 3.5 56.4843C3.5 56.4747 3.5 56.465 3.5 56.4554C3.5 56.4457 3.5 56.436 3.5 56.4264C3.5 56.4167 3.5 56.407 3.5 56.3973C3.5 56.3875 3.5 56.3778 3.5 56.3681C3.5 56.3583 3.5 56.3486 3.5 56.3388C3.5 56.329 3.5 56.3192 3.5 56.3094C3.5 56.2996 3.5 56.2898 3.5 56.2799C3.5 56.2701 3.5 56.2602 3.5 56.2503C3.5 56.2405 3.5 56.2306 3.5 56.2207C3.5 56.2108 3.5 56.2008 3.5 56.1909C3.5 56.181 3.5 56.171 3.5 56.1611C3.5 56.1511 3.5 56.1411 3.5 56.1311C3.5 56.1211 3.5 56.1111 3.5 56.1011C3.5 56.091 3.5 56.081 3.5 56.0709C3.5 56.0609 3.5 56.0508 3.5 56.0407C3.5 56.0306 3.5 56.0205 3.5 56.0104C3.5 56.0002 3.5 55.9901 3.5 55.9799C3.5 55.9698 3.5 55.9596 3.5 55.9494C3.5 55.9392 3.5 55.929 3.5 55.9188C3.5 55.9086 3.5 55.8984 3.5 55.8881C3.5 55.8779 3.5 55.8676 3.5 55.8573C3.5 55.847 3.5 55.8367 3.5 55.8264C3.5 55.8161 3.5 55.8058 3.5 55.7954C3.5 55.7851 3.5 55.7747 3.5 55.7644C3.5 55.754 3.5 55.7436 3.5 55.7332C3.5 55.7228 3.5 55.7124 3.5 55.7019C3.5 55.6915 3.5 55.681 3.5 55.6706C3.5 55.6601 3.5 55.6496 3.5 55.6391C3.5 55.6286 3.5 55.6181 3.5 55.6075C3.5 55.597 3.5 55.5865 3.5 55.5759C3.5 55.5653 3.5 55.5548 3.5 55.5442C3.5 55.5336 3.5 55.523 3.5 55.5123C3.5 55.5017 3.5 55.4911 3.5 55.4804C3.5 55.4697 3.5 55.4591 3.5 55.4484C3.5 55.4377 3.5 55.427 3.5 55.4163C3.5 55.4055 3.5 55.3948 3.5 55.3841C3.5 55.3733 3.5 55.3625 3.5 55.3517C3.5 55.341 3.5 55.3302 3.5 55.3194C3.5 55.3085 3.5 55.2977 3.5 55.2869C3.5 55.276 3.5 55.2651 3.5 55.2543C3.5 55.2434 3.5 55.2325 3.5 55.2216C3.5 55.2107 3.5 55.1998 3.5 55.1888C3.5 55.1779 3.5 55.1669 3.5 55.1559C3.5 55.145 3.5 55.134 3.5 55.123C3.5 55.112 3.5 55.101 3.5 55.0899C3.5 55.0789 3.5 55.0678 3.5 55.0568C3.5 55.0457 3.5 55.0346 3.5 55.0235C3.5 55.0124 3.5 55.0013 3.5 54.9902C3.5 54.9791 3.5 54.9679 3.5 54.9568C3.5 54.9456 3.5 54.9344 3.5 54.9232C3.5 54.912 3.5 54.9008 3.5 54.8896C3.5 54.8784 3.5 54.8671 3.5 54.8559C3.5 54.8446 3.5 54.8334 3.5 54.8221C3.5 54.8108 3.5 54.7995 3.5 54.7882C3.5 54.7769 3.5 54.7655 3.5 54.7542C3.5 54.7428 3.5 54.7315 3.5 54.7201C3.5 54.7087 3.5 54.6973 3.5 54.6859C3.5 54.6745 3.5 54.6631 3.5 54.6516C3.5 54.6402 3.5 54.6287 3.5 54.6173C3.5 54.6058 3.5 54.5943 3.5 54.5828C3.5 54.5713 3.5 54.5598 3.5 54.5482C3.5 54.5367 3.5 54.5251 3.5 54.5136C3.5 54.502 3.5 54.4904 3.5 54.4788C3.5 54.4672 3.5 54.4556 3.5 54.444C3.5 54.4323 3.5 54.4207 3.5 54.409C3.5 54.3974 3.5 54.3857 3.5 54.374C3.5 54.3623 3.5 54.3506 3.5 54.3389C3.5 54.3272 3.5 54.3154 3.5 54.3037C3.5 54.2919 3.5 54.2801 3.5 54.2683C3.5 54.2566 3.5 54.2448 3.5 54.2329C3.5 54.2211 3.5 54.2093 3.5 54.1974C3.5 54.1856 3.5 54.1737 3.5 54.1618C3.5 54.15 3.5 54.1381 3.5 54.1261C3.5 54.1142 3.5 54.1023 3.5 54.0904C3.5 54.0784 3.5 54.0665 3.5 54.0545C3.5 54.0425 3.5 54.0305 3.5 54.0185C3.5 54.0065 3.5 53.9945 3.5 53.9824C3.5 53.9704 3.5 53.9584 3.5 53.9463C3.5 53.9342 3.5 53.9221 3.5 53.91C3.5 53.8979 3.5 53.8858 3.5 53.8737C3.5 53.8616 3.5 53.8494 3.5 53.8372C3.5 53.8251 3.5 53.8129 3.5 53.8007C3.5 53.7885 3.5 53.7763 3.5 53.7641C3.5 53.7519 3.5 53.7396 3.5 53.7274C3.5 53.7151 3.5 53.7028 3.5 53.6905C3.5 53.6782 3.5 53.6659 3.5 53.6536C3.5 53.6413 3.5 53.629 3.5 53.6166C3.5 53.6043 3.5 53.5919 3.5 53.5795C3.5 53.5671 3.5 53.5547 3.5 53.5423C3.5 53.5299 3.5 53.5175 3.5 53.505C3.5 53.4926 3.5 53.4801 3.5 53.4677C3.5 53.4552 3.5 53.4427 3.5 53.4302C3.5 53.4177 3.5 53.4052 3.5 53.3926C3.5 53.3801 3.5 53.3675 3.5 53.355C3.5 53.3424 3.5 53.3298 3.5 53.3172C3.5 53.3046 3.5 53.292 3.5 53.2794C3.5 53.2667 3.5 53.2541 3.5 53.2414C3.5 53.2287 3.5 53.2161 3.5 53.2034C3.5 53.1907 3.5 53.178 3.5 53.1652C3.5 53.1525 3.5 53.1398 3.5 53.127C3.5 53.1143 3.5 53.1015 3.5 53.0887C3.5 53.0759 3.5 53.0631 3.5 53.0503C3.5 53.0375 3.5 53.0246 3.5 53.0118C3.5 52.9989 3.5 52.9861 3.5 52.9732C3.5 52.9603 3.5 52.9474 3.5 52.9345C3.5 52.9216 3.5 52.9086 3.5 52.8957C3.5 52.8827 3.5 52.8698 3.5 52.8568C3.5 52.8438 3.5 52.8308 3.5 52.8178C3.5 52.8048 3.5 52.7918 3.5 52.7788C3.5 52.7657 3.5 52.7527 3.5 52.7396C3.5 52.7265 3.5 52.7134 3.5 52.7003C3.5 52.6872 3.5 52.6741 3.5 52.661C3.5 52.6479 3.5 52.6347 3.5 52.6215C3.5 52.6084 3.5 52.5952 3.5 52.582C3.5 52.5688 3.5 52.5556 3.5 52.5424C3.5 52.5291 3.5 52.5159 3.5 52.5026C3.5 52.4894 3.5 52.4761 3.5 52.4628C3.5 52.4495 3.5 52.4362 3.5 52.4229C3.5 52.4096 3.5 52.3962 3.5 52.3829C3.5 52.3695 3.5 52.3562 3.5 52.3428C3.5 52.3294 3.5 52.316 3.5 52.3026C3.5 52.2892 3.5 52.2758 3.5 52.2623C3.5 52.2489 3.5 52.2354 3.5 52.2219C3.5 52.2084 3.5 52.195 3.5 52.1814C3.5 52.1679 3.5 52.1544 3.5 52.1409C3.5 52.1273 3.5 52.1138 3.5 52.1002C3.5 52.0866 3.5 52.0731 3.5 52.0595C3.5 52.0459 3.5 52.0322 3.5 52.0186C3.5 52.005 3.5 51.9913 3.5 51.9777C3.5 51.964 3.5 51.9503 3.5 51.9366C3.5 51.9229 3.5 51.9092 3.5 51.8955C3.5 51.8818 3.5 51.868 3.5 51.8543C3.5 51.8405 3.5 51.8267 3.5 51.8129C3.5 51.7991 3.5 51.7853 3.5 51.7715C3.5 51.7577 3.5 51.7439 3.5 51.73C3.5 51.7162 3.5 51.7023 3.5 51.6884C3.5 51.6745 3.5 51.6606 3.5 51.6467C3.5 51.6328 3.5 51.6189 3.5 51.6049C3.5 51.591 3.5 51.577 3.5 51.563C3.5 51.5491 3.5 51.5351 3.5 51.5211C3.5 51.5071 3.5 51.493 3.5 51.479C3.5 51.465 3.5 51.4509 3.5 51.4368C3.5 51.4228 3.5 51.4087 3.5 51.3946C3.5 51.3805 3.5 51.3664 3.5 51.3522C3.5 51.3381 3.5 51.3239 3.5 51.3098C3.5 51.2956 3.5 51.2814 3.5 51.2672C3.5 51.253 3.5 51.2388 3.5 51.2246C3.5 51.2104 3.5 51.1961 3.5 51.1819C3.5 51.1676 3.5 51.1534 3.5 51.1391C3.5 51.1248 3.5 51.1105 3.5 51.0961C3.5 51.0818 3.5 51.0675 3.5 51.0531C3.5 51.0388 3.5 51.0244 3.5 51.01C3.5 50.9957 3.5 50.9813 3.5 50.9668C3.5 50.9524 3.5 50.938 3.5 50.9236C3.5 50.9091 3.5 50.8946 3.5 50.8802C3.5 50.8657 3.5 50.8512 3.5 50.8367C3.5 50.8222 3.5 50.8077 3.5 50.7931C3.5 50.7786 3.5 50.764 3.5 50.7495C3.5 50.7349 3.5 50.7203 3.5 50.7057C3.5 50.6911 3.5 50.6765 3.5 50.6619C3.5 50.6472 3.5 50.6326 3.5 50.6179C3.5 50.6033 3.5 50.5886 3.5 50.5739C3.5 50.5592 3.5 50.5445 3.5 50.5298C3.5 50.515 3.5 50.5003 3.5 50.4855C3.5 50.4708 3.5 50.456 3.5 50.4412C3.5 50.4264 3.5 50.4116 3.5 50.3968C3.5 50.382 3.5 50.3671 3.5 50.3523C3.5 50.3374 3.5 50.3226 3.5 50.3077C3.5 50.2928 3.5 50.2779 3.5 50.263C3.5 50.2481 3.5 50.2332 3.5 50.2182C3.5 50.2033 3.5 50.1883 3.5 50.1733C3.5 50.1584 3.5 50.1434 3.5 50.1284C3.5 50.1134 3.5 50.0983 3.5 50.0833C3.5 50.0683 3.5 50.0532 3.5 50.0381C3.5 50.0231 3.5 50.008 3.5 49.9929C3.5 49.9778 3.5 49.9627 3.5 49.9475C3.5 49.9324 3.5 49.9173 3.5 49.9021C3.5 49.8869 3.5 49.8718 3.5 49.8566C3.5 49.8414 3.5 49.8262 3.5 49.8109C3.5 49.7957 3.5 49.7805 3.5 49.7652C3.5 49.75 3.5 49.7347 3.5 49.7194C3.5 49.7041 3.5 49.6888 3.5 49.6735C3.5 49.6582 3.5 49.6428 3.5 49.6275C3.5 49.6121 3.5 49.5968 3.5 49.5814C3.5 49.566 3.5 49.5506 3.5 49.5352C3.5 49.5198 3.5 49.5044 3.5 49.4889C3.5 49.4735 3.5 49.458 3.5 49.4426C3.5 49.4271 3.5 49.4116 3.5 49.3961C3.5 49.3806 3.5 49.3651 3.5 49.3495C3.5 49.334 3.5 49.3184 3.5 49.3029C3.5 49.2873 3.5 49.2717 3.5 49.2561C3.5 49.2405 3.5 49.2249 3.5 49.2093C3.5 49.1936 3.5 49.178 3.5 49.1623C3.5 49.1467 3.5 49.131 3.5 49.1153C3.5 49.0996 3.5 49.0839 3.5 49.0682C3.5 49.0525 3.5 49.0367 3.5 49.021C3.5 49.0052 3.5 48.9894 3.5 48.9737C3.5 48.9579 3.5 48.9421 3.5 48.9263C3.5 48.9104 3.5 48.8946 3.5 48.8788C3.5 48.8629 3.5 48.847 3.5 48.8312C3.5 48.8153 3.5 48.7994 3.5 48.7835C3.5 48.7676 3.5 48.7516 3.5 48.7357C3.5 48.7198 3.5 48.7038 3.5 48.6878C3.5 48.6719 3.5 48.6559 3.5 48.6399C3.5 48.6239 3.5 48.6078 3.5 48.5918C3.5 48.5758 3.5 48.5597 3.5 48.5437C3.5 48.5276 3.5 48.5115 3.5 48.4954C3.5 48.4793 3.5 48.4632 3.5 48.4471C3.5 48.4309 3.5 48.4148 3.5 48.3986C3.5 48.3825 3.5 48.3663 3.5 48.3501C3.5 48.3339 3.5 48.3177 3.5 48.3015C3.5 48.2853 3.5 48.269 3.5 48.2528C3.5 48.2365 3.5 48.2203 3.5 48.204C3.5 48.1877 3.5 48.1714 3.5 48.1551C3.5 48.1388 3.5 48.1224 3.5 48.1061C3.5 48.0897 3.5 48.0734 3.5 48.057C3.5 48.0406 3.5 48.0242 3.5 48.0078C3.5 47.9914 3.5 47.975 3.5 47.9586C3.5 47.9421 3.5 47.9257 3.5 47.9092C3.5 47.8927 3.5 47.8762 3.5 47.8597C3.5 47.8432 3.5 47.8267 3.5 47.8102C3.5 47.7936 3.5 47.7771 3.5 47.7605C3.5 47.744 3.5 47.7274 3.5 47.7108C3.5 47.6942 3.5 47.6776 3.5 47.661C3.5 47.6443 3.5 47.6277 3.5 47.611C3.5 47.5944 3.5 47.5777 3.5 47.561C3.5 47.5443 3.5 47.5276 3.5 47.5109C3.5 47.4942 3.5 47.4775 3.5 47.4607C3.5 47.444 3.5 47.4272 3.5 47.4104C3.5 47.3936 3.5 47.3768 3.5 47.36C3.5 47.3432 3.5 47.3264 3.5 47.3095C3.5 47.2927 3.5 47.2758 3.5 47.2589C3.5 47.2421 3.5 47.2252 3.5 47.2083C3.5 47.1914 3.5 47.1744 3.5 47.1575C3.5 47.1406 3.5 47.1236 3.5 47.1067C3.5 47.0897 3.5 47.0727 3.5 47.0557C3.5 47.0387 3.5 47.0217 3.5 47.0047C3.5 46.9876 3.5 46.9706 3.5 46.9535C3.5 46.9365 3.5 46.9194 3.5 46.9023C3.5 46.8852 3.5 46.8681 3.5 46.851C3.5 46.8338 3.5 46.8167 3.5 46.7995C3.5 46.7824 3.5 46.7652 3.5 46.748C3.5 46.7308 3.5 46.7136 3.5 46.6964C3.5 46.6792 3.5 46.662 3.5 46.6447C3.5 46.6275 3.5 46.6102 3.5 46.5929C3.5 46.5757 3.5 46.5584 3.5 46.5411C3.5 46.5237 3.5 46.5064 3.5 46.4891C3.5 46.4717 3.5 46.4544 3.5 46.437C3.5 46.4196 3.5 46.4022 3.5 46.3848C3.5 46.3674 3.5 46.35 3.5 46.3326C3.5 46.3152 3.5 46.2977 3.5 46.2802C3.5 46.2628 3.5 46.2453 3.5 46.2278C3.5 46.2103 3.5 46.1928 3.5 46.1753C3.5 46.1577 3.5 46.1402 3.5 46.1226C3.5 46.1051 3.5 46.0875 3.5 46.0699C3.5 46.0523 3.5 46.0347 3.5 46.0171C3.5 45.9995 3.5 45.9818 3.5 45.9642C3.5 45.9465 3.5 45.9289 3.5 45.9112C3.5 45.8935 3.5 45.8758 3.5 45.8581C3.5 45.8404 3.5 45.8226 3.5 45.8049C3.5 45.7871 3.5 45.7694 3.5 45.7516C3.5 45.7338 3.5 45.716 3.5 45.6982C3.5 45.6804 3.5 45.6626 3.5 45.6448C3.5 45.6269 3.5 45.6091 3.5 45.5912C3.5 45.5733 3.5 45.5554 3.5 45.5375C3.5 45.5196 3.5 45.5017 3.5 45.4838C3.5 45.4659 3.5 45.4479 3.5 45.4299C3.5 45.412 3.5 45.394 3.5 45.376C3.5 45.358 3.5 45.34 3.5 45.322C3.5 45.304 3.5 45.2859 3.5 45.2679C3.5 45.2498 3.5 45.2317 3.5 45.2136C3.5 45.1956 3.5 45.1775 3.5 45.1593C3.5 45.1412 3.5 45.1231 3.5 45.1049C3.5 45.0868 3.5 45.0686 3.5 45.0504C3.5 45.0323 3.5 45.0141 3.5 44.9959C3.5 44.9776 3.5 44.9594 3.5 44.9412C3.5 44.9229 3.5 44.9047 3.5 44.8864C3.5 44.8681 3.5 44.8498 3.5 44.8315C3.5 44.8132 3.5 44.7949 3.5 44.7766C3.5 44.7582 3.5 44.7399 3.5 44.7215C3.5 44.7032 3.5 44.6848 3.5 44.6664C3.5 44.648 3.5 44.6296 3.5 44.6111C3.5 44.5927 3.5 44.5743 3.5 44.5558C3.5 44.5374 3.5 44.5189 3.5 44.5004C3.5 44.4819 3.5 44.4634 3.5 44.4449C3.5 44.4263 3.5 44.4078 3.5 44.3893C3.5 44.3707 3.5 44.3521 3.5 44.3336C3.5 44.315 3.5 44.2964 3.5 44.2778C3.5 44.2591 3.5 44.2405 3.5 44.2219C3.5 44.2032 3.5 44.1846 3.5 44.1659C3.5 44.1472 3.5 44.1285 3.5 44.1098C3.5 44.0911 3.5 44.0724 3.5 44.0536C3.5 44.0349 3.5 44.0161 3.5 43.9974C3.5 43.9786 3.5 43.9598 3.5 43.941C3.5 43.9222 3.5 43.9034 3.5 43.8846C3.5 43.8657 3.5 43.8469 3.5 43.828C3.5 43.8092 3.5 43.7903 3.5 43.7714C3.5 43.7525 3.5 43.7336 3.5 43.7147C3.5 43.6957 3.5 43.6768 3.5 43.6578C3.5 43.6389 3.5 43.6199 3.5 43.6009C3.5 43.5819 3.5 43.5629 3.5 43.5439C3.5 43.5249 3.5 43.5059 3.5 43.4868C3.5 43.4678 3.5 43.4487 3.5 43.4296C3.5 43.4106 3.5 43.3915 3.5 43.3723C3.5 43.3532 3.5 43.3341 3.5 43.315C3.5 43.2958 3.5 43.2767 3.5 43.2575C3.5 43.2383 3.5 43.2191 3.5 43.1999C3.5 43.1807 3.5 43.1615 3.5 43.1423C3.5 43.123 3.5 43.1038 3.5 43.0845C3.5 43.0653 3.5 43.046 3.5 43.0267C3.5 43.0074 3.5 42.9881 3.5 42.9687C3.5 42.9494 3.5 42.9301 3.5 42.9107C3.5 42.8914 3.5 42.872 3.5 42.8526C3.5 42.8332 3.5 42.8138 3.5 42.7944C3.5 42.775 3.5 42.7555 3.5 42.7361C3.5 42.7166 3.5 42.6972 3.5 42.6777C3.5 42.6582 3.5 42.6387 3.5 42.6192C3.5 42.5997 3.5 42.5801 3.5 42.5606C3.5 42.541 3.5 42.5215 3.5 42.5019C3.5 42.4823 3.5 42.4627 3.5 42.4431C3.5 42.4235 3.5 42.4039 3.5 42.3843C3.5 42.3646 3.5 42.345 3.5 42.3253C3.5 42.3056 3.5 42.286 3.5 42.2663C3.5 42.2466 3.5 42.2268 3.5 42.2071C3.5 42.1874 3.5 42.1676 3.5 42.1479C3.5 42.1281 3.5 42.1083 3.5 42.0885C3.5 42.0687 3.5 42.0489 3.5 42.0291C3.5 42.0093 3.5 41.9895 3.5 41.9696C3.5 41.9497 3.5 41.9299 3.5 41.91C3.5 41.8901 3.5 41.8702 3.5 41.8503C3.5 41.8304 3.5 41.8104 3.5 41.7905C3.5 41.7705 3.5 41.7506 3.5 41.7306C3.5 41.7106 3.5 41.6906 3.5 41.6706C3.5 41.6506 3.5 41.6306 3.5 41.6105C3.5 41.5905 3.5 41.5705 3.5 41.5504C3.5 41.5303 3.5 41.5102 3.5 41.4901C3.5 41.47 3.5 41.4499 3.5 41.4298C3.5 41.4096 3.5 41.3895 3.5 41.3693C3.5 41.3492 3.5 41.329 3.5 41.3088C3.5 41.2886 3.5 41.2684 3.5 41.2482C3.5 41.2279 3.5 41.2077 3.5 41.1874C3.5 41.1672 3.5 41.1469 3.5 41.1266C3.5 41.1063 3.5 41.086 3.5 41.0657C3.5 41.0454 3.5 41.0251 3.5 41.0047H4.5ZM15 30.5C9.20129 30.5 4.5 35.2054 4.5 41.0047H3.5C3.5 34.6537 8.64844 29.5 15 29.5V30.5ZM266.5 19.0046C266.5 25.3561 261.351 30.5 255 30.5V29.5C260.799 29.5 265.5 24.8033 265.5 19.0046H266.5Z" fill="#9D9C98"/>
</svg>
