<svg width="267" height="61" viewBox="0 0 267 61" fill="none" xmlns="http://www.w3.org/2000/svg">
<path d="M262.646 60.3536C262.842 60.5488 263.158 60.5488 263.354 60.3536L266.536 57.1716C266.731 56.9763 266.731 56.6597 266.536 56.4645C266.34 56.2692 266.024 56.2692 265.828 56.4645L263 59.2929L260.172 56.4645C259.976 56.2692 259.66 56.2692 259.464 56.4645C259.269 56.6597 259.269 56.9763 259.464 57.1716L262.646 60.3536ZM0.5 0C0.5 0.0152382 0.5 0.0304708 0.5 0.0456978C0.5 0.0609248 0.5 0.0761463 0.5 0.0913622C0.5 0.106578 0.5 0.121788 0.5 0.136993C0.5 0.152198 0.5 0.167397 0.5 0.182591C0.5 0.197784 0.5 0.212972 0.5 0.228155C0.5 0.243337 0.5 0.258514 0.5 0.273685C0.5 0.288857 0.5 0.304022 0.5 0.319183C0.5 0.334343 0.5 0.349497 0.5 0.364646C0.5 0.379796 0.5 0.394939 0.5 0.410077C0.5 0.425215 0.5 0.440347 0.5 0.455474C0.5 0.470601 0.5 0.485722 0.5 0.500837C0.5 0.515953 0.5 0.531063 0.5 0.546167C0.5 0.561272 0.5 0.576371 0.5 0.591464C0.5 0.606557 0.5 0.621645 0.5 0.636727C0.5 0.651809 0.5 0.666886 0.5 0.681957C0.5 0.697028 0.5 0.712094 0.5 0.727153C0.5 0.742213 0.5 0.757268 0.5 0.772316C0.5 0.787365 0.5 0.802408 0.5 0.817446C0.5 0.832483 0.5 0.847515 0.5 0.862542C0.5 0.877568 0.5 0.892589 0.5 0.907604C0.5 0.92262 0.5 0.937629 0.5 0.952634C0.5 0.967638 0.5 0.982636 0.5 0.997629C0.5 1.01262 0.5 1.02761 0.5 1.04259C0.5 1.05757 0.5 1.07255 0.5 1.08752C0.5 1.10249 0.5 1.11746 0.5 1.13242C0.5 1.14738 0.5 1.16233 0.5 1.17728C0.5 1.19223 0.5 1.20717 0.5 1.22211C0.5 1.23704 0.5 1.25198 0.5 1.2669C0.5 1.28183 0.5 1.29675 0.5 1.31166C0.5 1.32658 0.5 1.34149 0.5 1.35639C0.5 1.37129 0.5 1.38619 0.5 1.40109C0.5 1.41598 0.5 1.43087 0.5 1.44575C0.5 1.46063 0.5 1.4755 0.5 1.49037C0.5 1.50525 0.5 1.52011 0.5 1.53497C0.5 1.54983 0.5 1.56468 0.5 1.57953C0.5 1.59438 0.5 1.60922 0.5 1.62406C0.5 1.63889 0.5 1.65373 0.5 1.66855C0.5 1.68338 0.5 1.6982 0.5 1.71301C0.5 1.72783 0.5 1.74264 0.5 1.75744C0.5 1.77224 0.5 1.78704 0.5 1.80183C0.5 1.81662 0.5 1.83141 0.5 1.84619C0.5 1.86097 0.5 1.87575 0.5 1.89052C0.5 1.90529 0.5 1.92005 0.5 1.93481C0.5 1.94957 0.5 1.96432 0.5 1.97907C0.5 1.99382 0.5 2.00856 0.5 2.0233C0.5 2.03804 0.5 2.05277 0.5 2.06749C0.5 2.08222 0.5 2.09694 0.5 2.11165C0.5 2.12637 0.5 2.14107 0.5 2.15578C0.5 2.17048 0.5 2.18518 0.5 2.19987C0.5 2.21456 0.5 2.22925 0.5 2.24393C0.5 2.25861 0.5 2.27328 0.5 2.28795C0.5 2.30262 0.5 2.31729 0.5 2.33195C0.5 2.3466 0.5 2.36126 0.5 2.3759C0.5 2.39055 0.5 2.40519 0.5 2.41983C0.5 2.43447 0.5 2.4491 0.5 2.46372C0.5 2.47835 0.5 2.49297 0.5 2.50758C0.5 2.52219 0.5 2.5368 0.5 2.5514C0.5 2.56601 0.5 2.5806 0.5 2.5952C0.5 2.60979 0.5 2.62437 0.5 2.63895C0.5 2.65353 0.5 2.66811 0.5 2.68268C0.5 2.69725 0.5 2.71181 0.5 2.72637C0.5 2.74093 0.5 2.75548 0.5 2.77003C0.5 2.78457 0.5 2.79911 0.5 2.81365C0.5 2.82818 0.5 2.84271 0.5 2.85724C0.5 2.87176 0.5 2.88628 0.5 2.9008C0.5 2.91531 0.5 2.92982 0.5 2.94432C0.5 2.95882 0.5 2.97332 0.5 2.98781C0.5 3.0023 0.5 3.01679 0.5 3.03127C0.5 3.04575 0.5 3.06022 0.5 3.07469C0.5 3.08916 0.5 3.10362 0.5 3.11808C0.5 3.13254 0.5 3.14699 0.5 3.16143C0.5 3.17588 0.5 3.19032 0.5 3.20476C0.5 3.21919 0.5 3.23362 0.5 3.24805C0.5 3.26247 0.5 3.27689 0.5 3.2913C0.5 3.30571 0.5 3.32012 0.5 3.33452C0.5 3.34892 0.5 3.36332 0.5 3.37771C0.5 3.3921 0.5 3.40649 0.5 3.42087C0.5 3.43525 0.5 3.44962 0.5 3.46399C0.5 3.47836 0.5 3.49272 0.5 3.50708C0.5 3.52143 0.5 3.53578 0.5 3.55013C0.5 3.56448 0.5 3.57882 0.5 3.59315C0.5 3.60749 0.5 3.62182 0.5 3.63614C0.5 3.65046 0.5 3.66478 0.5 3.67909C0.5 3.69341 0.5 3.70771 0.5 3.72201C0.5 3.73631 0.5 3.75061 0.5 3.7649C0.5 3.77919 0.5 3.79348 0.5 3.80775C0.5 3.82203 0.5 3.83631 0.5 3.85057C0.5 3.86484 0.5 3.8791 0.5 3.89336C0.5 3.90762 0.5 3.92187 0.5 3.93611C0.5 3.95036 0.5 3.9646 0.5 3.97883C0.5 3.99307 0.5 4.0073 0.5 4.02152C0.5 4.03574 0.5 4.04996 0.5 4.06417C0.5 4.07838 0.5 4.09259 0.5 4.10679C0.5 4.12099 0.5 4.13519 0.5 4.14938C0.5 4.16357 0.5 4.17775 0.5 4.19193C0.5 4.20611 0.5 4.22028 0.5 4.23445C0.5 4.24861 0.5 4.26278 0.5 4.27693C0.5 4.29109 0.5 4.30524 0.5 4.31938C0.5 4.33353 0.5 4.34767 0.5 4.3618C0.5 4.37593 0.5 4.39006 0.5 4.40419C0.5 4.41831 0.5 4.43243 0.5 4.44654C0.5 4.46065 0.5 4.47475 0.5 4.48885C0.5 4.50295 0.5 4.51705 0.5 4.53114C0.5 4.54523 0.5 4.55931 0.5 4.57339C0.5 4.58747 0.5 4.60154 0.5 4.6156C0.5 4.62967 0.5 4.64373 0.5 4.65779C0.5 4.67184 0.5 4.68589 0.5 4.69994C0.5 4.71398 0.5 4.72802 0.5 4.74205C0.5 4.75609 0.5 4.77011 0.5 4.78414C0.5 4.79816 0.5 4.81218 0.5 4.82619C0.5 4.8402 0.5 4.8542 0.5 4.8682C0.5 4.8822 0.5 4.8962 0.5 4.91018C0.5 4.92417 0.5 4.93816 0.5 4.95213C0.5 4.96611 0.5 4.98008 0.5 4.99405C0.5 5.00801 0.5 5.02197 0.5 5.03593C0.5 5.04988 0.5 5.06383 0.5 5.07778C0.5 5.09172 0.5 5.10566 0.5 5.11959C0.5 5.13352 0.5 5.14745 0.5 5.16137C0.5 5.17529 0.5 5.18921 0.5 5.20312C0.5 5.21703 0.5 5.23094 0.5 5.24483C0.5 5.25873 0.5 5.27263 0.5 5.28652C0.5 5.3004 0.5 5.31429 0.5 5.32816C0.5 5.34204 0.5 5.35591 0.5 5.36978C0.5 5.38364 0.5 5.3975 0.5 5.41136C0.5 5.42521 0.5 5.43906 0.5 5.4529C0.5 5.46674 0.5 5.48058 0.5 5.49441C0.5 5.50825 0.5 5.52207 0.5 5.53589C0.5 5.54971 0.5 5.56353 0.5 5.57734C0.5 5.59115 0.5 5.60495 0.5 5.61875C0.5 5.63255 0.5 5.64634 0.5 5.66013C0.5 5.67392 0.5 5.6877 0.5 5.70148C0.5 5.71525 0.5 5.72902 0.5 5.74279C0.5 5.75655 0.5 5.77031 0.5 5.78406C0.5 5.79782 0.5 5.81157 0.5 5.82531C0.5 5.83905 0.5 5.85279 0.5 5.86652C0.5 5.88025 0.5 5.89398 0.5 5.9077C0.5 5.92142 0.5 5.93513 0.5 5.94884C0.5 5.96255 0.5 5.97625 0.5 5.98995C0.5 6.00365 0.5 6.01734 0.5 6.03103C0.5 6.04471 0.5 6.0584 0.5 6.07207C0.5 6.08575 0.5 6.09942 0.5 6.11308C0.5 6.12675 0.5 6.1404 0.5 6.15406C0.5 6.16771 0.5 6.18136 0.5 6.195C0.5 6.20864 0.5 6.22228 0.5 6.23591C0.5 6.24954 0.5 6.26316 0.5 6.27678C0.5 6.2904 0.5 6.30402 0.5 6.31763C0.5 6.33123 0.5 6.34484 0.5 6.35843C0.5 6.37203 0.5 6.38562 0.5 6.39921C0.5 6.41279 0.5 6.42637 0.5 6.43995C0.5 6.45352 0.5 6.46709 0.5 6.48066C0.5 6.49422 0.5 6.50778 0.5 6.52133C0.5 6.53488 0.5 6.54843 0.5 6.56197C0.5 6.57551 0.5 6.58905 0.5 6.60258C0.5 6.61611 0.5 6.62963 0.5 6.64315C0.5 6.65667 0.5 6.67018 0.5 6.68369C0.5 6.6972 0.5 6.7107 0.5 6.7242C0.5 6.73769 0.5 6.75119 0.5 6.76467C0.5 6.77816 0.5 6.79164 0.5 6.80511C0.5 6.81858 0.5 6.83205 0.5 6.84552C0.5 6.85898 0.5 6.87244 0.5 6.88589C0.5 6.89934 0.5 6.91279 0.5 6.92623C0.5 6.93967 0.5 6.9531 0.5 6.96653C0.5 6.97996 0.5 6.99338 0.5 7.0068C0.5 7.02022 0.5 7.03363 0.5 7.04704C0.5 7.06045 0.5 7.07385 0.5 7.08724C0.5 7.10064 0.5 7.11403 0.5 7.12741C0.5 7.1408 0.5 7.15418 0.5 7.16755C0.5 7.18092 0.5 7.19429 0.5 7.20765C0.5 7.22102 0.5 7.23437 0.5 7.24772C0.5 7.26108 0.5 7.27442 0.5 7.28776C0.5 7.3011 0.5 7.31443 0.5 7.32776C0.5 7.34109 0.5 7.35441 0.5 7.36773C0.5 7.38105 0.5 7.39436 0.5 7.40767C0.5 7.42097 0.5 7.43427 0.5 7.44757C0.5 7.46086 0.5 7.47415 0.5 7.48744C0.5 7.50072 0.5 7.514 0.5 7.52727C0.5 7.54055 0.5 7.55381 0.5 7.56707C0.5 7.58034 0.5 7.59359 0.5 7.60684C0.5 7.62009 0.5 7.63334 0.5 7.64658C0.5 7.65981 0.5 7.67305 0.5 7.68628C0.5 7.6995 0.5 7.71273 0.5 7.72594C0.5 7.73916 0.5 7.75237 0.5 7.76558C0.5 7.77878 0.5 7.79198 0.5 7.80518C0.5 7.81837 0.5 7.83156 0.5 7.84474C0.5 7.85792 0.5 7.8711 0.5 7.88427C0.5 7.89745 0.5 7.91061 0.5 7.92377C0.5 7.93693 0.5 7.95009 0.5 7.96324C0.5 7.97639 0.5 7.98953 0.5 8.00267C0.5 8.01581 0.5 8.02894 0.5 8.04207C0.5 8.05519 0.5 8.06832 0.5 8.08143C0.5 8.09455 0.5 8.10766 0.5 8.12076C0.5 8.13387 0.5 8.14697 0.5 8.16006C0.5 8.17315 0.5 8.18624 0.5 8.19932C0.5 8.21241 0.5 8.22548 0.5 8.23855C0.5 8.25163 0.5 8.26469 0.5 8.27775C0.5 8.29081 0.5 8.30387 0.5 8.31691C0.5 8.32996 0.5 8.34301 0.5 8.35604C0.5 8.36908 0.5 8.38211 0.5 8.39514C0.5 8.40816 0.5 8.42119 0.5 8.4342C0.5 8.44722 0.5 8.46023 0.5 8.47323C0.5 8.48623 0.5 8.49923 0.5 8.51222C0.5 8.52522 0.5 8.5382 0.5 8.55119C0.5 8.56417 0.5 8.57714 0.5 8.59011C0.5 8.60308 0.5 8.61605 0.5 8.62901C0.5 8.64197 0.5 8.65492 0.5 8.66787C0.5 8.68082 0.5 8.69376 0.5 8.70669C0.5 8.71963 0.5 8.73256 0.5 8.74549C0.5 8.75841 0.5 8.77133 0.5 8.78425C0.5 8.79716 0.5 8.81007 0.5 8.82297C0.5 8.83588 0.5 8.84877 0.5 8.86167C0.5 8.87456 0.5 8.88744 0.5 8.90032C0.5 8.91321 0.5 8.92608 0.5 8.93895C0.5 8.95182 0.5 8.96468 0.5 8.97754C0.5 8.9904 0.5 9.00325 0.5 9.0161C0.5 9.02895 0.5 9.04179 0.5 9.05462C0.5 9.06746 0.5 9.08029 0.5 9.09311C0.5 9.10594 0.5 9.11876 0.5 9.13157C0.5 9.14438 0.5 9.15719 0.5 9.16999C0.5 9.1828 0.5 9.19559 0.5 9.20838C0.5 9.22118 0.5 9.23396 0.5 9.24674C0.5 9.25952 0.5 9.27229 0.5 9.28506C0.5 9.29783 0.5 9.31059 0.5 9.32335C0.5 9.33611 0.5 9.34886 0.5 9.36161C0.5 9.37435 0.5 9.38709 0.5 9.39983C0.5 9.41256 0.5 9.42529 0.5 9.43802C0.5 9.45074 0.5 9.46346 0.5 9.47617C0.5 9.48888 0.5 9.50159 0.5 9.51429C0.5 9.52699 0.5 9.53969 0.5 9.55238C0.5 9.56507 0.5 9.57775 0.5 9.59043C0.5 9.60311 0.5 9.61579 0.5 9.62845C0.5 9.64112 0.5 9.65378 0.5 9.66644C0.5 9.6791 0.5 9.69175 0.5 9.70439C0.5 9.71704 0.5 9.72968 0.5 9.74231C0.5 9.75494 0.5 9.76757 0.5 9.7802C0.5 9.79282 0.5 9.80544 0.5 9.81805C0.5 9.83066 0.5 9.84327 0.5 9.85587C0.5 9.86847 0.5 9.88106 0.5 9.89365C0.5 9.90624 0.5 9.91882 0.5 9.9314C0.5 9.94398 0.5 9.95655 0.5 9.96912C0.5 9.98169 0.5 9.99425 0.5 10.0068C0.5 10.0194 0.5 10.0319 0.5 10.0445C0.5 10.057 0.5 10.0695 0.5 10.0821C0.5 10.0946 0.5 10.1071 0.5 10.1197C0.5 10.1322 0.5 10.1447 0.5 10.1572C0.5 10.1697 0.5 10.1822 0.5 10.1947C0.5 10.2072 0.5 10.2197 0.5 10.2322C0.5 10.2447 0.5 10.2572 0.5 10.2696C0.5 10.2821 0.5 10.2946 0.5 10.3071C0.5 10.3195 0.5 10.332 0.5 10.3444C0.5 10.3569 0.5 10.3693 0.5 10.3818C0.5 10.3942 0.5 10.4067 0.5 10.4191C0.5 10.4315 0.5 10.444 0.5 10.4564C0.5 10.4688 0.5 10.4812 0.5 10.4936C0.5 10.506 0.5 10.5184 0.5 10.5308C0.5 10.5432 0.5 10.5556 0.5 10.568C0.5 10.5804 0.5 10.5928 0.5 10.6052C0.5 10.6175 0.5 10.6299 0.5 10.6423C0.5 10.6546 0.5 10.667 0.5 10.6794C0.5 10.6917 0.5 10.7041 0.5 10.7164C0.5 10.7287 0.5 10.7411 0.5 10.7534C0.5 10.7657 0.5 10.7781 0.5 10.7904C0.5 10.8027 0.5 10.815 0.5 10.8273C0.5 10.8396 0.5 10.8519 0.5 10.8642C0.5 10.8765 0.5 10.8888 0.5 10.9011C0.5 10.9134 0.5 10.9257 0.5 10.938C0.5 10.9502 0.5 10.9625 0.5 10.9748C0.5 10.987 0.5 10.9993 0.5 11.0115C0.5 11.0238 0.5 11.036 0.5 11.0483C0.5 11.0605 0.5 11.0728 0.5 11.085C0.5 11.0972 0.5 11.1094 0.5 11.1217C0.5 11.1339 0.5 11.1461 0.5 11.1583C0.5 11.1705 0.5 11.1827 0.5 11.1949C0.5 11.2071 0.5 11.2193 0.5 11.2315C0.5 11.2437 0.5 11.2558 0.5 11.268C0.5 11.2802 0.5 11.2924 0.5 11.3045C0.5 11.3167 0.5 11.3288 0.5 11.341C0.5 11.3531 0.5 11.3653 0.5 11.3774C0.5 11.3896 0.5 11.4017 0.5 11.4138C0.5 11.426 0.5 11.4381 0.5 11.4502C0.5 11.4623 0.5 11.4744 0.5 11.4865C0.5 11.4987 0.5 11.5108 0.5 11.5229C0.5 11.5349 0.5 11.547 0.5 11.5591C0.5 11.5712 0.5 11.5833 0.5 11.5954C0.5 11.6074 0.5 11.6195 0.5 11.6316C0.5 11.6436 0.5 11.6557 0.5 11.6677C0.5 11.6798 0.5 11.6918 0.5 11.7039C0.5 11.7159 0.5 11.7279 0.5 11.74C0.5 11.752 0.5 11.764 0.5 11.776C0.5 11.788 0.5 11.8001 0.5 11.8121C0.5 11.8241 0.5 11.8361 0.5 11.8481C0.5 11.8601 0.5 11.872 0.5 11.884C0.5 11.896 0.5 11.908 0.5 11.92C0.5 11.9319 0.5 11.9439 0.5 11.9559C0.5 11.9678 0.5 11.9798 0.5 11.9917C0.5 12.0037 0.5 12.0156 0.5 12.0276C0.5 12.0395 0.5 12.0514 0.5 12.0634C0.5 12.0753 0.5 12.0872 0.5 12.0991C0.5 12.111 0.5 12.123 0.5 12.1349C0.5 12.1468 0.5 12.1587 0.5 12.1706C0.5 12.1824 0.5 12.1943 0.5 12.2062C0.5 12.2181 0.5 12.23 0.5 12.2418C0.5 12.2537 0.5 12.2656 0.5 12.2774C0.5 12.2893 0.5 12.3012 0.5 12.313C0.5 12.3249 0.5 12.3367 0.5 12.3485C0.5 12.3604 0.5 12.3722 0.5 12.384C0.5 12.3959 0.5 12.4077 0.5 12.4195C0.5 12.4313 0.5 12.4431 0.5 12.4549C0.5 12.4667 0.5 12.4785 0.5 12.4903C0.5 12.5021 0.5 12.5139 0.5 12.5257C0.5 12.5375 0.5 12.5492 0.5 12.561C0.5 12.5728 0.5 12.5845 0.5 12.5963C0.5 12.608 0.5 12.6198 0.5 12.6315C0.5 12.6433 0.5 12.655 0.5 12.6668C0.5 12.6785 0.5 12.6902 0.5 12.702C0.5 12.7137 0.5 12.7254 0.5 12.7371C0.5 12.7488 0.5 12.7605 0.5 12.7722C0.5 12.7839 0.5 12.7956 0.5 12.8073C0.5 12.819 0.5 12.8307 0.5 12.8424C0.5 12.8541 0.5 12.8657 0.5 12.8774C0.5 12.8891 0.5 12.9007 0.5 12.9124C0.5 12.9241 0.5 12.9357 0.5 12.9474C0.5 12.959 0.5 12.9706 0.5 12.9823C0.5 12.9939 0.5 13.0055 0.5 13.0172C0.5 13.0288 0.5 13.0404 0.5 13.052C0.5 13.0636 0.5 13.0752 0.5 13.0868C0.5 13.0984 0.5 13.11 0.5 13.1216C0.5 13.1332 0.5 13.1448 0.5 13.1564C0.5 13.168 0.5 13.1795 0.5 13.1911C0.5 13.2027 0.5 13.2142 0.5 13.2258C0.5 13.2373 0.5 13.2489 0.5 13.2604C0.5 13.272 0.5 13.2835 0.5 13.2951C0.5 13.3066 0.5 13.3181 0.5 13.3296C0.5 13.3412 0.5 13.3527 0.5 13.3642C0.5 13.3757 0.5 13.3872 0.5 13.3987C0.5 13.4102 0.5 13.4217 0.5 13.4332C0.5 13.4447 0.5 13.4562 0.5 13.4676C0.5 13.4791 0.5 13.4906 0.5 13.5021C0.5 13.5135 0.5 13.525 0.5 13.5364C0.5 13.5479 0.5 13.5594 0.5 13.5708C0.5 13.5822 0.5 13.5937 0.5 13.6051C0.5 13.6165 0.5 13.628 0.5 13.6394C0.5 13.6508 0.5 13.6622 0.5 13.6736C0.5 13.685 0.5 13.6965 0.5 13.7079C0.5 13.7192 0.5 13.7306 0.5 13.742C0.5 13.7534 0.5 13.7648 0.5 13.7762C0.5 13.7876 0.5 13.7989 0.5 13.8103C0.5 13.8217 0.5 13.833 0.5 13.8444C0.5 13.8557 0.5 13.8671 0.5 13.8784C0.5 13.8898 0.5 13.9011 0.5 13.9124C0.5 13.9238 0.5 13.9351 0.5 13.9464C0.5 13.9577 0.5 13.969 0.5 13.9803C0.5 13.9917 0.5 14.003 0.5 14.0143C0.5 14.0256 0.5 14.0368 0.5 14.0481C0.5 14.0594 0.5 14.0707 0.5 14.082C0.5 14.0932 0.5 14.1045 0.5 14.1158C0.5 14.127 0.5 14.1383 0.5 14.1496C0.5 14.1608 0.5 14.1721 0.5 14.1833C0.5 14.1945 0.5 14.2058 0.5 14.217C0.5 14.2282 0.5 14.2395 0.5 14.2507C0.5 14.2619 0.5 14.2731 0.5 14.2843C0.5 14.2955 0.5 14.3067 0.5 14.3179C0.5 14.3291 0.5 14.3403 0.5 14.3515C0.5 14.3627 0.5 14.3739 0.5 14.385C0.5 14.3962 0.5 14.4074 0.5 14.4185C0.5 14.4297 0.5 14.4409 0.5 14.452C0.5 14.4632 0.5 14.4743 0.5 14.4854C0.5 14.4966 0.5 14.5077 0.5 14.5189C0.5 14.53 0.5 14.5411 0.5 14.5522C0.5 14.5633 0.5 14.5745 0.5 14.5856C0.5 14.5967 0.5 14.6078 0.5 14.6189C0.5 14.63 0.5 14.641 0.5 14.6521C0.5 14.6632 0.5 14.6743 0.5 14.6854C0.5 14.6964 0.5 14.7075 0.5 14.7186C0.5 14.7296 0.5 14.7407 0.5 14.7517C0.5 14.7628 0.5 14.7738 0.5 14.7849C0.5 14.7959 0.5 14.8069 0.5 14.818C0.5 14.829 0.5 14.84 0.5 14.851C0.5 14.862 0.5 14.8731 0.5 14.8841C0.5 14.8951 0.5 14.9061 0.5 14.9171C0.5 14.9281 0.5 14.939 0.5 14.95C0.5 14.961 0.5 14.972 0.5 14.983C0.5 14.9939 0.5 15.0049 0.5 15.0159C0.5 15.0268 0.5 15.0378 0.5 15.0487C0.5 15.0597 0.5 15.0706 0.5 15.0815C0.5 15.0925 0.5 15.1034 0.5 15.1143C0.5 15.1253 0.5 15.1362 0.5 15.1471C0.5 15.158 0.5 15.1689 0.5 15.1798C0.5 15.1907 0.5 15.2016 0.5 15.2125C0.5 15.2234 0.5 15.2343 0.5 15.2452C0.5 15.2561 0.5 15.2669 0.5 15.2778C0.5 15.2887 0.5 15.2996 0.5 15.3104C0.5 15.3213 0.5 15.3321 0.5 15.343C0.5 15.3538 0.5 15.3647 0.5 15.3755C0.5 15.3863 0.5 15.3972 0.5 15.408C0.5 15.4188 0.5 15.4296 0.5 15.4404C0.5 15.4513 0.5 15.4621 0.5 15.4729C0.5 15.4837 0.5 15.4945 0.5 15.5053C0.5 15.5161 0.5 15.5268 0.5 15.5376C0.5 15.5484 0.5 15.5592 0.5 15.5699C0.5 15.5807 0.5 15.5915 0.5 15.6022C0.5 15.613 0.5 15.6237 0.5 15.6345C0.5 15.6452 0.5 15.656 0.5 15.6667C0.5 15.6774 0.5 15.6882 0.5 15.6989C0.5 15.7096 0.5 15.7203 0.5 15.731C0.5 15.7418 0.5 15.7525 0.5 15.7632C0.5 15.7739 0.5 15.7846 0.5 15.7953C0.5 15.8059 0.5 15.8166 0.5 15.8273C0.5 15.838 0.5 15.8487 0.5 15.8593C0.5 15.87 0.5 15.8807 0.5 15.8913C0.5 15.902 0.5 15.9126 0.5 15.9233C0.5 15.9339 0.5 15.9445 0.5 15.9552C0.5 15.9658 0.5 15.9764 0.5 15.9871C0.5 15.9977 0.5 16.0083 0.5 16.0189C0.5 16.0295 0.5 16.0401 0.5 16.0507C0.5 16.0613 0.5 16.0719 0.5 16.0825C0.5 16.0931 0.5 16.1037 0.5 16.1143C0.5 16.1248 0.5 16.1354 0.5 16.146C0.5 16.1565 0.5 16.1671 0.5 16.1777C0.5 16.1882 0.5 16.1988 0.5 16.2093C0.5 16.2198 0.5 16.2304 0.5 16.2409C0.5 16.2514 0.5 16.262 0.5 16.2725C0.5 16.283 0.5 16.2935 0.5 16.304C0.5 16.3145 0.5 16.3251 0.5 16.3356C0.5 16.346 0.5 16.3565 0.5 16.367C0.5 16.3775 0.5 16.388 0.5 16.3985C0.5 16.4089 0.5 16.4194 0.5 16.4299C0.5 16.4403 0.5 16.4508 0.5 16.4613C0.5 16.4717 0.5 16.4822 0.5 16.4926C0.5 16.503 0.5 16.5135 0.5 16.5239C0.5 16.5343 0.5 16.5448 0.5 16.5552C0.5 16.5656 0.5 16.576 0.5 16.5864C0.5 16.5968 0.5 16.6072 0.5 16.6176C0.5 16.628 0.5 16.6384 0.5 16.6488C0.5 16.6592 0.5 16.6696 0.5 16.6799C0.5 16.6903 0.5 16.7007 0.5 16.7111C0.5 16.7214 0.5 16.7318 0.5 16.7421C0.5 16.7525 0.5 16.7628 0.5 16.7732C0.5 16.7835 0.5 16.7938 0.5 16.8042C0.5 16.8145 0.5 16.8248 0.5 16.8351C0.5 16.8455 0.5 16.8558 0.5 16.8661C0.5 16.8764 0.5 16.8867 0.5 16.897C0.5 16.9073 0.5 16.9176 0.5 16.9278C0.5 16.9381 0.5 16.9484 0.5 16.9587C0.5 16.969 0.5 16.9792 0.5 16.9895C0.5 16.9997 0.5 17.01 0.5 17.0203C0.5 17.0305 0.5 17.0407 0.5 17.051C0.5 17.0612 0.5 17.0715 0.5 17.0817C0.5 17.0919 0.5 17.1021 0.5 17.1124C0.5 17.1226 0.5 17.1328 0.5 17.143C0.5 17.1532 0.5 17.1634 0.5 17.1736C0.5 17.1838 0.5 17.194 0.5 17.2041C0.5 17.2143 0.5 17.2245 0.5 17.2347C0.5 17.2449 0.5 17.255 0.5 17.2652C0.5 17.2753 0.5 17.2855 0.5 17.2956C0.5 17.3058 0.5 17.3159 0.5 17.3261C0.5 17.3362 0.5 17.3463 0.5 17.3565C0.5 17.3666 0.5 17.3767 0.5 17.3868C0.5 17.3969 0.5 17.4071 0.5 17.4172C0.5 17.4273 0.5 17.4374 0.5 17.4474C0.5 17.4575 0.5 17.4676 0.5 17.4777C0.5 17.4878 0.5 17.4979 0.5 17.5079C0.5 17.518 0.5 17.5281 0.5 17.5381C0.5 17.5482 0.5 17.5582 0.5 17.5683C0.5 17.5783 0.5 17.5884 0.5 17.5984C0.5 17.6084 0.5 17.6185 0.5 17.6285C0.5 17.6385 0.5 17.6485 0.5 17.6586C0.5 17.6686 0.5 17.6786 0.5 17.6886C0.5 17.6986 0.5 17.7086 0.5 17.7186C0.5 17.7286 0.5 17.7385 0.5 17.7485C0.5 17.7585 0.5 17.7685 0.5 17.7784C0.5 17.7884 0.5 17.7984 0.5 17.8083C0.5 17.8183 0.5 17.8282 0.5 17.8382C0.5 17.8481 0.5 17.8581 0.5 17.868C0.5 17.8779 0.5 17.8879 0.5 17.8978C0.5 17.9077 0.5 17.9176 0.5 17.9275C0.5 17.9375 0.5 17.9474 0.5 17.9573C0.5 17.9672 0.5 17.9771 0.5 17.987C0.5 17.9968 0.5 18.0067 0.5 18.0166C0.5 18.0265 0.5 18.0364 0.5 18.0462C0.5 18.0561 0.5 18.0659 0.5 18.0758C0.5 18.0857 0.5 18.0955 0.5 18.1054C0.5 18.1152 0.5 18.125 0.5 18.1349C0.5 18.1447 0.5 18.1545 0.5 18.1643C0.5 18.1742 0.5 18.184 0.5 18.1938C0.5 18.2036 0.5 18.2134 0.5 18.2232C0.5 18.233 0.5 18.2428 0.5 18.2526C0.5 18.2624 0.5 18.2722 0.5 18.2819C0.5 18.2917 0.5 18.3015 0.5 18.3112C0.5 18.321 0.5 18.3308 0.5 18.3405C0.5 18.3503 0.5 18.36 0.5 18.3698C0.5 18.3795 0.5 18.3893 0.5 18.399C0.5 18.4087 0.5 18.4184 0.5 18.4282C0.5 18.4379 0.5 18.4476 0.5 18.4573C0.5 18.467 0.5 18.4767 0.5 18.4864C0.5 18.4961 0.5 18.5058 0.5 18.5155C0.5 18.5252 0.5 18.5349 0.5 18.5445C0.5 18.5542 0.5 18.5639 0.5 18.5735C0.5 18.5832 0.5 18.5929 0.5 18.6025C0.5 18.6122 0.5 18.6218 0.5 18.6314C0.5 18.6411 0.5 18.6507 0.5 18.6604C0.5 18.67 0.5 18.6796 0.5 18.6892C0.5 18.6988 0.5 18.7085 0.5 18.7181C0.5 18.7277 0.5 18.7373 0.5 18.7469C0.5 18.7565 0.5 18.7661 0.5 18.7756C0.5 18.7852 0.5 18.7948 0.5 18.8044C0.5 18.8139 0.5 18.8235 0.5 18.8331C0.5 18.8426 0.5 18.8522 0.5 18.8617C0.5 18.8713 0.5 18.8808 0.5 18.8904C0.5 18.8999 0.5 18.9095 0.5 18.919C0.5 18.9285 0.5 18.938 0.5 18.9475C0.5 18.9571 0.5 18.9666 0.5 18.9761C0.5 18.9856 0.5 18.9951 0.5 19.0046H1.5C1.5 18.9951 1.5 18.9856 1.5 18.9761C1.5 18.9666 1.5 18.9571 1.5 18.9475C1.5 18.938 1.5 18.9285 1.5 18.919C1.5 18.9095 1.5 18.8999 1.5 18.8904C1.5 18.8808 1.5 18.8713 1.5 18.8617C1.5 18.8522 1.5 18.8426 1.5 18.8331C1.5 18.8235 1.5 18.8139 1.5 18.8044C1.5 18.7948 1.5 18.7852 1.5 18.7756C1.5 18.7661 1.5 18.7565 1.5 18.7469C1.5 18.7373 1.5 18.7277 1.5 18.7181C1.5 18.7085 1.5 18.6988 1.5 18.6892C1.5 18.6796 1.5 18.67 1.5 18.6604C1.5 18.6507 1.5 18.6411 1.5 18.6314C1.5 18.6218 1.5 18.6122 1.5 18.6025C1.5 18.5929 1.5 18.5832 1.5 18.5735C1.5 18.5639 1.5 18.5542 1.5 18.5445C1.5 18.5349 1.5 18.5252 1.5 18.5155C1.5 18.5058 1.5 18.4961 1.5 18.4864C1.5 18.4767 1.5 18.467 1.5 18.4573C1.5 18.4476 1.5 18.4379 1.5 18.4282C1.5 18.4184 1.5 18.4087 1.5 18.399C1.5 18.3893 1.5 18.3795 1.5 18.3698C1.5 18.36 1.5 18.3503 1.5 18.3405C1.5 18.3308 1.5 18.321 1.5 18.3112C1.5 18.3015 1.5 18.2917 1.5 18.2819C1.5 18.2722 1.5 18.2624 1.5 18.2526C1.5 18.2428 1.5 18.233 1.5 18.2232C1.5 18.2134 1.5 18.2036 1.5 18.1938C1.5 18.184 1.5 18.1742 1.5 18.1643C1.5 18.1545 1.5 18.1447 1.5 18.1349C1.5 18.125 1.5 18.1152 1.5 18.1054C1.5 18.0955 1.5 18.0857 1.5 18.0758C1.5 18.0659 1.5 18.0561 1.5 18.0462C1.5 18.0364 1.5 18.0265 1.5 18.0166C1.5 18.0067 1.5 17.9968 1.5 17.987C1.5 17.9771 1.5 17.9672 1.5 17.9573C1.5 17.9474 1.5 17.9375 1.5 17.9275C1.5 17.9176 1.5 17.9077 1.5 17.8978C1.5 17.8879 1.5 17.8779 1.5 17.868C1.5 17.8581 1.5 17.8481 1.5 17.8382C1.5 17.8282 1.5 17.8183 1.5 17.8083C1.5 17.7984 1.5 17.7884 1.5 17.7784C1.5 17.7685 1.5 17.7585 1.5 17.7485C1.5 17.7385 1.5 17.7286 1.5 17.7186C1.5 17.7086 1.5 17.6986 1.5 17.6886C1.5 17.6786 1.5 17.6686 1.5 17.6586C1.5 17.6485 1.5 17.6385 1.5 17.6285C1.5 17.6185 1.5 17.6084 1.5 17.5984C1.5 17.5884 1.5 17.5783 1.5 17.5683C1.5 17.5582 1.5 17.5482 1.5 17.5381C1.5 17.5281 1.5 17.518 1.5 17.5079C1.5 17.4979 1.5 17.4878 1.5 17.4777C1.5 17.4676 1.5 17.4575 1.5 17.4474C1.5 17.4374 1.5 17.4273 1.5 17.4172C1.5 17.4071 1.5 17.3969 1.5 17.3868C1.5 17.3767 1.5 17.3666 1.5 17.3565C1.5 17.3463 1.5 17.3362 1.5 17.3261C1.5 17.3159 1.5 17.3058 1.5 17.2956C1.5 17.2855 1.5 17.2753 1.5 17.2652C1.5 17.255 1.5 17.2449 1.5 17.2347C1.5 17.2245 1.5 17.2143 1.5 17.2041C1.5 17.194 1.5 17.1838 1.5 17.1736C1.5 17.1634 1.5 17.1532 1.5 17.143C1.5 17.1328 1.5 17.1226 1.5 17.1124C1.5 17.1021 1.5 17.0919 1.5 17.0817C1.5 17.0715 1.5 17.0612 1.5 17.051C1.5 17.0407 1.5 17.0305 1.5 17.0203C1.5 17.01 1.5 16.9997 1.5 16.9895C1.5 16.9792 1.5 16.969 1.5 16.9587C1.5 16.9484 1.5 16.9381 1.5 16.9278C1.5 16.9176 1.5 16.9073 1.5 16.897C1.5 16.8867 1.5 16.8764 1.5 16.8661C1.5 16.8558 1.5 16.8455 1.5 16.8351C1.5 16.8248 1.5 16.8145 1.5 16.8042C1.5 16.7938 1.5 16.7835 1.5 16.7732C1.5 16.7628 1.5 16.7525 1.5 16.7421C1.5 16.7318 1.5 16.7214 1.5 16.7111C1.5 16.7007 1.5 16.6903 1.5 16.6799C1.5 16.6696 1.5 16.6592 1.5 16.6488C1.5 16.6384 1.5 16.628 1.5 16.6176C1.5 16.6072 1.5 16.5968 1.5 16.5864C1.5 16.576 1.5 16.5656 1.5 16.5552C1.5 16.5448 1.5 16.5343 1.5 16.5239C1.5 16.5135 1.5 16.503 1.5 16.4926C1.5 16.4822 1.5 16.4717 1.5 16.4613C1.5 16.4508 1.5 16.4403 1.5 16.4299C1.5 16.4194 1.5 16.4089 1.5 16.3985C1.5 16.388 1.5 16.3775 1.5 16.367C1.5 16.3565 1.5 16.346 1.5 16.3356C1.5 16.3251 1.5 16.3145 1.5 16.304C1.5 16.2935 1.5 16.283 1.5 16.2725C1.5 16.262 1.5 16.2514 1.5 16.2409C1.5 16.2304 1.5 16.2198 1.5 16.2093C1.5 16.1988 1.5 16.1882 1.5 16.1777C1.5 16.1671 1.5 16.1565 1.5 16.146C1.5 16.1354 1.5 16.1248 1.5 16.1143C1.5 16.1037 1.5 16.0931 1.5 16.0825C1.5 16.0719 1.5 16.0613 1.5 16.0507C1.5 16.0401 1.5 16.0295 1.5 16.0189C1.5 16.0083 1.5 15.9977 1.5 15.9871C1.5 15.9764 1.5 15.9658 1.5 15.9552C1.5 15.9445 1.5 15.9339 1.5 15.9233C1.5 15.9126 1.5 15.902 1.5 15.8913C1.5 15.8807 1.5 15.87 1.5 15.8593C1.5 15.8487 1.5 15.838 1.5 15.8273C1.5 15.8166 1.5 15.8059 1.5 15.7953C1.5 15.7846 1.5 15.7739 1.5 15.7632C1.5 15.7525 1.5 15.7418 1.5 15.731C1.5 15.7203 1.5 15.7096 1.5 15.6989C1.5 15.6882 1.5 15.6774 1.5 15.6667C1.5 15.656 1.5 15.6452 1.5 15.6345C1.5 15.6237 1.5 15.613 1.5 15.6022C1.5 15.5915 1.5 15.5807 1.5 15.5699C1.5 15.5592 1.5 15.5484 1.5 15.5376C1.5 15.5268 1.5 15.5161 1.5 15.5053C1.5 15.4945 1.5 15.4837 1.5 15.4729C1.5 15.4621 1.5 15.4513 1.5 15.4404C1.5 15.4296 1.5 15.4188 1.5 15.408C1.5 15.3972 1.5 15.3863 1.5 15.3755C1.5 15.3647 1.5 15.3538 1.5 15.343C1.5 15.3321 1.5 15.3213 1.5 15.3104C1.5 15.2996 1.5 15.2887 1.5 15.2778C1.5 15.2669 1.5 15.2561 1.5 15.2452C1.5 15.2343 1.5 15.2234 1.5 15.2125C1.5 15.2016 1.5 15.1907 1.5 15.1798C1.5 15.1689 1.5 15.158 1.5 15.1471C1.5 15.1362 1.5 15.1253 1.5 15.1143C1.5 15.1034 1.5 15.0925 1.5 15.0815C1.5 15.0706 1.5 15.0597 1.5 15.0487C1.5 15.0378 1.5 15.0268 1.5 15.0159C1.5 15.0049 1.5 14.9939 1.5 14.983C1.5 14.972 1.5 14.961 1.5 14.95C1.5 14.939 1.5 14.9281 1.5 14.9171C1.5 14.9061 1.5 14.8951 1.5 14.8841C1.5 14.8731 1.5 14.862 1.5 14.851C1.5 14.84 1.5 14.829 1.5 14.818C1.5 14.8069 1.5 14.7959 1.5 14.7849C1.5 14.7738 1.5 14.7628 1.5 14.7517C1.5 14.7407 1.5 14.7296 1.5 14.7186C1.5 14.7075 1.5 14.6964 1.5 14.6854C1.5 14.6743 1.5 14.6632 1.5 14.6521C1.5 14.641 1.5 14.63 1.5 14.6189C1.5 14.6078 1.5 14.5967 1.5 14.5856C1.5 14.5745 1.5 14.5633 1.5 14.5522C1.5 14.5411 1.5 14.53 1.5 14.5189C1.5 14.5077 1.5 14.4966 1.5 14.4854C1.5 14.4743 1.5 14.4632 1.5 14.452C1.5 14.4409 1.5 14.4297 1.5 14.4185C1.5 14.4074 1.5 14.3962 1.5 14.385C1.5 14.3739 1.5 14.3627 1.5 14.3515C1.5 14.3403 1.5 14.3291 1.5 14.3179C1.5 14.3067 1.5 14.2955 1.5 14.2843C1.5 14.2731 1.5 14.2619 1.5 14.2507C1.5 14.2395 1.5 14.2282 1.5 14.217C1.5 14.2058 1.5 14.1945 1.5 14.1833C1.5 14.1721 1.5 14.1608 1.5 14.1496C1.5 14.1383 1.5 14.127 1.5 14.1158C1.5 14.1045 1.5 14.0932 1.5 14.082C1.5 14.0707 1.5 14.0594 1.5 14.0481C1.5 14.0368 1.5 14.0256 1.5 14.0143C1.5 14.003 1.5 13.9917 1.5 13.9803C1.5 13.969 1.5 13.9577 1.5 13.9464C1.5 13.9351 1.5 13.9238 1.5 13.9124C1.5 13.9011 1.5 13.8898 1.5 13.8784C1.5 13.8671 1.5 13.8557 1.5 13.8444C1.5 13.833 1.5 13.8217 1.5 13.8103C1.5 13.7989 1.5 13.7876 1.5 13.7762C1.5 13.7648 1.5 13.7534 1.5 13.742C1.5 13.7306 1.5 13.7192 1.5 13.7079C1.5 13.6965 1.5 13.685 1.5 13.6736C1.5 13.6622 1.5 13.6508 1.5 13.6394C1.5 13.628 1.5 13.6165 1.5 13.6051C1.5 13.5937 1.5 13.5822 1.5 13.5708C1.5 13.5594 1.5 13.5479 1.5 13.5364C1.5 13.525 1.5 13.5135 1.5 13.5021C1.5 13.4906 1.5 13.4791 1.5 13.4676C1.5 13.4562 1.5 13.4447 1.5 13.4332C1.5 13.4217 1.5 13.4102 1.5 13.3987C1.5 13.3872 1.5 13.3757 1.5 13.3642C1.5 13.3527 1.5 13.3412 1.5 13.3296C1.5 13.3181 1.5 13.3066 1.5 13.2951C1.5 13.2835 1.5 13.272 1.5 13.2604C1.5 13.2489 1.5 13.2373 1.5 13.2258C1.5 13.2142 1.5 13.2027 1.5 13.1911C1.5 13.1795 1.5 13.168 1.5 13.1564C1.5 13.1448 1.5 13.1332 1.5 13.1216C1.5 13.11 1.5 13.0984 1.5 13.0868C1.5 13.0752 1.5 13.0636 1.5 13.052C1.5 13.0404 1.5 13.0288 1.5 13.0172C1.5 13.0055 1.5 12.9939 1.5 12.9823C1.5 12.9706 1.5 12.959 1.5 12.9474C1.5 12.9357 1.5 12.9241 1.5 12.9124C1.5 12.9007 1.5 12.8891 1.5 12.8774C1.5 12.8657 1.5 12.8541 1.5 12.8424C1.5 12.8307 1.5 12.819 1.5 12.8073C1.5 12.7956 1.5 12.7839 1.5 12.7722C1.5 12.7605 1.5 12.7488 1.5 12.7371C1.5 12.7254 1.5 12.7137 1.5 12.702C1.5 12.6902 1.5 12.6785 1.5 12.6668C1.5 12.655 1.5 12.6433 1.5 12.6315C1.5 12.6198 1.5 12.608 1.5 12.5963C1.5 12.5845 1.5 12.5728 1.5 12.561C1.5 12.5492 1.5 12.5375 1.5 12.5257C1.5 12.5139 1.5 12.5021 1.5 12.4903C1.5 12.4785 1.5 12.4667 1.5 12.4549C1.5 12.4431 1.5 12.4313 1.5 12.4195C1.5 12.4077 1.5 12.3959 1.5 12.384C1.5 12.3722 1.5 12.3604 1.5 12.3485C1.5 12.3367 1.5 12.3249 1.5 12.313C1.5 12.3012 1.5 12.2893 1.5 12.2774C1.5 12.2656 1.5 12.2537 1.5 12.2418C1.5 12.23 1.5 12.2181 1.5 12.2062C1.5 12.1943 1.5 12.1824 1.5 12.1706C1.5 12.1587 1.5 12.1468 1.5 12.1349C1.5 12.123 1.5 12.111 1.5 12.0991C1.5 12.0872 1.5 12.0753 1.5 12.0634C1.5 12.0514 1.5 12.0395 1.5 12.0276C1.5 12.0156 1.5 12.0037 1.5 11.9917C1.5 11.9798 1.5 11.9678 1.5 11.9559C1.5 11.9439 1.5 11.9319 1.5 11.92C1.5 11.908 1.5 11.896 1.5 11.884C1.5 11.872 1.5 11.8601 1.5 11.8481C1.5 11.8361 1.5 11.8241 1.5 11.8121C1.5 11.8001 1.5 11.788 1.5 11.776C1.5 11.764 1.5 11.752 1.5 11.74C1.5 11.7279 1.5 11.7159 1.5 11.7039C1.5 11.6918 1.5 11.6798 1.5 11.6677C1.5 11.6557 1.5 11.6436 1.5 11.6316C1.5 11.6195 1.5 11.6074 1.5 11.5954C1.5 11.5833 1.5 11.5712 1.5 11.5591C1.5 11.547 1.5 11.5349 1.5 11.5229C1.5 11.5108 1.5 11.4987 1.5 11.4865C1.5 11.4744 1.5 11.4623 1.5 11.4502C1.5 11.4381 1.5 11.426 1.5 11.4138C1.5 11.4017 1.5 11.3896 1.5 11.3774C1.5 11.3653 1.5 11.3531 1.5 11.341C1.5 11.3288 1.5 11.3167 1.5 11.3045C1.5 11.2924 1.5 11.2802 1.5 11.268C1.5 11.2558 1.5 11.2437 1.5 11.2315C1.5 11.2193 1.5 11.2071 1.5 11.1949C1.5 11.1827 1.5 11.1705 1.5 11.1583C1.5 11.1461 1.5 11.1339 1.5 11.1217C1.5 11.1094 1.5 11.0972 1.5 11.085C1.5 11.0728 1.5 11.0605 1.5 11.0483C1.5 11.036 1.5 11.0238 1.5 11.0115C1.5 10.9993 1.5 10.987 1.5 10.9748C1.5 10.9625 1.5 10.9502 1.5 10.938C1.5 10.9257 1.5 10.9134 1.5 10.9011C1.5 10.8888 1.5 10.8765 1.5 10.8642C1.5 10.8519 1.5 10.8396 1.5 10.8273C1.5 10.815 1.5 10.8027 1.5 10.7904C1.5 10.7781 1.5 10.7657 1.5 10.7534C1.5 10.7411 1.5 10.7287 1.5 10.7164C1.5 10.7041 1.5 10.6917 1.5 10.6794C1.5 10.667 1.5 10.6546 1.5 10.6423C1.5 10.6299 1.5 10.6175 1.5 10.6052C1.5 10.5928 1.5 10.5804 1.5 10.568C1.5 10.5556 1.5 10.5432 1.5 10.5308C1.5 10.5184 1.5 10.506 1.5 10.4936C1.5 10.4812 1.5 10.4688 1.5 10.4564C1.5 10.444 1.5 10.4315 1.5 10.4191C1.5 10.4067 1.5 10.3942 1.5 10.3818C1.5 10.3693 1.5 10.3569 1.5 10.3444C1.5 10.332 1.5 10.3195 1.5 10.3071C1.5 10.2946 1.5 10.2821 1.5 10.2696C1.5 10.2572 1.5 10.2447 1.5 10.2322C1.5 10.2197 1.5 10.2072 1.5 10.1947C1.5 10.1822 1.5 10.1697 1.5 10.1572C1.5 10.1447 1.5 10.1322 1.5 10.1197C1.5 10.1071 1.5 10.0946 1.5 10.0821C1.5 10.0695 1.5 10.057 1.5 10.0445C1.5 10.0319 1.5 10.0194 1.5 10.0068C1.5 9.99425 1.5 9.98169 1.5 9.96912C1.5 9.95655 1.5 9.94398 1.5 9.9314C1.5 9.91882 1.5 9.90624 1.5 9.89365C1.5 9.88106 1.5 9.86847 1.5 9.85587C1.5 9.84327 1.5 9.83066 1.5 9.81805C1.5 9.80544 1.5 9.79282 1.5 9.7802C1.5 9.76757 1.5 9.75494 1.5 9.74231C1.5 9.72968 1.5 9.71704 1.5 9.70439C1.5 9.69175 1.5 9.6791 1.5 9.66644C1.5 9.65378 1.5 9.64112 1.5 9.62845C1.5 9.61579 1.5 9.60311 1.5 9.59043C1.5 9.57775 1.5 9.56507 1.5 9.55238C1.5 9.53969 1.5 9.52699 1.5 9.51429C1.5 9.50159 1.5 9.48888 1.5 9.47617C1.5 9.46346 1.5 9.45074 1.5 9.43802C1.5 9.42529 1.5 9.41256 1.5 9.39983C1.5 9.38709 1.5 9.37435 1.5 9.36161C1.5 9.34886 1.5 9.33611 1.5 9.32335C1.5 9.31059 1.5 9.29783 1.5 9.28506C1.5 9.27229 1.5 9.25952 1.5 9.24674C1.5 9.23396 1.5 9.22118 1.5 9.20838C1.5 9.19559 1.5 9.1828 1.5 9.16999C1.5 9.15719 1.5 9.14438 1.5 9.13157C1.5 9.11876 1.5 9.10594 1.5 9.09311C1.5 9.08029 1.5 9.06746 1.5 9.05462C1.5 9.04179 1.5 9.02895 1.5 9.0161C1.5 9.00325 1.5 8.9904 1.5 8.97754C1.5 8.96468 1.5 8.95182 1.5 8.93895C1.5 8.92608 1.5 8.91321 1.5 8.90032C1.5 8.88744 1.5 8.87456 1.5 8.86167C1.5 8.84877 1.5 8.83588 1.5 8.82297C1.5 8.81007 1.5 8.79716 1.5 8.78425C1.5 8.77133 1.5 8.75841 1.5 8.74549C1.5 8.73256 1.5 8.71963 1.5 8.70669C1.5 8.69376 1.5 8.68082 1.5 8.66787C1.5 8.65492 1.5 8.64197 1.5 8.62901C1.5 8.61605 1.5 8.60308 1.5 8.59011C1.5 8.57714 1.5 8.56417 1.5 8.55119C1.5 8.5382 1.5 8.52522 1.5 8.51222C1.5 8.49923 1.5 8.48623 1.5 8.47323C1.5 8.46023 1.5 8.44722 1.5 8.4342C1.5 8.42119 1.5 8.40816 1.5 8.39514C1.5 8.38211 1.5 8.36908 1.5 8.35604C1.5 8.34301 1.5 8.32996 1.5 8.31691C1.5 8.30387 1.5 8.29081 1.5 8.27775C1.5 8.26469 1.5 8.25163 1.5 8.23855C1.5 8.22548 1.5 8.21241 1.5 8.19932C1.5 8.18624 1.5 8.17315 1.5 8.16006C1.5 8.14697 1.5 8.13387 1.5 8.12076C1.5 8.10766 1.5 8.09455 1.5 8.08143C1.5 8.06832 1.5 8.05519 1.5 8.04207C1.5 8.02894 1.5 8.01581 1.5 8.00267C1.5 7.98953 1.5 7.97639 1.5 7.96324C1.5 7.95009 1.5 7.93693 1.5 7.92377C1.5 7.91061 1.5 7.89745 1.5 7.88427C1.5 7.8711 1.5 7.85792 1.5 7.84474C1.5 7.83156 1.5 7.81837 1.5 7.80518C1.5 7.79198 1.5 7.77878 1.5 7.76558C1.5 7.75237 1.5 7.73916 1.5 7.72594C1.5 7.71273 1.5 7.6995 1.5 7.68628C1.5 7.67305 1.5 7.65981 1.5 7.64658C1.5 7.63334 1.5 7.62009 1.5 7.60684C1.5 7.59359 1.5 7.58034 1.5 7.56707C1.5 7.55381 1.5 7.54055 1.5 7.52727C1.5 7.514 1.5 7.50072 1.5 7.48744C1.5 7.47415 1.5 7.46086 1.5 7.44757C1.5 7.43427 1.5 7.42097 1.5 7.40767C1.5 7.39436 1.5 7.38105 1.5 7.36773C1.5 7.35441 1.5 7.34109 1.5 7.32776C1.5 7.31443 1.5 7.3011 1.5 7.28776C1.5 7.27442 1.5 7.26108 1.5 7.24772C1.5 7.23437 1.5 7.22102 1.5 7.20765C1.5 7.19429 1.5 7.18092 1.5 7.16755C1.5 7.15418 1.5 7.1408 1.5 7.12741C1.5 7.11403 1.5 7.10064 1.5 7.08724C1.5 7.07385 1.5 7.06045 1.5 7.04704C1.5 7.03363 1.5 7.02022 1.5 7.0068C1.5 6.99338 1.5 6.97996 1.5 6.96653C1.5 6.9531 1.5 6.93967 1.5 6.92623C1.5 6.91279 1.5 6.89934 1.5 6.88589C1.5 6.87244 1.5 6.85898 1.5 6.84552C1.5 6.83205 1.5 6.81858 1.5 6.80511C1.5 6.79164 1.5 6.77816 1.5 6.76467C1.5 6.75119 1.5 6.73769 1.5 6.7242C1.5 6.7107 1.5 6.6972 1.5 6.68369C1.5 6.67018 1.5 6.65667 1.5 6.64315C1.5 6.62963 1.5 6.61611 1.5 6.60258C1.5 6.58905 1.5 6.57551 1.5 6.56197C1.5 6.54843 1.5 6.53488 1.5 6.52133C1.5 6.50778 1.5 6.49422 1.5 6.48066C1.5 6.46709 1.5 6.45352 1.5 6.43995C1.5 6.42637 1.5 6.41279 1.5 6.39921C1.5 6.38562 1.5 6.37203 1.5 6.35843C1.5 6.34484 1.5 6.33123 1.5 6.31763C1.5 6.30402 1.5 6.2904 1.5 6.27678C1.5 6.26316 1.5 6.24954 1.5 6.23591C1.5 6.22228 1.5 6.20864 1.5 6.195C1.5 6.18136 1.5 6.16771 1.5 6.15406C1.5 6.1404 1.5 6.12675 1.5 6.11308C1.5 6.09942 1.5 6.08575 1.5 6.07207C1.5 6.0584 1.5 6.04471 1.5 6.03103C1.5 6.01734 1.5 6.00365 1.5 5.98995C1.5 5.97625 1.5 5.96255 1.5 5.94884C1.5 5.93513 1.5 5.92142 1.5 5.9077C1.5 5.89398 1.5 5.88025 1.5 5.86652C1.5 5.85279 1.5 5.83905 1.5 5.82531C1.5 5.81157 1.5 5.79782 1.5 5.78406C1.5 5.77031 1.5 5.75655 1.5 5.74279C1.5 5.72902 1.5 5.71525 1.5 5.70148C1.5 5.6877 1.5 5.67392 1.5 5.66013C1.5 5.64634 1.5 5.63255 1.5 5.61875C1.5 5.60495 1.5 5.59115 1.5 5.57734C1.5 5.56353 1.5 5.54971 1.5 5.53589C1.5 5.52207 1.5 5.50825 1.5 5.49441C1.5 5.48058 1.5 5.46674 1.5 5.4529C1.5 5.43906 1.5 5.42521 1.5 5.41136C1.5 5.3975 1.5 5.38364 1.5 5.36978C1.5 5.35591 1.5 5.34204 1.5 5.32816C1.5 5.31429 1.5 5.3004 1.5 5.28652C1.5 5.27263 1.5 5.25873 1.5 5.24483C1.5 5.23094 1.5 5.21703 1.5 5.20312C1.5 5.18921 1.5 5.17529 1.5 5.16137C1.5 5.14745 1.5 5.13352 1.5 5.11959C1.5 5.10566 1.5 5.09172 1.5 5.07778C1.5 5.06383 1.5 5.04988 1.5 5.03593C1.5 5.02197 1.5 5.00801 1.5 4.99405C1.5 4.98008 1.5 4.96611 1.5 4.95213C1.5 4.93816 1.5 4.92417 1.5 4.91018C1.5 4.8962 1.5 4.8822 1.5 4.8682C1.5 4.8542 1.5 4.8402 1.5 4.82619C1.5 4.81218 1.5 4.79816 1.5 4.78414C1.5 4.77011 1.5 4.75609 1.5 4.74205C1.5 4.72802 1.5 4.71398 1.5 4.69994C1.5 4.68589 1.5 4.67184 1.5 4.65779C1.5 4.64373 1.5 4.62967 1.5 4.6156C1.5 4.60154 1.5 4.58747 1.5 4.57339C1.5 4.55931 1.5 4.54523 1.5 4.53114C1.5 4.51705 1.5 4.50295 1.5 4.48885C1.5 4.47475 1.5 4.46065 1.5 4.44654C1.5 4.43243 1.5 4.41831 1.5 4.40419C1.5 4.39006 1.5 4.37593 1.5 4.3618C1.5 4.34767 1.5 4.33353 1.5 4.31938C1.5 4.30524 1.5 4.29109 1.5 4.27693C1.5 4.26278 1.5 4.24861 1.5 4.23445C1.5 4.22028 1.5 4.20611 1.5 4.19193C1.5 4.17775 1.5 4.16357 1.5 4.14938C1.5 4.13519 1.5 4.12099 1.5 4.10679C1.5 4.09259 1.5 4.07838 1.5 4.06417C1.5 4.04996 1.5 4.03574 1.5 4.02152C1.5 4.0073 1.5 3.99307 1.5 3.97883C1.5 3.9646 1.5 3.95036 1.5 3.93611C1.5 3.92187 1.5 3.90762 1.5 3.89336C1.5 3.8791 1.5 3.86484 1.5 3.85057C1.5 3.83631 1.5 3.82203 1.5 3.80775C1.5 3.79348 1.5 3.77919 1.5 3.7649C1.5 3.75061 1.5 3.73631 1.5 3.72201C1.5 3.70771 1.5 3.69341 1.5 3.67909C1.5 3.66478 1.5 3.65046 1.5 3.63614C1.5 3.62182 1.5 3.60749 1.5 3.59315C1.5 3.57882 1.5 3.56448 1.5 3.55013C1.5 3.53578 1.5 3.52143 1.5 3.50708C1.5 3.49272 1.5 3.47836 1.5 3.46399C1.5 3.44962 1.5 3.43525 1.5 3.42087C1.5 3.40649 1.5 3.3921 1.5 3.37771C1.5 3.36332 1.5 3.34892 1.5 3.33452C1.5 3.32012 1.5 3.30571 1.5 3.2913C1.5 3.27689 1.5 3.26247 1.5 3.24805C1.5 3.23362 1.5 3.21919 1.5 3.20476C1.5 3.19032 1.5 3.17588 1.5 3.16143C1.5 3.14699 1.5 3.13254 1.5 3.11808C1.5 3.10362 1.5 3.08916 1.5 3.07469C1.5 3.06022 1.5 3.04575 1.5 3.03127C1.5 3.01679 1.5 3.0023 1.5 2.98781C1.5 2.97332 1.5 2.95882 1.5 2.94432C1.5 2.92982 1.5 2.91531 1.5 2.9008C1.5 2.88628 1.5 2.87176 1.5 2.85724C1.5 2.84271 1.5 2.82818 1.5 2.81365C1.5 2.79911 1.5 2.78457 1.5 2.77003C1.5 2.75548 1.5 2.74093 1.5 2.72637C1.5 2.71181 1.5 2.69725 1.5 2.68268C1.5 2.66811 1.5 2.65353 1.5 2.63895C1.5 2.62437 1.5 2.60979 1.5 2.5952C1.5 2.5806 1.5 2.56601 1.5 2.5514C1.5 2.5368 1.5 2.52219 1.5 2.50758C1.5 2.49297 1.5 2.47835 1.5 2.46372C1.5 2.4491 1.5 2.43447 1.5 2.41983C1.5 2.40519 1.5 2.39055 1.5 2.3759C1.5 2.36126 1.5 2.3466 1.5 2.33195C1.5 2.31729 1.5 2.30262 1.5 2.28795C1.5 2.27328 1.5 2.25861 1.5 2.24393C1.5 2.22925 1.5 2.21456 1.5 2.19987C1.5 2.18518 1.5 2.17048 1.5 2.15578C1.5 2.14107 1.5 2.12637 1.5 2.11165C1.5 2.09694 1.5 2.08222 1.5 2.06749C1.5 2.05277 1.5 2.03804 1.5 2.0233C1.5 2.00856 1.5 1.99382 1.5 1.97907C1.5 1.96432 1.5 1.94957 1.5 1.93481C1.5 1.92005 1.5 1.90529 1.5 1.89052C1.5 1.87575 1.5 1.86097 1.5 1.84619C1.5 1.83141 1.5 1.81662 1.5 1.80183C1.5 1.78704 1.5 1.77224 1.5 1.75744C1.5 1.74264 1.5 1.72783 1.5 1.71301C1.5 1.6982 1.5 1.68338 1.5 1.66855C1.5 1.65373 1.5 1.63889 1.5 1.62406C1.5 1.60922 1.5 1.59438 1.5 1.57953C1.5 1.56468 1.5 1.54983 1.5 1.53497C1.5 1.52011 1.5 1.50525 1.5 1.49037C1.5 1.4755 1.5 1.46063 1.5 1.44575C1.5 1.43087 1.5 1.41598 1.5 1.40109C1.5 1.38619 1.5 1.37129 1.5 1.35639C1.5 1.34149 1.5 1.32658 1.5 1.31166C1.5 1.29675 1.5 1.28183 1.5 1.2669C1.5 1.25198 1.5 1.23704 1.5 1.22211C1.5 1.20717 1.5 1.19223 1.5 1.17728C1.5 1.16233 1.5 1.14738 1.5 1.13242C1.5 1.11746 1.5 1.10249 1.5 1.08752C1.5 1.07255 1.5 1.05757 1.5 1.04259C1.5 1.02761 1.5 1.01262 1.5 0.997629C1.5 0.982636 1.5 0.967638 1.5 0.952634C1.5 0.937629 1.5 0.92262 1.5 0.907604C1.5 0.892589 1.5 0.877568 1.5 0.862542C1.5 0.847515 1.5 0.832483 1.5 0.817446C1.5 0.802408 1.5 0.787365 1.5 0.772316C1.5 0.757268 1.5 0.742213 1.5 0.727153C1.5 0.712094 1.5 0.697028 1.5 0.681957C1.5 0.666886 1.5 0.651809 1.5 0.636727C1.5 0.621645 1.5 0.606557 1.5 0.591464C1.5 0.576371 1.5 0.561272 1.5 0.546167C1.5 0.531063 1.5 0.515953 1.5 0.500837C1.5 0.485722 1.5 0.470601 1.5 0.455474C1.5 0.440347 1.5 0.425215 1.5 0.410077C1.5 0.394939 1.5 0.379796 1.5 0.364646C1.5 0.349497 1.5 0.334343 1.5 0.319183C1.5 0.304022 1.5 0.288857 1.5 0.273685C1.5 0.258514 1.5 0.243337 1.5 0.228155C1.5 0.212972 1.5 0.197784 1.5 0.182591C1.5 0.167397 1.5 0.152198 1.5 0.136993C1.5 0.121788 1.5 0.106578 1.5 0.0913622C1.5 0.0761463 1.5 0.0609248 1.5 0.0456978C1.5 0.0304708 1.5 0.0152382 1.5 0H0.5ZM12 30.5H252V29.5H12V30.5ZM262.5 41.0047C262.5 41.0251 262.5 41.0454 262.5 41.0657C262.5 41.086 262.5 41.1063 262.5 41.1266C262.5 41.1469 262.5 41.1672 262.5 41.1874C262.5 41.2077 262.5 41.2279 262.5 41.2482C262.5 41.2684 262.5 41.2886 262.5 41.3088C262.5 41.329 262.5 41.3492 262.5 41.3693C262.5 41.3895 262.5 41.4096 262.5 41.4298C262.5 41.4499 262.5 41.47 262.5 41.4901C262.5 41.5102 262.5 41.5303 262.5 41.5504C262.5 41.5705 262.5 41.5905 262.5 41.6105C262.5 41.6306 262.5 41.6506 262.5 41.6706C262.5 41.6906 262.5 41.7106 262.5 41.7306C262.5 41.7506 262.5 41.7705 262.5 41.7905C262.5 41.8104 262.5 41.8304 262.5 41.8503C262.5 41.8702 262.5 41.8901 262.5 41.91C262.5 41.9299 262.5 41.9497 262.5 41.9696C262.5 41.9895 262.5 42.0093 262.5 42.0291C262.5 42.0489 262.5 42.0687 262.5 42.0885C262.5 42.1083 262.5 42.1281 262.5 42.1479C262.5 42.1676 262.5 42.1874 262.5 42.2071C262.5 42.2268 262.5 42.2466 262.5 42.2663C262.5 42.286 262.5 42.3056 262.5 42.3253C262.5 42.345 262.5 42.3646 262.5 42.3843C262.5 42.4039 262.5 42.4235 262.5 42.4431C262.5 42.4627 262.5 42.4823 262.5 42.5019C262.5 42.5215 262.5 42.541 262.5 42.5606C262.5 42.5801 262.5 42.5997 262.5 42.6192C262.5 42.6387 262.5 42.6582 262.5 42.6777C262.5 42.6972 262.5 42.7166 262.5 42.7361C262.5 42.7555 262.5 42.775 262.5 42.7944C262.5 42.8138 262.5 42.8332 262.5 42.8526C262.5 42.872 262.5 42.8914 262.5 42.9107C262.5 42.9301 262.5 42.9494 262.5 42.9687C262.5 42.9881 262.5 43.0074 262.5 43.0267C262.5 43.046 262.5 43.0653 262.5 43.0845C262.5 43.1038 262.5 43.123 262.5 43.1423C262.5 43.1615 262.5 43.1807 262.5 43.1999C262.5 43.2191 262.5 43.2383 262.5 43.2575C262.5 43.2767 262.5 43.2958 262.5 43.315C262.5 43.3341 262.5 43.3532 262.5 43.3723C262.5 43.3915 262.5 43.4106 262.5 43.4296C262.5 43.4487 262.5 43.4678 262.5 43.4868C262.5 43.5059 262.5 43.5249 262.5 43.5439C262.5 43.5629 262.5 43.5819 262.5 43.6009C262.5 43.6199 262.5 43.6389 262.5 43.6578C262.5 43.6768 262.5 43.6957 262.5 43.7147C262.5 43.7336 262.5 43.7525 262.5 43.7714C262.5 43.7903 262.5 43.8092 262.5 43.828C262.5 43.8469 262.5 43.8657 262.5 43.8846C262.5 43.9034 262.5 43.9222 262.5 43.941C262.5 43.9598 262.5 43.9786 262.5 43.9974C262.5 44.0161 262.5 44.0349 262.5 44.0536C262.5 44.0724 262.5 44.0911 262.5 44.1098C262.5 44.1285 262.5 44.1472 262.5 44.1659C262.5 44.1846 262.5 44.2032 262.5 44.2219C262.5 44.2405 262.5 44.2591 262.5 44.2778C262.5 44.2964 262.5 44.315 262.5 44.3336C262.5 44.3521 262.5 44.3707 262.5 44.3893C262.5 44.4078 262.5 44.4263 262.5 44.4449C262.5 44.4634 262.5 44.4819 262.5 44.5004C262.5 44.5189 262.5 44.5374 262.5 44.5558C262.5 44.5743 262.5 44.5927 262.5 44.6111C262.5 44.6296 262.5 44.648 262.5 44.6664C262.5 44.6848 262.5 44.7032 262.5 44.7215C262.5 44.7399 262.5 44.7582 262.5 44.7766C262.5 44.7949 262.5 44.8132 262.5 44.8315C262.5 44.8498 262.5 44.8681 262.5 44.8864C262.5 44.9047 262.5 44.9229 262.5 44.9412C262.5 44.9594 262.5 44.9776 262.5 44.9959C262.5 45.0141 262.5 45.0323 262.5 45.0504C262.5 45.0686 262.5 45.0868 262.5 45.1049C262.5 45.1231 262.5 45.1412 262.5 45.1593C262.5 45.1775 262.5 45.1956 262.5 45.2136C262.5 45.2317 262.5 45.2498 262.5 45.2679C262.5 45.2859 262.5 45.304 262.5 45.322C262.5 45.34 262.5 45.358 262.5 45.376C262.5 45.394 262.5 45.412 262.5 45.4299C262.5 45.4479 262.5 45.4659 262.5 45.4838C262.5 45.5017 262.5 45.5196 262.5 45.5375C262.5 45.5554 262.5 45.5733 262.5 45.5912C262.5 45.6091 262.5 45.6269 262.5 45.6448C262.5 45.6626 262.5 45.6804 262.5 45.6982C262.5 45.716 262.5 45.7338 262.5 45.7516C262.5 45.7694 262.5 45.7871 262.5 45.8049C262.5 45.8226 262.5 45.8404 262.5 45.8581C262.5 45.8758 262.5 45.8935 262.5 45.9112C262.5 45.9289 262.5 45.9465 262.5 45.9642C262.5 45.9818 262.5 45.9995 262.5 46.0171C262.5 46.0347 262.5 46.0523 262.5 46.0699C262.5 46.0875 262.5 46.1051 262.5 46.1226C262.5 46.1402 262.5 46.1577 262.5 46.1753C262.5 46.1928 262.5 46.2103 262.5 46.2278C262.5 46.2453 262.5 46.2628 262.5 46.2802C262.5 46.2977 262.5 46.3152 262.5 46.3326C262.5 46.35 262.5 46.3674 262.5 46.3848C262.5 46.4022 262.5 46.4196 262.5 46.437C262.5 46.4544 262.5 46.4717 262.5 46.4891C262.5 46.5064 262.5 46.5237 262.5 46.5411C262.5 46.5584 262.5 46.5757 262.5 46.5929C262.5 46.6102 262.5 46.6275 262.5 46.6447C262.5 46.662 262.5 46.6792 262.5 46.6964C262.5 46.7136 262.5 46.7308 262.5 46.748C262.5 46.7652 262.5 46.7824 262.5 46.7995C262.5 46.8167 262.5 46.8338 262.5 46.851C262.5 46.8681 262.5 46.8852 262.5 46.9023C262.5 46.9194 262.5 46.9365 262.5 46.9535C262.5 46.9706 262.5 46.9876 262.5 47.0047C262.5 47.0217 262.5 47.0387 262.5 47.0557C262.5 47.0727 262.5 47.0897 262.5 47.1067C262.5 47.1236 262.5 47.1406 262.5 47.1575C262.5 47.1744 262.5 47.1914 262.5 47.2083C262.5 47.2252 262.5 47.2421 262.5 47.2589C262.5 47.2758 262.5 47.2927 262.5 47.3095C262.5 47.3264 262.5 47.3432 262.5 47.36C262.5 47.3768 262.5 47.3936 262.5 47.4104C262.5 47.4272 262.5 47.444 262.5 47.4607C262.5 47.4775 262.5 47.4942 262.5 47.5109C262.5 47.5276 262.5 47.5443 262.5 47.561C262.5 47.5777 262.5 47.5944 262.5 47.611C262.5 47.6277 262.5 47.6443 262.5 47.661C262.5 47.6776 262.5 47.6942 262.5 47.7108C262.5 47.7274 262.5 47.744 262.5 47.7605C262.5 47.7771 262.5 47.7936 262.5 47.8102C262.5 47.8267 262.5 47.8432 262.5 47.8597C262.5 47.8762 262.5 47.8927 262.5 47.9092C262.5 47.9257 262.5 47.9421 262.5 47.9586C262.5 47.975 262.5 47.9914 262.5 48.0078C262.5 48.0242 262.5 48.0406 262.5 48.057C262.5 48.0734 262.5 48.0897 262.5 48.1061C262.5 48.1224 262.5 48.1388 262.5 48.1551C262.5 48.1714 262.5 48.1877 262.5 48.204C262.5 48.2203 262.5 48.2365 262.5 48.2528C262.5 48.269 262.5 48.2853 262.5 48.3015C262.5 48.3177 262.5 48.3339 262.5 48.3501C262.5 48.3663 262.5 48.3825 262.5 48.3986C262.5 48.4148 262.5 48.4309 262.5 48.4471C262.5 48.4632 262.5 48.4793 262.5 48.4954C262.5 48.5115 262.5 48.5276 262.5 48.5437C262.5 48.5597 262.5 48.5758 262.5 48.5918C262.5 48.6078 262.5 48.6239 262.5 48.6399C262.5 48.6559 262.5 48.6719 262.5 48.6878C262.5 48.7038 262.5 48.7198 262.5 48.7357C262.5 48.7516 262.5 48.7676 262.5 48.7835C262.5 48.7994 262.5 48.8153 262.5 48.8312C262.5 48.847 262.5 48.8629 262.5 48.8788C262.5 48.8946 262.5 48.9104 262.5 48.9263C262.5 48.9421 262.5 48.9579 262.5 48.9737C262.5 48.9894 262.5 49.0052 262.5 49.021C262.5 49.0367 262.5 49.0525 262.5 49.0682C262.5 49.0839 262.5 49.0996 262.5 49.1153C262.5 49.131 262.5 49.1467 262.5 49.1623C262.5 49.178 262.5 49.1936 262.5 49.2093C262.5 49.2249 262.5 49.2405 262.5 49.2561C262.5 49.2717 262.5 49.2873 262.5 49.3029C262.5 49.3184 262.5 49.334 262.5 49.3495C262.5 49.3651 262.5 49.3806 262.5 49.3961C262.5 49.4116 262.5 49.4271 262.5 49.4426C262.5 49.458 262.5 49.4735 262.5 49.4889C262.5 49.5044 262.5 49.5198 262.5 49.5352C262.5 49.5506 262.5 49.566 262.5 49.5814C262.5 49.5968 262.5 49.6121 262.5 49.6275C262.5 49.6428 262.5 49.6582 262.5 49.6735C262.5 49.6888 262.5 49.7041 262.5 49.7194C262.5 49.7347 262.5 49.75 262.5 49.7652C262.5 49.7805 262.5 49.7957 262.5 49.8109C262.5 49.8262 262.5 49.8414 262.5 49.8566C262.5 49.8718 262.5 49.8869 262.5 49.9021C262.5 49.9173 262.5 49.9324 262.5 49.9475C262.5 49.9627 262.5 49.9778 262.5 49.9929C262.5 50.008 262.5 50.0231 262.5 50.0381C262.5 50.0532 262.5 50.0683 262.5 50.0833C262.5 50.0983 262.5 50.1134 262.5 50.1284C262.5 50.1434 262.5 50.1584 262.5 50.1733C262.5 50.1883 262.5 50.2033 262.5 50.2182C262.5 50.2332 262.5 50.2481 262.5 50.263C262.5 50.2779 262.5 50.2928 262.5 50.3077C262.5 50.3226 262.5 50.3374 262.5 50.3523C262.5 50.3671 262.5 50.382 262.5 50.3968C262.5 50.4116 262.5 50.4264 262.5 50.4412C262.5 50.456 262.5 50.4708 262.5 50.4855C262.5 50.5003 262.5 50.515 262.5 50.5298C262.5 50.5445 262.5 50.5592 262.5 50.5739C262.5 50.5886 262.5 50.6033 262.5 50.6179C262.5 50.6326 262.5 50.6472 262.5 50.6619C262.5 50.6765 262.5 50.6911 262.5 50.7057C262.5 50.7203 262.5 50.7349 262.5 50.7495C262.5 50.764 262.5 50.7786 262.5 50.7931C262.5 50.8077 262.5 50.8222 262.5 50.8367C262.5 50.8512 262.5 50.8657 262.5 50.8802C262.5 50.8946 262.5 50.9091 262.5 50.9236C262.5 50.938 262.5 50.9524 262.5 50.9668C262.5 50.9813 262.5 50.9957 262.5 51.01C262.5 51.0244 262.5 51.0388 262.5 51.0531C262.5 51.0675 262.5 51.0818 262.5 51.0961C262.5 51.1105 262.5 51.1248 262.5 51.1391C262.5 51.1534 262.5 51.1676 262.5 51.1819C262.5 51.1961 262.5 51.2104 262.5 51.2246C262.5 51.2388 262.5 51.253 262.5 51.2672C262.5 51.2814 262.5 51.2956 262.5 51.3098C262.5 51.3239 262.5 51.3381 262.5 51.3522C262.5 51.3664 262.5 51.3805 262.5 51.3946C262.5 51.4087 262.5 51.4228 262.5 51.4368C262.5 51.4509 262.5 51.465 262.5 51.479C262.5 51.493 262.5 51.5071 262.5 51.5211C262.5 51.5351 262.5 51.5491 262.5 51.563C262.5 51.577 262.5 51.591 262.5 51.6049C262.5 51.6189 262.5 51.6328 262.5 51.6467C262.5 51.6606 262.5 51.6745 262.5 51.6884C262.5 51.7023 262.5 51.7162 262.5 51.73C262.5 51.7439 262.5 51.7577 262.5 51.7715C262.5 51.7853 262.5 51.7991 262.5 51.8129C262.5 51.8267 262.5 51.8405 262.5 51.8543C262.5 51.868 262.5 51.8818 262.5 51.8955C262.5 51.9092 262.5 51.9229 262.5 51.9366C262.5 51.9503 262.5 51.964 262.5 51.9777C262.5 51.9913 262.5 52.005 262.5 52.0186C262.5 52.0322 262.5 52.0459 262.5 52.0595C262.5 52.0731 262.5 52.0866 262.5 52.1002C262.5 52.1138 262.5 52.1273 262.5 52.1409C262.5 52.1544 262.5 52.1679 262.5 52.1814C262.5 52.195 262.5 52.2084 262.5 52.2219C262.5 52.2354 262.5 52.2489 262.5 52.2623C262.5 52.2758 262.5 52.2892 262.5 52.3026C262.5 52.316 262.5 52.3294 262.5 52.3428C262.5 52.3562 262.5 52.3695 262.5 52.3829C262.5 52.3962 262.5 52.4096 262.5 52.4229C262.5 52.4362 262.5 52.4495 262.5 52.4628C262.5 52.4761 262.5 52.4894 262.5 52.5026C262.5 52.5159 262.5 52.5291 262.5 52.5424C262.5 52.5556 262.5 52.5688 262.5 52.582C262.5 52.5952 262.5 52.6084 262.5 52.6215C262.5 52.6347 262.5 52.6479 262.5 52.661C262.5 52.6741 262.5 52.6872 262.5 52.7003C262.5 52.7134 262.5 52.7265 262.5 52.7396C262.5 52.7527 262.5 52.7657 262.5 52.7788C262.5 52.7918 262.5 52.8048 262.5 52.8178C262.5 52.8308 262.5 52.8438 262.5 52.8568C262.5 52.8698 262.5 52.8827 262.5 52.8957C262.5 52.9086 262.5 52.9216 262.5 52.9345C262.5 52.9474 262.5 52.9603 262.5 52.9732C262.5 52.9861 262.5 52.9989 262.5 53.0118C262.5 53.0246 262.5 53.0375 262.5 53.0503C262.5 53.0631 262.5 53.0759 262.5 53.0887C262.5 53.1015 262.5 53.1143 262.5 53.127C262.5 53.1398 262.5 53.1525 262.5 53.1652C262.5 53.178 262.5 53.1907 262.5 53.2034C262.5 53.2161 262.5 53.2287 262.5 53.2414C262.5 53.2541 262.5 53.2667 262.5 53.2794C262.5 53.292 262.5 53.3046 262.5 53.3172C262.5 53.3298 262.5 53.3424 262.5 53.355C262.5 53.3675 262.5 53.3801 262.5 53.3926C262.5 53.4052 262.5 53.4177 262.5 53.4302C262.5 53.4427 262.5 53.4552 262.5 53.4677C262.5 53.4801 262.5 53.4926 262.5 53.505C262.5 53.5175 262.5 53.5299 262.5 53.5423C262.5 53.5547 262.5 53.5671 262.5 53.5795C262.5 53.5919 262.5 53.6043 262.5 53.6166C262.5 53.629 262.5 53.6413 262.5 53.6536C262.5 53.6659 262.5 53.6782 262.5 53.6905C262.5 53.7028 262.5 53.7151 262.5 53.7274C262.5 53.7396 262.5 53.7519 262.5 53.7641C262.5 53.7763 262.5 53.7885 262.5 53.8007C262.5 53.8129 262.5 53.8251 262.5 53.8372C262.5 53.8494 262.5 53.8616 262.5 53.8737C262.5 53.8858 262.5 53.8979 262.5 53.91C262.5 53.9221 262.5 53.9342 262.5 53.9463C262.5 53.9584 262.5 53.9704 262.5 53.9824C262.5 53.9945 262.5 54.0065 262.5 54.0185C262.5 54.0305 262.5 54.0425 262.5 54.0545C262.5 54.0665 262.5 54.0784 262.5 54.0904C262.5 54.1023 262.5 54.1142 262.5 54.1261C262.5 54.1381 262.5 54.15 262.5 54.1618C262.5 54.1737 262.5 54.1856 262.5 54.1974C262.5 54.2093 262.5 54.2211 262.5 54.2329C262.5 54.2448 262.5 54.2566 262.5 54.2683C262.5 54.2801 262.5 54.2919 262.5 54.3037C262.5 54.3154 262.5 54.3272 262.5 54.3389C262.5 54.3506 262.5 54.3623 262.5 54.374C262.5 54.3857 262.5 54.3974 262.5 54.409C262.5 54.4207 262.5 54.4323 262.5 54.444C262.5 54.4556 262.5 54.4672 262.5 54.4788C262.5 54.4904 262.5 54.502 262.5 54.5136C262.5 54.5251 262.5 54.5367 262.5 54.5482C262.5 54.5598 262.5 54.5713 262.5 54.5828C262.5 54.5943 262.5 54.6058 262.5 54.6173C262.5 54.6287 262.5 54.6402 262.5 54.6516C262.5 54.6631 262.5 54.6745 262.5 54.6859C262.5 54.6973 262.5 54.7087 262.5 54.7201C262.5 54.7315 262.5 54.7428 262.5 54.7542C262.5 54.7655 262.5 54.7769 262.5 54.7882C262.5 54.7995 262.5 54.8108 262.5 54.8221C262.5 54.8334 262.5 54.8446 262.5 54.8559C262.5 54.8671 262.5 54.8784 262.5 54.8896C262.5 54.9008 262.5 54.912 262.5 54.9232C262.5 54.9344 262.5 54.9456 262.5 54.9568C262.5 54.9679 262.5 54.9791 262.5 54.9902C262.5 55.0013 262.5 55.0124 262.5 55.0235C262.5 55.0346 262.5 55.0457 262.5 55.0568C262.5 55.0678 262.5 55.0789 262.5 55.0899C262.5 55.101 262.5 55.112 262.5 55.123C262.5 55.134 262.5 55.145 262.5 55.1559C262.5 55.1669 262.5 55.1779 262.5 55.1888C262.5 55.1998 262.5 55.2107 262.5 55.2216C262.5 55.2325 262.5 55.2434 262.5 55.2543C262.5 55.2651 262.5 55.276 262.5 55.2869C262.5 55.2977 262.5 55.3085 262.5 55.3194C262.5 55.3302 262.5 55.341 262.5 55.3517C262.5 55.3625 262.5 55.3733 262.5 55.3841C262.5 55.3948 262.5 55.4055 262.5 55.4163C262.5 55.427 262.5 55.4377 262.5 55.4484C262.5 55.4591 262.5 55.4697 262.5 55.4804C262.5 55.4911 262.5 55.5017 262.5 55.5123C262.5 55.523 262.5 55.5336 262.5 55.5442C262.5 55.5548 262.5 55.5653 262.5 55.5759C262.5 55.5865 262.5 55.597 262.5 55.6075C262.5 55.6181 262.5 55.6286 262.5 55.6391C262.5 55.6496 262.5 55.6601 262.5 55.6706C262.5 55.681 262.5 55.6915 262.5 55.7019C262.5 55.7124 262.5 55.7228 262.5 55.7332C262.5 55.7436 262.5 55.754 262.5 55.7644C262.5 55.7747 262.5 55.7851 262.5 55.7954C262.5 55.8058 262.5 55.8161 262.5 55.8264C262.5 55.8367 262.5 55.847 262.5 55.8573C262.5 55.8676 262.5 55.8779 262.5 55.8881C262.5 55.8984 262.5 55.9086 262.5 55.9188C262.5 55.929 262.5 55.9392 262.5 55.9494C262.5 55.9596 262.5 55.9698 262.5 55.9799C262.5 55.9901 262.5 56.0002 262.5 56.0104C262.5 56.0205 262.5 56.0306 262.5 56.0407C262.5 56.0508 262.5 56.0609 262.5 56.0709C262.5 56.081 262.5 56.091 262.5 56.1011C262.5 56.1111 262.5 56.1211 262.5 56.1311C262.5 56.1411 262.5 56.1511 262.5 56.1611C262.5 56.171 262.5 56.181 262.5 56.1909C262.5 56.2008 262.5 56.2108 262.5 56.2207C262.5 56.2306 262.5 56.2405 262.5 56.2503C262.5 56.2602 262.5 56.2701 262.5 56.2799C262.5 56.2898 262.5 56.2996 262.5 56.3094C262.5 56.3192 262.5 56.329 262.5 56.3388C262.5 56.3486 262.5 56.3583 262.5 56.3681C262.5 56.3778 262.5 56.3875 262.5 56.3973C262.5 56.407 262.5 56.4167 262.5 56.4264C262.5 56.436 262.5 56.4457 262.5 56.4554C262.5 56.465 262.5 56.4747 262.5 56.4843C262.5 56.4939 262.5 56.5035 262.5 56.5131C262.5 56.5227 262.5 56.5323 262.5 56.5418C262.5 56.5514 262.5 56.5609 262.5 56.5705C262.5 56.58 262.5 56.5895 262.5 56.599C262.5 56.6085 262.5 56.618 262.5 56.6274C262.5 56.6369 262.5 56.6463 262.5 56.6558C262.5 56.6652 262.5 56.6746 262.5 56.684C262.5 56.6934 262.5 56.7028 262.5 56.7122C262.5 56.7216 262.5 56.7309 262.5 56.7403C262.5 56.7496 262.5 56.7589 262.5 56.7682C262.5 56.7775 262.5 56.7868 262.5 56.7961C262.5 56.8054 262.5 56.8146 262.5 56.8239C262.5 56.8331 262.5 56.8424 262.5 56.8516C262.5 56.8608 262.5 56.87 262.5 56.8792C262.5 56.8883 262.5 56.8975 262.5 56.9067C262.5 56.9158 262.5 56.9249 262.5 56.9341C262.5 56.9432 262.5 56.9523 262.5 56.9614C262.5 56.9705 262.5 56.9795 262.5 56.9886C262.5 56.9976 262.5 57.0067 262.5 57.0157C262.5 57.0247 262.5 57.0337 262.5 57.0427C262.5 57.0517 262.5 57.0607 262.5 57.0697C262.5 57.0786 262.5 57.0876 262.5 57.0965C262.5 57.1054 262.5 57.1144 262.5 57.1233C262.5 57.1322 262.5 57.141 262.5 57.1499C262.5 57.1588 262.5 57.1676 262.5 57.1765C262.5 57.1853 262.5 57.1941 262.5 57.2029C262.5 57.2117 262.5 57.2205 262.5 57.2293C262.5 57.2381 262.5 57.2468 262.5 57.2556C262.5 57.2643 262.5 57.273 262.5 57.2817C262.5 57.2904 262.5 57.2991 262.5 57.3078C262.5 57.3165 262.5 57.3252 262.5 57.3338C262.5 57.3425 262.5 57.3511 262.5 57.3597C262.5 57.3683 262.5 57.3769 262.5 57.3855C262.5 57.3941 262.5 57.4026 262.5 57.4112C262.5 57.4198 262.5 57.4283 262.5 57.4368C262.5 57.4453 262.5 57.4538 262.5 57.4623C262.5 57.4708 262.5 57.4793 262.5 57.4878C262.5 57.4962 262.5 57.5047 262.5 57.5131C262.5 57.5215 262.5 57.5299 262.5 57.5383C262.5 57.5467 262.5 57.5551 262.5 57.5635C262.5 57.5718 262.5 57.5802 262.5 57.5885C262.5 57.5968 262.5 57.6051 262.5 57.6134C262.5 57.6217 262.5 57.63 262.5 57.6383C262.5 57.6466 262.5 57.6548 262.5 57.6631C262.5 57.6713 262.5 57.6795 262.5 57.6877C262.5 57.6959 262.5 57.7041 262.5 57.7123C262.5 57.7205 262.5 57.7286 262.5 57.7368C262.5 57.7449 262.5 57.753 262.5 57.7612C262.5 57.7693 262.5 57.7774 262.5 57.7854C262.5 57.7935 262.5 57.8016 262.5 57.8096C262.5 57.8177 262.5 57.8257 262.5 57.8337C262.5 57.8418 262.5 57.8498 262.5 57.8577C262.5 57.8657 262.5 57.8737 262.5 57.8817C262.5 57.8896 262.5 57.8976 262.5 57.9055C262.5 57.9134 262.5 57.9213 262.5 57.9292C262.5 57.9371 262.5 57.945 262.5 57.9528C262.5 57.9607 262.5 57.9685 262.5 57.9764C262.5 57.9842 262.5 57.992 262.5 57.9998C262.5 58.0076 262.5 58.0154 262.5 58.0231C262.5 58.0309 262.5 58.0387 262.5 58.0464C262.5 58.0541 262.5 58.0618 262.5 58.0695C262.5 58.0772 262.5 58.0849 262.5 58.0926C262.5 58.1003 262.5 58.1079 262.5 58.1156C262.5 58.1232 262.5 58.1308 262.5 58.1384C262.5 58.146 262.5 58.1536 262.5 58.1612C262.5 58.1688 262.5 58.1763 262.5 58.1839C262.5 58.1914 262.5 58.199 262.5 58.2065C262.5 58.214 262.5 58.2215 262.5 58.229C262.5 58.2365 262.5 58.2439 262.5 58.2514C262.5 58.2588 262.5 58.2663 262.5 58.2737C262.5 58.2811 262.5 58.2885 262.5 58.2959C262.5 58.3033 262.5 58.3106 262.5 58.318C262.5 58.3254 262.5 58.3327 262.5 58.34C262.5 58.3473 262.5 58.3547 262.5 58.3619C262.5 58.3692 262.5 58.3765 262.5 58.3838C262.5 58.391 262.5 58.3983 262.5 58.4055C262.5 58.4127 262.5 58.42 262.5 58.4272C262.5 58.4343 262.5 58.4415 262.5 58.4487C262.5 58.4559 262.5 58.463 262.5 58.4701C262.5 58.4773 262.5 58.4844 262.5 58.4915C262.5 58.4986 262.5 58.5057 262.5 58.5128C262.5 58.5198 262.5 58.5269 262.5 58.5339C262.5 58.541 262.5 58.548 262.5 58.555C262.5 58.562 262.5 58.569 262.5 58.576C262.5 58.583 262.5 58.5899 262.5 58.5969C262.5 58.6038 262.5 58.6108 262.5 58.6177C262.5 58.6246 262.5 58.6315 262.5 58.6384C262.5 58.6452 262.5 58.6521 262.5 58.659C262.5 58.6658 262.5 58.6726 262.5 58.6795C262.5 58.6863 262.5 58.6931 262.5 58.6999C262.5 58.7067 262.5 58.7134 262.5 58.7202C262.5 58.727 262.5 58.7337 262.5 58.7404C262.5 58.7471 262.5 58.7539 262.5 58.7605C262.5 58.7672 262.5 58.7739 262.5 58.7806C262.5 58.7872 262.5 58.7939 262.5 58.8005C262.5 58.8071 262.5 58.8138 262.5 58.8204C262.5 58.827 262.5 58.8335 262.5 58.8401C262.5 58.8467 262.5 58.8532 262.5 58.8598C262.5 58.8663 262.5 58.8728 262.5 58.8793C262.5 58.8858 262.5 58.8923 262.5 58.8988C262.5 58.9053 262.5 58.9117 262.5 58.9182C262.5 58.9246 262.5 58.931 262.5 58.9374C262.5 58.9438 262.5 58.9502 262.5 58.9566C262.5 58.963 262.5 58.9694 262.5 58.9757C262.5 58.982 262.5 58.9884 262.5 58.9947C262.5 59.001 262.5 59.0073 262.5 59.0136C262.5 59.0199 262.5 59.0261 262.5 59.0324C262.5 59.0386 262.5 59.0449 262.5 59.0511C262.5 59.0573 262.5 59.0635 262.5 59.0697C262.5 59.0759 262.5 59.0821 262.5 59.0882C262.5 59.0944 262.5 59.1005 262.5 59.1066C262.5 59.1128 262.5 59.1189 262.5 59.125C262.5 59.1311 262.5 59.1371 262.5 59.1432C262.5 59.1493 262.5 59.1553 262.5 59.1613C262.5 59.1674 262.5 59.1734 262.5 59.1794C262.5 59.1854 262.5 59.1914 262.5 59.1973C262.5 59.2033 262.5 59.2093 262.5 59.2152C262.5 59.2211 262.5 59.227 262.5 59.233C262.5 59.2389 262.5 59.2447 262.5 59.2506C262.5 59.2565 262.5 59.2623 262.5 59.2682C262.5 59.274 262.5 59.2799 262.5 59.2857C262.5 59.2915 262.5 59.2973 262.5 59.303C262.5 59.3088 262.5 59.3146 262.5 59.3203C262.5 59.3261 262.5 59.3318 262.5 59.3375C262.5 59.3432 262.5 59.3489 262.5 59.3546C262.5 59.3603 262.5 59.366 262.5 59.3716C262.5 59.3773 262.5 59.3829 262.5 59.3885C262.5 59.3941 262.5 59.3997 262.5 59.4053C262.5 59.4109 262.5 59.4165 262.5 59.4221C262.5 59.4276 262.5 59.4331 262.5 59.4387C262.5 59.4442 262.5 59.4497 262.5 59.4552C262.5 59.4607 262.5 59.4662 262.5 59.4716C262.5 59.4771 262.5 59.4825 262.5 59.488C262.5 59.4934 262.5 59.4988 262.5 59.5042C262.5 59.5096 262.5 59.515 262.5 59.5204C262.5 59.5257 262.5 59.5311 262.5 59.5364C262.5 59.5417 262.5 59.5471 262.5 59.5524C262.5 59.5577 262.5 59.563 262.5 59.5682C262.5 59.5735 262.5 59.5788 262.5 59.584C262.5 59.5892 262.5 59.5945 262.5 59.5997C262.5 59.6049 262.5 59.6101 262.5 59.6153C262.5 59.6204 262.5 59.6256 262.5 59.6307C262.5 59.6359 262.5 59.641 262.5 59.6461C262.5 59.6512 262.5 59.6563 262.5 59.6614C262.5 59.6665 262.5 59.6716 262.5 59.6766C262.5 59.6817 262.5 59.6867 262.5 59.6917C262.5 59.6967 262.5 59.7017 262.5 59.7067C262.5 59.7117 262.5 59.7167 262.5 59.7216C262.5 59.7266 262.5 59.7315 262.5 59.7365C262.5 59.7414 262.5 59.7463 262.5 59.7512C262.5 59.7561 262.5 59.761 262.5 59.7658C262.5 59.7707 262.5 59.7755 262.5 59.7804C262.5 59.7852 262.5 59.79 262.5 59.7948C262.5 59.7996 262.5 59.8044 262.5 59.8091C262.5 59.8139 262.5 59.8187 262.5 59.8234C262.5 59.8281 262.5 59.8328 262.5 59.8375C262.5 59.8422 262.5 59.8469 262.5 59.8516C262.5 59.8563 262.5 59.8609 262.5 59.8656C262.5 59.8702 262.5 59.8748 262.5 59.8794C262.5 59.884 262.5 59.8886 262.5 59.8932C262.5 59.8978 262.5 59.9024 262.5 59.9069C262.5 59.9114 262.5 59.916 262.5 59.9205C262.5 59.925 262.5 59.9295 262.5 59.934C262.5 59.9385 262.5 59.9429 262.5 59.9474C262.5 59.9518 262.5 59.9562 262.5 59.9607C262.5 59.9651 262.5 59.9695 262.5 59.9739C262.5 59.9783 262.5 59.9826 262.5 59.987C262.5 59.9913 262.5 59.9957 262.5 60H263.5C263.5 59.9957 263.5 59.9913 263.5 59.987C263.5 59.9826 263.5 59.9783 263.5 59.9739C263.5 59.9695 263.5 59.9651 263.5 59.9607C263.5 59.9562 263.5 59.9518 263.5 59.9474C263.5 59.9429 263.5 59.9385 263.5 59.934C263.5 59.9295 263.5 59.925 263.5 59.9205C263.5 59.916 263.5 59.9114 263.5 59.9069C263.5 59.9024 263.5 59.8978 263.5 59.8932C263.5 59.8886 263.5 59.884 263.5 59.8794C263.5 59.8748 263.5 59.8702 263.5 59.8656C263.5 59.8609 263.5 59.8563 263.5 59.8516C263.5 59.8469 263.5 59.8422 263.5 59.8375C263.5 59.8328 263.5 59.8281 263.5 59.8234C263.5 59.8187 263.5 59.8139 263.5 59.8091C263.5 59.8044 263.5 59.7996 263.5 59.7948C263.5 59.79 263.5 59.7852 263.5 59.7804C263.5 59.7755 263.5 59.7707 263.5 59.7658C263.5 59.761 263.5 59.7561 263.5 59.7512C263.5 59.7463 263.5 59.7414 263.5 59.7365C263.5 59.7315 263.5 59.7266 263.5 59.7216C263.5 59.7167 263.5 59.7117 263.5 59.7067C263.5 59.7017 263.5 59.6967 263.5 59.6917C263.5 59.6867 263.5 59.6817 263.5 59.6766C263.5 59.6716 263.5 59.6665 263.5 59.6614C263.5 59.6563 263.5 59.6512 263.5 59.6461C263.5 59.641 263.5 59.6359 263.5 59.6307C263.5 59.6256 263.5 59.6204 263.5 59.6153C263.5 59.6101 263.5 59.6049 263.5 59.5997C263.5 59.5945 263.5 59.5892 263.5 59.584C263.5 59.5788 263.5 59.5735 263.5 59.5682C263.5 59.563 263.5 59.5577 263.5 59.5524C263.5 59.5471 263.5 59.5417 263.5 59.5364C263.5 59.5311 263.5 59.5257 263.5 59.5204C263.5 59.515 263.5 59.5096 263.5 59.5042C263.5 59.4988 263.5 59.4934 263.5 59.488C263.5 59.4825 263.5 59.4771 263.5 59.4716C263.5 59.4662 263.5 59.4607 263.5 59.4552C263.5 59.4497 263.5 59.4442 263.5 59.4387C263.5 59.4331 263.5 59.4276 263.5 59.4221C263.5 59.4165 263.5 59.4109 263.5 59.4053C263.5 59.3997 263.5 59.3941 263.5 59.3885C263.5 59.3829 263.5 59.3773 263.5 59.3716C263.5 59.366 263.5 59.3603 263.5 59.3546C263.5 59.3489 263.5 59.3432 263.5 59.3375C263.5 59.3318 263.5 59.3261 263.5 59.3203C263.5 59.3146 263.5 59.3088 263.5 59.303C263.5 59.2973 263.5 59.2915 263.5 59.2857C263.5 59.2799 263.5 59.274 263.5 59.2682C263.5 59.2623 263.5 59.2565 263.5 59.2506C263.5 59.2447 263.5 59.2389 263.5 59.233C263.5 59.227 263.5 59.2211 263.5 59.2152C263.5 59.2093 263.5 59.2033 263.5 59.1973C263.5 59.1914 263.5 59.1854 263.5 59.1794C263.5 59.1734 263.5 59.1674 263.5 59.1613C263.5 59.1553 263.5 59.1493 263.5 59.1432C263.5 59.1371 263.5 59.1311 263.5 59.125C263.5 59.1189 263.5 59.1128 263.5 59.1066C263.5 59.1005 263.5 59.0944 263.5 59.0882C263.5 59.0821 263.5 59.0759 263.5 59.0697C263.5 59.0635 263.5 59.0573 263.5 59.0511C263.5 59.0449 263.5 59.0386 263.5 59.0324C263.5 59.0261 263.5 59.0199 263.5 59.0136C263.5 59.0073 263.5 59.001 263.5 58.9947C263.5 58.9884 263.5 58.982 263.5 58.9757C263.5 58.9694 263.5 58.963 263.5 58.9566C263.5 58.9502 263.5 58.9438 263.5 58.9374C263.5 58.931 263.5 58.9246 263.5 58.9182C263.5 58.9117 263.5 58.9053 263.5 58.8988C263.5 58.8923 263.5 58.8858 263.5 58.8793C263.5 58.8728 263.5 58.8663 263.5 58.8598C263.5 58.8532 263.5 58.8467 263.5 58.8401C263.5 58.8335 263.5 58.827 263.5 58.8204C263.5 58.8138 263.5 58.8071 263.5 58.8005C263.5 58.7939 263.5 58.7872 263.5 58.7806C263.5 58.7739 263.5 58.7672 263.5 58.7605C263.5 58.7539 263.5 58.7471 263.5 58.7404C263.5 58.7337 263.5 58.727 263.5 58.7202C263.5 58.7134 263.5 58.7067 263.5 58.6999C263.5 58.6931 263.5 58.6863 263.5 58.6795C263.5 58.6726 263.5 58.6658 263.5 58.659C263.5 58.6521 263.5 58.6452 263.5 58.6384C263.5 58.6315 263.5 58.6246 263.5 58.6177C263.5 58.6108 263.5 58.6038 263.5 58.5969C263.5 58.5899 263.5 58.583 263.5 58.576C263.5 58.569 263.5 58.562 263.5 58.555C263.5 58.548 263.5 58.541 263.5 58.5339C263.5 58.5269 263.5 58.5198 263.5 58.5128C263.5 58.5057 263.5 58.4986 263.5 58.4915C263.5 58.4844 263.5 58.4773 263.5 58.4701C263.5 58.463 263.5 58.4559 263.5 58.4487C263.5 58.4415 263.5 58.4343 263.5 58.4272C263.5 58.42 263.5 58.4127 263.5 58.4055C263.5 58.3983 263.5 58.391 263.5 58.3838C263.5 58.3765 263.5 58.3692 263.5 58.3619C263.5 58.3547 263.5 58.3473 263.5 58.34C263.5 58.3327 263.5 58.3254 263.5 58.318C263.5 58.3106 263.5 58.3033 263.5 58.2959C263.5 58.2885 263.5 58.2811 263.5 58.2737C263.5 58.2663 263.5 58.2588 263.5 58.2514C263.5 58.2439 263.5 58.2365 263.5 58.229C263.5 58.2215 263.5 58.214 263.5 58.2065C263.5 58.199 263.5 58.1914 263.5 58.1839C263.5 58.1763 263.5 58.1688 263.5 58.1612C263.5 58.1536 263.5 58.146 263.5 58.1384C263.5 58.1308 263.5 58.1232 263.5 58.1156C263.5 58.1079 263.5 58.1003 263.5 58.0926C263.5 58.0849 263.5 58.0772 263.5 58.0695C263.5 58.0618 263.5 58.0541 263.5 58.0464C263.5 58.0387 263.5 58.0309 263.5 58.0231C263.5 58.0154 263.5 58.0076 263.5 57.9998C263.5 57.992 263.5 57.9842 263.5 57.9764C263.5 57.9685 263.5 57.9607 263.5 57.9528C263.5 57.945 263.5 57.9371 263.5 57.9292C263.5 57.9213 263.5 57.9134 263.5 57.9055C263.5 57.8976 263.5 57.8896 263.5 57.8817C263.5 57.8737 263.5 57.8657 263.5 57.8577C263.5 57.8498 263.5 57.8418 263.5 57.8337C263.5 57.8257 263.5 57.8177 263.5 57.8096C263.5 57.8016 263.5 57.7935 263.5 57.7854C263.5 57.7774 263.5 57.7693 263.5 57.7612C263.5 57.753 263.5 57.7449 263.5 57.7368C263.5 57.7286 263.5 57.7205 263.5 57.7123C263.5 57.7041 263.5 57.6959 263.5 57.6877C263.5 57.6795 263.5 57.6713 263.5 57.6631C263.5 57.6548 263.5 57.6466 263.5 57.6383C263.5 57.63 263.5 57.6217 263.5 57.6134C263.5 57.6051 263.5 57.5968 263.5 57.5885C263.5 57.5802 263.5 57.5718 263.5 57.5635C263.5 57.5551 263.5 57.5467 263.5 57.5383C263.5 57.5299 263.5 57.5215 263.5 57.5131C263.5 57.5047 263.5 57.4962 263.5 57.4878C263.5 57.4793 263.5 57.4708 263.5 57.4623C263.5 57.4538 263.5 57.4453 263.5 57.4368C263.5 57.4283 263.5 57.4198 263.5 57.4112C263.5 57.4026 263.5 57.3941 263.5 57.3855C263.5 57.3769 263.5 57.3683 263.5 57.3597C263.5 57.3511 263.5 57.3425 263.5 57.3338C263.5 57.3252 263.5 57.3165 263.5 57.3078C263.5 57.2991 263.5 57.2904 263.5 57.2817C263.5 57.273 263.5 57.2643 263.5 57.2556C263.5 57.2468 263.5 57.2381 263.5 57.2293C263.5 57.2205 263.5 57.2117 263.5 57.2029C263.5 57.1941 263.5 57.1853 263.5 57.1765C263.5 57.1676 263.5 57.1588 263.5 57.1499C263.5 57.141 263.5 57.1322 263.5 57.1233C263.5 57.1144 263.5 57.1054 263.5 57.0965C263.5 57.0876 263.5 57.0786 263.5 57.0697C263.5 57.0607 263.5 57.0517 263.5 57.0427C263.5 57.0337 263.5 57.0247 263.5 57.0157C263.5 57.0067 263.5 56.9976 263.5 56.9886C263.5 56.9795 263.5 56.9705 263.5 56.9614C263.5 56.9523 263.5 56.9432 263.5 56.9341C263.5 56.9249 263.5 56.9158 263.5 56.9067C263.5 56.8975 263.5 56.8883 263.5 56.8792C263.5 56.87 263.5 56.8608 263.5 56.8516C263.5 56.8424 263.5 56.8331 263.5 56.8239C263.5 56.8146 263.5 56.8054 263.5 56.7961C263.5 56.7868 263.5 56.7775 263.5 56.7682C263.5 56.7589 263.5 56.7496 263.5 56.7403C263.5 56.7309 263.5 56.7216 263.5 56.7122C263.5 56.7028 263.5 56.6934 263.5 56.684C263.5 56.6746 263.5 56.6652 263.5 56.6558C263.5 56.6463 263.5 56.6369 263.5 56.6274C263.5 56.618 263.5 56.6085 263.5 56.599C263.5 56.5895 263.5 56.58 263.5 56.5705C263.5 56.5609 263.5 56.5514 263.5 56.5418C263.5 56.5323 263.5 56.5227 263.5 56.5131C263.5 56.5035 263.5 56.4939 263.5 56.4843C263.5 56.4747 263.5 56.465 263.5 56.4554C263.5 56.4457 263.5 56.436 263.5 56.4264C263.5 56.4167 263.5 56.407 263.5 56.3973C263.5 56.3875 263.5 56.3778 263.5 56.3681C263.5 56.3583 263.5 56.3486 263.5 56.3388C263.5 56.329 263.5 56.3192 263.5 56.3094C263.5 56.2996 263.5 56.2898 263.5 56.2799C263.5 56.2701 263.5 56.2602 263.5 56.2503C263.5 56.2405 263.5 56.2306 263.5 56.2207C263.5 56.2108 263.5 56.2008 263.5 56.1909C263.5 56.181 263.5 56.171 263.5 56.1611C263.5 56.1511 263.5 56.1411 263.5 56.1311C263.5 56.1211 263.5 56.1111 263.5 56.1011C263.5 56.091 263.5 56.081 263.5 56.0709C263.5 56.0609 263.5 56.0508 263.5 56.0407C263.5 56.0306 263.5 56.0205 263.5 56.0104C263.5 56.0002 263.5 55.9901 263.5 55.9799C263.5 55.9698 263.5 55.9596 263.5 55.9494C263.5 55.9392 263.5 55.929 263.5 55.9188C263.5 55.9086 263.5 55.8984 263.5 55.8881C263.5 55.8779 263.5 55.8676 263.5 55.8573C263.5 55.847 263.5 55.8367 263.5 55.8264C263.5 55.8161 263.5 55.8058 263.5 55.7954C263.5 55.7851 263.5 55.7747 263.5 55.7644C263.5 55.754 263.5 55.7436 263.5 55.7332C263.5 55.7228 263.5 55.7124 263.5 55.7019C263.5 55.6915 263.5 55.681 263.5 55.6706C263.5 55.6601 263.5 55.6496 263.5 55.6391C263.5 55.6286 263.5 55.6181 263.5 55.6075C263.5 55.597 263.5 55.5865 263.5 55.5759C263.5 55.5653 263.5 55.5548 263.5 55.5442C263.5 55.5336 263.5 55.523 263.5 55.5123C263.5 55.5017 263.5 55.4911 263.5 55.4804C263.5 55.4697 263.5 55.4591 263.5 55.4484C263.5 55.4377 263.5 55.427 263.5 55.4163C263.5 55.4055 263.5 55.3948 263.5 55.3841C263.5 55.3733 263.5 55.3625 263.5 55.3517C263.5 55.341 263.5 55.3302 263.5 55.3194C263.5 55.3085 263.5 55.2977 263.5 55.2869C263.5 55.276 263.5 55.2651 263.5 55.2543C263.5 55.2434 263.5 55.2325 263.5 55.2216C263.5 55.2107 263.5 55.1998 263.5 55.1888C263.5 55.1779 263.5 55.1669 263.5 55.1559C263.5 55.145 263.5 55.134 263.5 55.123C263.5 55.112 263.5 55.101 263.5 55.0899C263.5 55.0789 263.5 55.0678 263.5 55.0568C263.5 55.0457 263.5 55.0346 263.5 55.0235C263.5 55.0124 263.5 55.0013 263.5 54.9902C263.5 54.9791 263.5 54.9679 263.5 54.9568C263.5 54.9456 263.5 54.9344 263.5 54.9232C263.5 54.912 263.5 54.9008 263.5 54.8896C263.5 54.8784 263.5 54.8671 263.5 54.8559C263.5 54.8446 263.5 54.8334 263.5 54.8221C263.5 54.8108 263.5 54.7995 263.5 54.7882C263.5 54.7769 263.5 54.7655 263.5 54.7542C263.5 54.7428 263.5 54.7315 263.5 54.7201C263.5 54.7087 263.5 54.6973 263.5 54.6859C263.5 54.6745 263.5 54.6631 263.5 54.6516C263.5 54.6402 263.5 54.6287 263.5 54.6173C263.5 54.6058 263.5 54.5943 263.5 54.5828C263.5 54.5713 263.5 54.5598 263.5 54.5482C263.5 54.5367 263.5 54.5251 263.5 54.5136C263.5 54.502 263.5 54.4904 263.5 54.4788C263.5 54.4672 263.5 54.4556 263.5 54.444C263.5 54.4323 263.5 54.4207 263.5 54.409C263.5 54.3974 263.5 54.3857 263.5 54.374C263.5 54.3623 263.5 54.3506 263.5 54.3389C263.5 54.3272 263.5 54.3154 263.5 54.3037C263.5 54.2919 263.5 54.2801 263.5 54.2683C263.5 54.2566 263.5 54.2448 263.5 54.2329C263.5 54.2211 263.5 54.2093 263.5 54.1974C263.5 54.1856 263.5 54.1737 263.5 54.1618C263.5 54.15 263.5 54.1381 263.5 54.1261C263.5 54.1142 263.5 54.1023 263.5 54.0904C263.5 54.0784 263.5 54.0665 263.5 54.0545C263.5 54.0425 263.5 54.0305 263.5 54.0185C263.5 54.0065 263.5 53.9945 263.5 53.9824C263.5 53.9704 263.5 53.9584 263.5 53.9463C263.5 53.9342 263.5 53.9221 263.5 53.91C263.5 53.8979 263.5 53.8858 263.5 53.8737C263.5 53.8616 263.5 53.8494 263.5 53.8372C263.5 53.8251 263.5 53.8129 263.5 53.8007C263.5 53.7885 263.5 53.7763 263.5 53.7641C263.5 53.7519 263.5 53.7396 263.5 53.7274C263.5 53.7151 263.5 53.7028 263.5 53.6905C263.5 53.6782 263.5 53.6659 263.5 53.6536C263.5 53.6413 263.5 53.629 263.5 53.6166C263.5 53.6043 263.5 53.5919 263.5 53.5795C263.5 53.5671 263.5 53.5547 263.5 53.5423C263.5 53.5299 263.5 53.5175 263.5 53.505C263.5 53.4926 263.5 53.4801 263.5 53.4677C263.5 53.4552 263.5 53.4427 263.5 53.4302C263.5 53.4177 263.5 53.4052 263.5 53.3926C263.5 53.3801 263.5 53.3675 263.5 53.355C263.5 53.3424 263.5 53.3298 263.5 53.3172C263.5 53.3046 263.5 53.292 263.5 53.2794C263.5 53.2667 263.5 53.2541 263.5 53.2414C263.5 53.2287 263.5 53.2161 263.5 53.2034C263.5 53.1907 263.5 53.178 263.5 53.1652C263.5 53.1525 263.5 53.1398 263.5 53.127C263.5 53.1143 263.5 53.1015 263.5 53.0887C263.5 53.0759 263.5 53.0631 263.5 53.0503C263.5 53.0375 263.5 53.0246 263.5 53.0118C263.5 52.9989 263.5 52.9861 263.5 52.9732C263.5 52.9603 263.5 52.9474 263.5 52.9345C263.5 52.9216 263.5 52.9086 263.5 52.8957C263.5 52.8827 263.5 52.8698 263.5 52.8568C263.5 52.8438 263.5 52.8308 263.5 52.8178C263.5 52.8048 263.5 52.7918 263.5 52.7788C263.5 52.7657 263.5 52.7527 263.5 52.7396C263.5 52.7265 263.5 52.7134 263.5 52.7003C263.5 52.6872 263.5 52.6741 263.5 52.661C263.5 52.6479 263.5 52.6347 263.5 52.6215C263.5 52.6084 263.5 52.5952 263.5 52.582C263.5 52.5688 263.5 52.5556 263.5 52.5424C263.5 52.5291 263.5 52.5159 263.5 52.5026C263.5 52.4894 263.5 52.4761 263.5 52.4628C263.5 52.4495 263.5 52.4362 263.5 52.4229C263.5 52.4096 263.5 52.3962 263.5 52.3829C263.5 52.3695 263.5 52.3562 263.5 52.3428C263.5 52.3294 263.5 52.316 263.5 52.3026C263.5 52.2892 263.5 52.2758 263.5 52.2623C263.5 52.2489 263.5 52.2354 263.5 52.2219C263.5 52.2084 263.5 52.195 263.5 52.1814C263.5 52.1679 263.5 52.1544 263.5 52.1409C263.5 52.1273 263.5 52.1138 263.5 52.1002C263.5 52.0866 263.5 52.0731 263.5 52.0595C263.5 52.0459 263.5 52.0322 263.5 52.0186C263.5 52.005 263.5 51.9913 263.5 51.9777C263.5 51.964 263.5 51.9503 263.5 51.9366C263.5 51.9229 263.5 51.9092 263.5 51.8955C263.5 51.8818 263.5 51.868 263.5 51.8543C263.5 51.8405 263.5 51.8267 263.5 51.8129C263.5 51.7991 263.5 51.7853 263.5 51.7715C263.5 51.7577 263.5 51.7439 263.5 51.73C263.5 51.7162 263.5 51.7023 263.5 51.6884C263.5 51.6745 263.5 51.6606 263.5 51.6467C263.5 51.6328 263.5 51.6189 263.5 51.6049C263.5 51.591 263.5 51.577 263.5 51.563C263.5 51.5491 263.5 51.5351 263.5 51.5211C263.5 51.5071 263.5 51.493 263.5 51.479C263.5 51.465 263.5 51.4509 263.5 51.4368C263.5 51.4228 263.5 51.4087 263.5 51.3946C263.5 51.3805 263.5 51.3664 263.5 51.3522C263.5 51.3381 263.5 51.3239 263.5 51.3098C263.5 51.2956 263.5 51.2814 263.5 51.2672C263.5 51.253 263.5 51.2388 263.5 51.2246C263.5 51.2104 263.5 51.1961 263.5 51.1819C263.5 51.1676 263.5 51.1534 263.5 51.1391C263.5 51.1248 263.5 51.1105 263.5 51.0961C263.5 51.0818 263.5 51.0675 263.5 51.0531C263.5 51.0388 263.5 51.0244 263.5 51.01C263.5 50.9957 263.5 50.9813 263.5 50.9668C263.5 50.9524 263.5 50.938 263.5 50.9236C263.5 50.9091 263.5 50.8946 263.5 50.8802C263.5 50.8657 263.5 50.8512 263.5 50.8367C263.5 50.8222 263.5 50.8077 263.5 50.7931C263.5 50.7786 263.5 50.764 263.5 50.7495C263.5 50.7349 263.5 50.7203 263.5 50.7057C263.5 50.6911 263.5 50.6765 263.5 50.6619C263.5 50.6472 263.5 50.6326 263.5 50.6179C263.5 50.6033 263.5 50.5886 263.5 50.5739C263.5 50.5592 263.5 50.5445 263.5 50.5298C263.5 50.515 263.5 50.5003 263.5 50.4855C263.5 50.4708 263.5 50.456 263.5 50.4412C263.5 50.4264 263.5 50.4116 263.5 50.3968C263.5 50.382 263.5 50.3671 263.5 50.3523C263.5 50.3374 263.5 50.3226 263.5 50.3077C263.5 50.2928 263.5 50.2779 263.5 50.263C263.5 50.2481 263.5 50.2332 263.5 50.2182C263.5 50.2033 263.5 50.1883 263.5 50.1733C263.5 50.1584 263.5 50.1434 263.5 50.1284C263.5 50.1134 263.5 50.0983 263.5 50.0833C263.5 50.0683 263.5 50.0532 263.5 50.0381C263.5 50.0231 263.5 50.008 263.5 49.9929C263.5 49.9778 263.5 49.9627 263.5 49.9475C263.5 49.9324 263.5 49.9173 263.5 49.9021C263.5 49.8869 263.5 49.8718 263.5 49.8566C263.5 49.8414 263.5 49.8262 263.5 49.8109C263.5 49.7957 263.5 49.7805 263.5 49.7652C263.5 49.75 263.5 49.7347 263.5 49.7194C263.5 49.7041 263.5 49.6888 263.5 49.6735C263.5 49.6582 263.5 49.6428 263.5 49.6275C263.5 49.6121 263.5 49.5968 263.5 49.5814C263.5 49.566 263.5 49.5506 263.5 49.5352C263.5 49.5198 263.5 49.5044 263.5 49.4889C263.5 49.4735 263.5 49.458 263.5 49.4426C263.5 49.4271 263.5 49.4116 263.5 49.3961C263.5 49.3806 263.5 49.3651 263.5 49.3495C263.5 49.334 263.5 49.3184 263.5 49.3029C263.5 49.2873 263.5 49.2717 263.5 49.2561C263.5 49.2405 263.5 49.2249 263.5 49.2093C263.5 49.1936 263.5 49.178 263.5 49.1623C263.5 49.1467 263.5 49.131 263.5 49.1153C263.5 49.0996 263.5 49.0839 263.5 49.0682C263.5 49.0525 263.5 49.0367 263.5 49.021C263.5 49.0052 263.5 48.9894 263.5 48.9737C263.5 48.9579 263.5 48.9421 263.5 48.9263C263.5 48.9104 263.5 48.8946 263.5 48.8788C263.5 48.8629 263.5 48.847 263.5 48.8312C263.5 48.8153 263.5 48.7994 263.5 48.7835C263.5 48.7676 263.5 48.7516 263.5 48.7357C263.5 48.7198 263.5 48.7038 263.5 48.6878C263.5 48.6719 263.5 48.6559 263.5 48.6399C263.5 48.6239 263.5 48.6078 263.5 48.5918C263.5 48.5758 263.5 48.5597 263.5 48.5437C263.5 48.5276 263.5 48.5115 263.5 48.4954C263.5 48.4793 263.5 48.4632 263.5 48.4471C263.5 48.4309 263.5 48.4148 263.5 48.3986C263.5 48.3825 263.5 48.3663 263.5 48.3501C263.5 48.3339 263.5 48.3177 263.5 48.3015C263.5 48.2853 263.5 48.269 263.5 48.2528C263.5 48.2365 263.5 48.2203 263.5 48.204C263.5 48.1877 263.5 48.1714 263.5 48.1551C263.5 48.1388 263.5 48.1224 263.5 48.1061C263.5 48.0897 263.5 48.0734 263.5 48.057C263.5 48.0406 263.5 48.0242 263.5 48.0078C263.5 47.9914 263.5 47.975 263.5 47.9586C263.5 47.9421 263.5 47.9257 263.5 47.9092C263.5 47.8927 263.5 47.8762 263.5 47.8597C263.5 47.8432 263.5 47.8267 263.5 47.8102C263.5 47.7936 263.5 47.7771 263.5 47.7605C263.5 47.744 263.5 47.7274 263.5 47.7108C263.5 47.6942 263.5 47.6776 263.5 47.661C263.5 47.6443 263.5 47.6277 263.5 47.611C263.5 47.5944 263.5 47.5777 263.5 47.561C263.5 47.5443 263.5 47.5276 263.5 47.5109C263.5 47.4942 263.5 47.4775 263.5 47.4607C263.5 47.444 263.5 47.4272 263.5 47.4104C263.5 47.3936 263.5 47.3768 263.5 47.36C263.5 47.3432 263.5 47.3264 263.5 47.3095C263.5 47.2927 263.5 47.2758 263.5 47.2589C263.5 47.2421 263.5 47.2252 263.5 47.2083C263.5 47.1914 263.5 47.1744 263.5 47.1575C263.5 47.1406 263.5 47.1236 263.5 47.1067C263.5 47.0897 263.5 47.0727 263.5 47.0557C263.5 47.0387 263.5 47.0217 263.5 47.0047C263.5 46.9876 263.5 46.9706 263.5 46.9535C263.5 46.9365 263.5 46.9194 263.5 46.9023C263.5 46.8852 263.5 46.8681 263.5 46.851C263.5 46.8338 263.5 46.8167 263.5 46.7995C263.5 46.7824 263.5 46.7652 263.5 46.748C263.5 46.7308 263.5 46.7136 263.5 46.6964C263.5 46.6792 263.5 46.662 263.5 46.6447C263.5 46.6275 263.5 46.6102 263.5 46.5929C263.5 46.5757 263.5 46.5584 263.5 46.5411C263.5 46.5237 263.5 46.5064 263.5 46.4891C263.5 46.4717 263.5 46.4544 263.5 46.437C263.5 46.4196 263.5 46.4022 263.5 46.3848C263.5 46.3674 263.5 46.35 263.5 46.3326C263.5 46.3152 263.5 46.2977 263.5 46.2802C263.5 46.2628 263.5 46.2453 263.5 46.2278C263.5 46.2103 263.5 46.1928 263.5 46.1753C263.5 46.1577 263.5 46.1402 263.5 46.1226C263.5 46.1051 263.5 46.0875 263.5 46.0699C263.5 46.0523 263.5 46.0347 263.5 46.0171C263.5 45.9995 263.5 45.9818 263.5 45.9642C263.5 45.9465 263.5 45.9289 263.5 45.9112C263.5 45.8935 263.5 45.8758 263.5 45.8581C263.5 45.8404 263.5 45.8226 263.5 45.8049C263.5 45.7871 263.5 45.7694 263.5 45.7516C263.5 45.7338 263.5 45.716 263.5 45.6982C263.5 45.6804 263.5 45.6626 263.5 45.6448C263.5 45.6269 263.5 45.6091 263.5 45.5912C263.5 45.5733 263.5 45.5554 263.5 45.5375C263.5 45.5196 263.5 45.5017 263.5 45.4838C263.5 45.4659 263.5 45.4479 263.5 45.4299C263.5 45.412 263.5 45.394 263.5 45.376C263.5 45.358 263.5 45.34 263.5 45.322C263.5 45.304 263.5 45.2859 263.5 45.2679C263.5 45.2498 263.5 45.2317 263.5 45.2136C263.5 45.1956 263.5 45.1775 263.5 45.1593C263.5 45.1412 263.5 45.1231 263.5 45.1049C263.5 45.0868 263.5 45.0686 263.5 45.0504C263.5 45.0323 263.5 45.0141 263.5 44.9959C263.5 44.9776 263.5 44.9594 263.5 44.9412C263.5 44.9229 263.5 44.9047 263.5 44.8864C263.5 44.8681 263.5 44.8498 263.5 44.8315C263.5 44.8132 263.5 44.7949 263.5 44.7766C263.5 44.7582 263.5 44.7399 263.5 44.7215C263.5 44.7032 263.5 44.6848 263.5 44.6664C263.5 44.648 263.5 44.6296 263.5 44.6111C263.5 44.5927 263.5 44.5743 263.5 44.5558C263.5 44.5374 263.5 44.5189 263.5 44.5004C263.5 44.4819 263.5 44.4634 263.5 44.4449C263.5 44.4263 263.5 44.4078 263.5 44.3893C263.5 44.3707 263.5 44.3521 263.5 44.3336C263.5 44.315 263.5 44.2964 263.5 44.2778C263.5 44.2591 263.5 44.2405 263.5 44.2219C263.5 44.2032 263.5 44.1846 263.5 44.1659C263.5 44.1472 263.5 44.1285 263.5 44.1098C263.5 44.0911 263.5 44.0724 263.5 44.0536C263.5 44.0349 263.5 44.0161 263.5 43.9974C263.5 43.9786 263.5 43.9598 263.5 43.941C263.5 43.9222 263.5 43.9034 263.5 43.8846C263.5 43.8657 263.5 43.8469 263.5 43.828C263.5 43.8092 263.5 43.7903 263.5 43.7714C263.5 43.7525 263.5 43.7336 263.5 43.7147C263.5 43.6957 263.5 43.6768 263.5 43.6578C263.5 43.6389 263.5 43.6199 263.5 43.6009C263.5 43.5819 263.5 43.5629 263.5 43.5439C263.5 43.5249 263.5 43.5059 263.5 43.4868C263.5 43.4678 263.5 43.4487 263.5 43.4296C263.5 43.4106 263.5 43.3915 263.5 43.3723C263.5 43.3532 263.5 43.3341 263.5 43.315C263.5 43.2958 263.5 43.2767 263.5 43.2575C263.5 43.2383 263.5 43.2191 263.5 43.1999C263.5 43.1807 263.5 43.1615 263.5 43.1423C263.5 43.123 263.5 43.1038 263.5 43.0845C263.5 43.0653 263.5 43.046 263.5 43.0267C263.5 43.0074 263.5 42.9881 263.5 42.9687C263.5 42.9494 263.5 42.9301 263.5 42.9107C263.5 42.8914 263.5 42.872 263.5 42.8526C263.5 42.8332 263.5 42.8138 263.5 42.7944C263.5 42.775 263.5 42.7555 263.5 42.7361C263.5 42.7166 263.5 42.6972 263.5 42.6777C263.5 42.6582 263.5 42.6387 263.5 42.6192C263.5 42.5997 263.5 42.5801 263.5 42.5606C263.5 42.541 263.5 42.5215 263.5 42.5019C263.5 42.4823 263.5 42.4627 263.5 42.4431C263.5 42.4235 263.5 42.4039 263.5 42.3843C263.5 42.3646 263.5 42.345 263.5 42.3253C263.5 42.3056 263.5 42.286 263.5 42.2663C263.5 42.2466 263.5 42.2268 263.5 42.2071C263.5 42.1874 263.5 42.1676 263.5 42.1479C263.5 42.1281 263.5 42.1083 263.5 42.0885C263.5 42.0687 263.5 42.0489 263.5 42.0291C263.5 42.0093 263.5 41.9895 263.5 41.9696C263.5 41.9497 263.5 41.9299 263.5 41.91C263.5 41.8901 263.5 41.8702 263.5 41.8503C263.5 41.8304 263.5 41.8104 263.5 41.7905C263.5 41.7705 263.5 41.7506 263.5 41.7306C263.5 41.7106 263.5 41.6906 263.5 41.6706C263.5 41.6506 263.5 41.6306 263.5 41.6105C263.5 41.5905 263.5 41.5705 263.5 41.5504C263.5 41.5303 263.5 41.5102 263.5 41.4901C263.5 41.47 263.5 41.4499 263.5 41.4298C263.5 41.4096 263.5 41.3895 263.5 41.3693C263.5 41.3492 263.5 41.329 263.5 41.3088C263.5 41.2886 263.5 41.2684 263.5 41.2482C263.5 41.2279 263.5 41.2077 263.5 41.1874C263.5 41.1672 263.5 41.1469 263.5 41.1266C263.5 41.1063 263.5 41.086 263.5 41.0657C263.5 41.0454 263.5 41.0251 263.5 41.0047H262.5ZM252 30.5C257.799 30.5 262.5 35.2054 262.5 41.0047H263.5C263.5 34.6537 258.352 29.5 252 29.5V30.5ZM0.5 19.0046C0.5 25.3561 5.649 30.5 12 30.5V29.5C6.20074 29.5 1.5 24.8033 1.5 19.0046H0.5Z" fill="#9D9C98"/>
</svg>
