<svg width="15" height="15" viewBox="0 0 15 15" fill="none" xmlns="http://www.w3.org/2000/svg">
<path d="M12.2718 14.272C12.913 14.4832 13.6154 14.6945 14.4399 14.9661C14.8369 15.0868 15.0812 14.8755 14.959 14.4531C14.6842 13.6685 14.4704 12.9442 14.2567 12.3105C14.1651 11.9786 13.7375 11.6466 13.3406 11.5561C12.5466 11.3449 11.9053 11.1638 11.3251 11.0129C11.0503 10.9224 10.8976 11.0733 10.9587 11.375C11.1114 11.9484 11.2946 12.5821 11.5083 13.3667C11.6305 13.7288 11.9664 14.1513 12.2718 14.272Z" fill="#EC1026"/>
<path d="M11.3303 3.9844C11.9106 3.83352 12.5518 3.65245 13.3458 3.44122C13.7428 3.35069 14.1703 2.98856 14.2619 2.6868C14.4757 2.05308 14.6894 1.35901 14.9643 0.54424C15.0864 0.151941 14.8726 -0.0894734 14.4451 0.0312339C13.6512 0.302825 12.9183 0.514063 12.277 0.725301C11.9411 0.815832 11.6052 1.23831 11.5136 1.63061C11.2998 2.4152 11.1166 3.07909 10.9639 3.62228C10.8723 3.92405 11.025 4.07493 11.3303 3.9844Z" fill="#EC1026"/>
<path d="M10.7791 6.39711C11.2982 6.33676 11.9395 6.2764 12.7029 6.18587C13.0999 6.1557 13.4663 5.91428 13.4969 5.70304C13.5885 5.25039 13.7106 4.73738 13.8633 4.1942C13.9244 3.92261 13.6496 3.77173 13.2526 3.86226C12.4892 4.07349 11.8173 4.25456 11.2371 4.40544C10.9623 4.49597 10.6875 4.73738 10.6264 4.9788C10.5042 5.43145 10.4126 5.82375 10.3516 6.1557C10.3516 6.30658 10.5042 6.42729 10.7791 6.39711Z" fill="#EC1026"/>
<path d="M10.7537 8.29844C11.2728 8.35879 11.9141 8.41915 12.6775 8.4795C13.0745 8.50968 13.3799 8.35879 13.3799 8.14755C13.3493 7.72508 13.3493 7.3026 13.3799 6.84995C13.4104 6.63871 13.0745 6.48783 12.6775 6.51801C11.9141 6.57836 11.3033 6.63871 10.7537 6.69907C10.4789 6.72924 10.2651 6.88013 10.2651 7.03101C10.2346 7.33278 10.2346 7.63455 10.2651 7.96649C10.2956 8.11738 10.5094 8.26826 10.7537 8.29844Z" fill="#EC1026"/>
<path d="M7.11677 4.67955C7.42214 4.70973 7.72751 4.70973 8.06342 4.67955C8.2161 4.67955 8.36879 4.46832 8.39932 4.19673C8.4604 3.68372 8.52147 3.05001 8.58255 2.29558C8.61308 1.90329 8.4604 1.60152 8.24664 1.60152C7.81912 1.63169 7.3916 1.63169 6.93355 1.60152C6.71979 1.57134 6.5671 1.90329 6.59764 2.29558C6.65871 3.05001 6.71979 3.68372 6.78086 4.19673C6.8114 4.46832 6.96408 4.64938 7.11677 4.67955Z" fill="#EC1026"/>
<path d="M6.74082 13.3941C7.16833 13.364 7.59585 13.364 8.05391 13.3941C8.26767 13.4243 8.42035 13.0924 8.38981 12.7001C8.32874 11.9456 8.26767 11.3119 8.20659 10.7989C8.17606 10.5273 8.02337 10.3161 7.87068 10.3161C7.56531 10.2859 7.25994 10.2859 6.95457 10.3161C6.80189 10.3161 6.6492 10.5273 6.61867 10.7989C6.55759 11.3119 6.49652 11.9456 6.43545 12.7001C6.37437 13.0924 6.52706 13.4243 6.74082 13.3941Z" fill="#EC1026"/>
<path d="M9.25501 13.5177C9.71307 13.6082 10.2322 13.7289 10.7819 13.8496C11.0567 13.91 11.2094 13.6384 11.1178 13.2461C10.904 12.4916 10.7208 11.8278 10.5681 11.2544C10.4765 10.9828 10.2322 10.7112 9.9879 10.6509C9.52985 10.5302 9.13286 10.4396 8.79696 10.3793C8.61374 10.3491 8.52212 10.5302 8.55266 10.7716C8.61374 11.2846 8.67481 11.9183 8.76642 12.6727C8.79696 13.1254 9.01072 13.4875 9.25501 13.5177Z" fill="#EC1026"/>
<path d="M5.00807 4.28155C5.46612 4.40226 5.8631 4.49279 6.19901 4.55314C6.38223 4.58332 6.47384 4.40226 6.4433 4.16085C6.38223 3.64784 6.32116 3.01413 6.22955 2.2597C6.19901 1.89758 5.95471 1.50528 5.74095 1.47511C5.2829 1.38458 4.76377 1.26387 4.2141 1.14316C3.93927 1.08281 3.78658 1.3544 3.8782 1.7467C4.09195 2.5313 4.27518 3.16501 4.42786 3.73837C4.51947 3.97978 4.76377 4.2212 5.00807 4.28155Z" fill="#EC1026"/>
<path d="M1.65007 3.43938C2.44403 3.65062 3.08531 3.83168 3.66551 3.98256C3.94034 4.07309 4.09303 3.92221 4.03195 3.62044C3.87927 3.04708 3.69605 2.41337 3.48229 1.62877C3.39068 1.23647 3.02423 0.813996 2.71886 0.723465C2.07759 0.542404 1.3447 0.300989 0.550736 0.0595747C0.153755 -0.0913094 -0.0905413 0.150105 0.0316067 0.542404C0.30644 1.327 0.520199 2.05125 0.733958 2.68496C0.856106 3.0169 1.28362 3.34885 1.65007 3.43938Z" fill="#EC1026"/>
<path d="M2.32147 8.48106C3.0849 8.42071 3.72617 8.36035 4.2453 8.3C4.52013 8.26982 4.73389 8.11894 4.73389 7.96805C4.76443 7.66629 4.76443 7.36452 4.73389 7.06275C4.70336 6.91187 4.52013 6.76098 4.2453 6.7308C3.72617 6.67045 3.0849 6.6101 2.32147 6.54974C1.95503 6.51957 1.61912 6.67045 1.61912 6.88169C1.64966 7.30416 1.64966 7.72664 1.61912 8.17929C1.58858 8.36035 1.92449 8.51124 2.32147 8.48106Z" fill="#EC1026"/>
<path d="M0.550736 14.9664C1.3447 14.6948 2.07759 14.4835 2.71886 14.2723C3.05477 14.1818 3.39068 13.7593 3.48229 13.367C3.69605 12.5824 3.87927 11.9487 4.03195 11.3753C4.12357 11.1037 3.97088 10.9529 3.66551 11.0132C3.08531 11.1641 2.44403 11.3452 1.65007 11.5564C1.25309 11.6469 0.825569 12.009 0.733958 12.3108C0.520199 12.9445 0.30644 13.6386 0.0316067 14.4534C-0.0905413 14.8758 0.153755 15.0871 0.550736 14.9664Z" fill="#EC1026"/>
<path d="M1.74301 11.1641C2.50643 10.9529 3.17825 10.7718 3.75845 10.6209C4.03328 10.5304 4.30812 10.289 4.36919 10.0476C4.49134 9.59491 4.58295 9.20261 4.64402 8.87067C4.67456 8.68961 4.49134 8.59908 4.24704 8.62925C3.72791 8.68961 3.08664 8.74996 2.32321 8.84049C1.92623 8.87067 1.55979 9.11208 1.52925 9.32332C1.43764 9.77597 1.31549 10.289 1.19334 10.8322C1.07119 11.1038 1.34603 11.2546 1.74301 11.1641Z" fill="#EC1026"/>
</svg>
