<svg width="50" height="50" viewBox="0 0 50 50" fill="none" xmlns="http://www.w3.org/2000/svg">
<path d="M14.6366 10.8851C14.7528 10.7689 14.845 10.6309 14.9079 10.4791C14.9708 10.3272 15.0032 10.1645 15.0032 10.0001C15.0032 9.83575 14.9708 9.673 14.9079 9.52116C14.845 9.36931 14.7528 9.23133 14.6366 9.11511C14.5204 8.99889 14.3824 8.9067 14.2305 8.84381C14.0787 8.78091 13.9159 8.74854 13.7516 8.74854C13.5872 8.74854 13.4245 8.78091 13.2726 8.84381C13.1208 8.9067 12.9828 8.99889 12.8666 9.11511L8.75158 13.2326L7.13658 11.6151C6.90186 11.3804 6.58352 11.2485 6.25158 11.2485C5.91964 11.2485 5.6013 11.3804 5.36658 11.6151C5.13186 11.8498 5 12.1682 5 12.5001C5 12.6645 5.03237 12.8272 5.09527 12.9791C5.15817 13.1309 5.25036 13.2689 5.36658 13.3851L7.86658 15.8851C7.98269 16.0015 8.12063 16.0939 8.27249 16.1569C8.42436 16.2199 8.58716 16.2523 8.75158 16.2523C8.916 16.2523 9.0788 16.2199 9.23066 16.1569C9.38253 16.0939 9.52046 16.0015 9.63658 15.8851L14.6366 10.8851ZM21.2516 12.5001C20.9201 12.5001 20.6021 12.6318 20.3677 12.8662C20.1333 13.1007 20.0016 13.4186 20.0016 13.7501C20.0016 14.0816 20.1333 14.3996 20.3677 14.634C20.6021 14.8684 20.9201 15.0001 21.2516 15.0001H43.7516C44.0831 15.0001 44.401 14.8684 44.6355 14.634C44.8699 14.3996 45.0016 14.0816 45.0016 13.7501C45.0016 13.4186 44.8699 13.1007 44.6355 12.8662C44.401 12.6318 44.0831 12.5001 43.7516 12.5001H21.2516ZM21.2516 25.0001C20.9201 25.0001 20.6021 25.1318 20.3677 25.3662C20.1333 25.6007 20.0016 25.9186 20.0016 26.2501C20.0016 26.5816 20.1333 26.8996 20.3677 27.134C20.6021 27.3684 20.9201 27.5001 21.2516 27.5001H43.7516C44.0831 27.5001 44.401 27.3684 44.6355 27.134C44.8699 26.8996 45.0016 26.5816 45.0016 26.2501C45.0016 25.9186 44.8699 25.6007 44.6355 25.3662C44.401 25.1318 44.0831 25.0001 43.7516 25.0001H21.2516ZM20.0016 38.7501C20.0016 38.4186 20.1333 38.1007 20.3677 37.8662C20.6021 37.6318 20.9201 37.5001 21.2516 37.5001H43.7516C44.0831 37.5001 44.401 37.6318 44.6355 37.8662C44.8699 38.1007 45.0016 38.4186 45.0016 38.7501C45.0016 39.0816 44.8699 39.3996 44.6355 39.634C44.401 39.8684 44.0831 40.0001 43.7516 40.0001H21.2516C20.9201 40.0001 20.6021 39.8684 20.3677 39.634C20.1333 39.3996 20.0016 39.0816 20.0016 38.7501ZM14.6366 24.6351C14.8713 24.4004 15.0032 24.0821 15.0032 23.7501C15.0032 23.4182 14.8713 23.0998 14.6366 22.8651C14.4019 22.6304 14.0835 22.4985 13.7516 22.4985C13.4196 22.4985 13.1013 22.6304 12.8666 22.8651L8.75158 26.9826L7.13658 25.3651C6.90186 25.1304 6.58352 24.9985 6.25158 24.9985C5.91964 24.9985 5.6013 25.1304 5.36658 25.3651C5.13186 25.5998 5 25.9182 5 26.2501C5 26.5821 5.13186 26.9004 5.36658 27.1351L7.86658 29.6351C7.98269 29.7515 8.12063 29.8439 8.27249 29.9069C8.42436 29.9699 8.58716 30.0023 8.75158 30.0023C8.916 30.0023 9.0788 29.9699 9.23066 29.9069C9.38253 29.8439 9.52046 29.7515 9.63658 29.6351L14.6366 24.6351ZM14.6366 35.3651C14.753 35.4812 14.8453 35.6192 14.9084 35.771C14.9714 35.9229 15.0038 36.0857 15.0038 36.2501C15.0038 36.4145 14.9714 36.5773 14.9084 36.7292C14.8453 36.8811 14.753 37.019 14.6366 37.1351L9.63658 42.1351C9.52046 42.2515 9.38253 42.3439 9.23066 42.4069C9.0788 42.4699 8.916 42.5023 8.75158 42.5023C8.58716 42.5023 8.42436 42.4699 8.27249 42.4069C8.12063 42.3439 7.98269 42.2515 7.86658 42.1351L5.36658 39.6351C5.13186 39.4004 5 39.0821 5 38.7501C5 38.4182 5.13186 38.0998 5.36658 37.8651C5.6013 37.6304 5.91964 37.4985 6.25158 37.4985C6.58352 37.4985 6.90186 37.6304 7.13658 37.8651L8.75158 39.4826L12.8666 35.3651C12.9827 35.2487 13.1206 35.1563 13.2725 35.0933C13.4244 35.0303 13.5872 34.9979 13.7516 34.9979C13.916 34.9979 14.0788 35.0303 14.2307 35.0933C14.3825 35.1563 14.5205 35.2487 14.6366 35.3651Z" fill="white"/>
</svg>
